M48
; DRILL file {KiCad (5.1.8)-1} date 10/10/21 15:44:20
; FORMAT={-:-/ absolute / metric / decimal}
; #@! TF.CreationDate,2021-10-10T15:44:20+08:00
; #@! TF.GenerationSoftware,Kicad,Pcbnew,(5.1.8)-1
; #@! TF.FileFunction,Plated,1,2,PTH
FMAT,2
METRIC
T1C0.300
T2C0.400
T3C0.600
T4C0.800
%
G90
G05
T1
X101.2Y-103.4
X102.9Y-99.6
X103.145Y-101.855
X103.456Y-107.34
X103.6Y-86.2
X103.6Y-87.4
X104.25Y-103.6
X106.0Y-95.6
X106.2Y-107.6
X107.2Y-88.4
X107.6Y-107.4
X114.0Y-105.8
X116.0Y-92.2
X116.8Y-93.2
X116.8Y-95.4
X116.8Y-103.2
X119.2Y-105.6
X120.2Y-100.8
X120.4Y-86.8
X122.7Y-86.5
X122.8Y-92.2
X123.95Y-86.45
X125.2Y-86.4
X126.405Y-90.2
X126.6Y-91.0
X126.8Y-86.5
X127.688Y-101.887
X128.0Y-96.6
X128.6Y-88.0
X130.05Y-86.85
X130.4Y-89.8
X130.662Y-91.8
X131.2Y-99.8
X131.52Y-91.6
X132.6Y-95.2
X133.05Y-102.15
X133.4Y-98.4
X133.4Y-90.4
T2
X116.6Y-99.0
T4
X105.1Y-85.0
X107.1Y-85.0
X109.1Y-85.0
X111.1Y-85.0
X113.1Y-85.0
X115.1Y-85.0
T3
X125.48Y-103.92
X125.48Y-104.12
X125.48Y-104.32
X125.48Y-104.52
X125.48Y-104.72
X125.48Y-105.02
X125.48Y-108.35
X125.48Y-108.55
X125.48Y-108.75
X125.48Y-108.95
X134.12Y-103.92
X134.12Y-104.12
X134.12Y-104.32
X134.12Y-104.52
X134.12Y-104.72
X134.12Y-105.02
X134.12Y-108.35
X134.12Y-108.55
X134.12Y-108.75
X134.12Y-108.95
T0
M30
