%TF.GenerationSoftware,KiCad,Pcbnew,(5.1.8)-1*%
%TF.CreationDate,2021-10-10T15:44:20+08:00*%
%TF.ProjectId,wifiaudio,77696669-6175-4646-996f-2e6b69636164,rev?*%
%TF.SameCoordinates,Original*%
%TF.FileFunction,Soldermask,Top*%
%TF.FilePolarity,Negative*%
%FSLAX46Y46*%
G04 Gerber Fmt 4.6, Leading zero omitted, Abs format (unit mm)*
G04 Created by KiCad (PCBNEW (5.1.8)-1) date 2021-10-10 15:44:20*
%MOMM*%
%LPD*%
G01*
G04 APERTURE LIST*
%ADD10R,2.500000X2.500000*%
%ADD11R,0.900000X1.700000*%
%ADD12O,1.350000X1.350000*%
%ADD13R,1.350000X1.350000*%
%ADD14R,0.800000X1.000000*%
%ADD15R,1.500000X0.700000*%
%ADD16C,0.900000*%
%ADD17R,3.000000X2.290000*%
%ADD18R,2.000000X0.900000*%
%ADD19R,0.900000X2.000000*%
%ADD20R,5.000000X5.000000*%
%ADD21R,0.650000X1.060000*%
%ADD22R,0.600000X1.450000*%
%ADD23R,0.300000X1.450000*%
%ADD24O,1.000000X2.100000*%
%ADD25C,0.650000*%
%ADD26O,1.000000X1.600000*%
G04 APERTURE END LIST*
%TO.C,R10*%
G36*
G01*
X101575000Y-104525000D02*
X101575000Y-105075000D01*
G75*
G02*
X101375000Y-105275000I-200000J0D01*
G01*
X100975000Y-105275000D01*
G75*
G02*
X100775000Y-105075000I0J200000D01*
G01*
X100775000Y-104525000D01*
G75*
G02*
X100975000Y-104325000I200000J0D01*
G01*
X101375000Y-104325000D01*
G75*
G02*
X101575000Y-104525000I0J-200000D01*
G01*
G37*
G36*
G01*
X103225000Y-104525000D02*
X103225000Y-105075000D01*
G75*
G02*
X103025000Y-105275000I-200000J0D01*
G01*
X102625000Y-105275000D01*
G75*
G02*
X102425000Y-105075000I0J200000D01*
G01*
X102425000Y-104525000D01*
G75*
G02*
X102625000Y-104325000I200000J0D01*
G01*
X103025000Y-104325000D01*
G75*
G02*
X103225000Y-104525000I0J-200000D01*
G01*
G37*
%TD*%
%TO.C,R9*%
G36*
G01*
X125675000Y-90575000D02*
X125125000Y-90575000D01*
G75*
G02*
X124925000Y-90375000I0J200000D01*
G01*
X124925000Y-89975000D01*
G75*
G02*
X125125000Y-89775000I200000J0D01*
G01*
X125675000Y-89775000D01*
G75*
G02*
X125875000Y-89975000I0J-200000D01*
G01*
X125875000Y-90375000D01*
G75*
G02*
X125675000Y-90575000I-200000J0D01*
G01*
G37*
G36*
G01*
X125675000Y-92225000D02*
X125125000Y-92225000D01*
G75*
G02*
X124925000Y-92025000I0J200000D01*
G01*
X124925000Y-91625000D01*
G75*
G02*
X125125000Y-91425000I200000J0D01*
G01*
X125675000Y-91425000D01*
G75*
G02*
X125875000Y-91625000I0J-200000D01*
G01*
X125875000Y-92025000D01*
G75*
G02*
X125675000Y-92225000I-200000J0D01*
G01*
G37*
%TD*%
%TO.C,R8*%
G36*
G01*
X125675000Y-93575000D02*
X125125000Y-93575000D01*
G75*
G02*
X124925000Y-93375000I0J200000D01*
G01*
X124925000Y-92975000D01*
G75*
G02*
X125125000Y-92775000I200000J0D01*
G01*
X125675000Y-92775000D01*
G75*
G02*
X125875000Y-92975000I0J-200000D01*
G01*
X125875000Y-93375000D01*
G75*
G02*
X125675000Y-93575000I-200000J0D01*
G01*
G37*
G36*
G01*
X125675000Y-95225000D02*
X125125000Y-95225000D01*
G75*
G02*
X124925000Y-95025000I0J200000D01*
G01*
X124925000Y-94625000D01*
G75*
G02*
X125125000Y-94425000I200000J0D01*
G01*
X125675000Y-94425000D01*
G75*
G02*
X125875000Y-94625000I0J-200000D01*
G01*
X125875000Y-95025000D01*
G75*
G02*
X125675000Y-95225000I-200000J0D01*
G01*
G37*
%TD*%
%TO.C,R7*%
G36*
G01*
X104775000Y-104525000D02*
X104775000Y-105075000D01*
G75*
G02*
X104575000Y-105275000I-200000J0D01*
G01*
X104175000Y-105275000D01*
G75*
G02*
X103975000Y-105075000I0J200000D01*
G01*
X103975000Y-104525000D01*
G75*
G02*
X104175000Y-104325000I200000J0D01*
G01*
X104575000Y-104325000D01*
G75*
G02*
X104775000Y-104525000I0J-200000D01*
G01*
G37*
G36*
G01*
X106425000Y-104525000D02*
X106425000Y-105075000D01*
G75*
G02*
X106225000Y-105275000I-200000J0D01*
G01*
X105825000Y-105275000D01*
G75*
G02*
X105625000Y-105075000I0J200000D01*
G01*
X105625000Y-104525000D01*
G75*
G02*
X105825000Y-104325000I200000J0D01*
G01*
X106225000Y-104325000D01*
G75*
G02*
X106425000Y-104525000I0J-200000D01*
G01*
G37*
%TD*%
%TO.C,R6*%
G36*
G01*
X133925000Y-98825000D02*
X134475000Y-98825000D01*
G75*
G02*
X134675000Y-99025000I0J-200000D01*
G01*
X134675000Y-99425000D01*
G75*
G02*
X134475000Y-99625000I-200000J0D01*
G01*
X133925000Y-99625000D01*
G75*
G02*
X133725000Y-99425000I0J200000D01*
G01*
X133725000Y-99025000D01*
G75*
G02*
X133925000Y-98825000I200000J0D01*
G01*
G37*
G36*
G01*
X133925000Y-97175000D02*
X134475000Y-97175000D01*
G75*
G02*
X134675000Y-97375000I0J-200000D01*
G01*
X134675000Y-97775000D01*
G75*
G02*
X134475000Y-97975000I-200000J0D01*
G01*
X133925000Y-97975000D01*
G75*
G02*
X133725000Y-97775000I0J200000D01*
G01*
X133725000Y-97375000D01*
G75*
G02*
X133925000Y-97175000I200000J0D01*
G01*
G37*
%TD*%
%TO.C,R5*%
G36*
G01*
X127275000Y-99175000D02*
X126725000Y-99175000D01*
G75*
G02*
X126525000Y-98975000I0J200000D01*
G01*
X126525000Y-98575000D01*
G75*
G02*
X126725000Y-98375000I200000J0D01*
G01*
X127275000Y-98375000D01*
G75*
G02*
X127475000Y-98575000I0J-200000D01*
G01*
X127475000Y-98975000D01*
G75*
G02*
X127275000Y-99175000I-200000J0D01*
G01*
G37*
G36*
G01*
X127275000Y-100825000D02*
X126725000Y-100825000D01*
G75*
G02*
X126525000Y-100625000I0J200000D01*
G01*
X126525000Y-100225000D01*
G75*
G02*
X126725000Y-100025000I200000J0D01*
G01*
X127275000Y-100025000D01*
G75*
G02*
X127475000Y-100225000I0J-200000D01*
G01*
X127475000Y-100625000D01*
G75*
G02*
X127275000Y-100825000I-200000J0D01*
G01*
G37*
%TD*%
%TO.C,R4*%
G36*
G01*
X126725000Y-97025000D02*
X127275000Y-97025000D01*
G75*
G02*
X127475000Y-97225000I0J-200000D01*
G01*
X127475000Y-97625000D01*
G75*
G02*
X127275000Y-97825000I-200000J0D01*
G01*
X126725000Y-97825000D01*
G75*
G02*
X126525000Y-97625000I0J200000D01*
G01*
X126525000Y-97225000D01*
G75*
G02*
X126725000Y-97025000I200000J0D01*
G01*
G37*
G36*
G01*
X126725000Y-95375000D02*
X127275000Y-95375000D01*
G75*
G02*
X127475000Y-95575000I0J-200000D01*
G01*
X127475000Y-95975000D01*
G75*
G02*
X127275000Y-96175000I-200000J0D01*
G01*
X126725000Y-96175000D01*
G75*
G02*
X126525000Y-95975000I0J200000D01*
G01*
X126525000Y-95575000D01*
G75*
G02*
X126725000Y-95375000I200000J0D01*
G01*
G37*
%TD*%
%TO.C,R3*%
G36*
G01*
X128975000Y-100725000D02*
X128975000Y-101275000D01*
G75*
G02*
X128775000Y-101475000I-200000J0D01*
G01*
X128375000Y-101475000D01*
G75*
G02*
X128175000Y-101275000I0J200000D01*
G01*
X128175000Y-100725000D01*
G75*
G02*
X128375000Y-100525000I200000J0D01*
G01*
X128775000Y-100525000D01*
G75*
G02*
X128975000Y-100725000I0J-200000D01*
G01*
G37*
G36*
G01*
X130625000Y-100725000D02*
X130625000Y-101275000D01*
G75*
G02*
X130425000Y-101475000I-200000J0D01*
G01*
X130025000Y-101475000D01*
G75*
G02*
X129825000Y-101275000I0J200000D01*
G01*
X129825000Y-100725000D01*
G75*
G02*
X130025000Y-100525000I200000J0D01*
G01*
X130425000Y-100525000D01*
G75*
G02*
X130625000Y-100725000I0J-200000D01*
G01*
G37*
%TD*%
%TO.C,R2*%
G36*
G01*
X117075000Y-105175000D02*
X116525000Y-105175000D01*
G75*
G02*
X116325000Y-104975000I0J200000D01*
G01*
X116325000Y-104575000D01*
G75*
G02*
X116525000Y-104375000I200000J0D01*
G01*
X117075000Y-104375000D01*
G75*
G02*
X117275000Y-104575000I0J-200000D01*
G01*
X117275000Y-104975000D01*
G75*
G02*
X117075000Y-105175000I-200000J0D01*
G01*
G37*
G36*
G01*
X117075000Y-106825000D02*
X116525000Y-106825000D01*
G75*
G02*
X116325000Y-106625000I0J200000D01*
G01*
X116325000Y-106225000D01*
G75*
G02*
X116525000Y-106025000I200000J0D01*
G01*
X117075000Y-106025000D01*
G75*
G02*
X117275000Y-106225000I0J-200000D01*
G01*
X117275000Y-106625000D01*
G75*
G02*
X117075000Y-106825000I-200000J0D01*
G01*
G37*
%TD*%
%TO.C,R1*%
G36*
G01*
X109475000Y-105175000D02*
X108925000Y-105175000D01*
G75*
G02*
X108725000Y-104975000I0J200000D01*
G01*
X108725000Y-104575000D01*
G75*
G02*
X108925000Y-104375000I200000J0D01*
G01*
X109475000Y-104375000D01*
G75*
G02*
X109675000Y-104575000I0J-200000D01*
G01*
X109675000Y-104975000D01*
G75*
G02*
X109475000Y-105175000I-200000J0D01*
G01*
G37*
G36*
G01*
X109475000Y-106825000D02*
X108925000Y-106825000D01*
G75*
G02*
X108725000Y-106625000I0J200000D01*
G01*
X108725000Y-106225000D01*
G75*
G02*
X108925000Y-106025000I200000J0D01*
G01*
X109475000Y-106025000D01*
G75*
G02*
X109675000Y-106225000I0J-200000D01*
G01*
X109675000Y-106625000D01*
G75*
G02*
X109475000Y-106825000I-200000J0D01*
G01*
G37*
%TD*%
%TO.C,D4*%
G36*
G01*
X102350000Y-106656250D02*
X102350000Y-106143750D01*
G75*
G02*
X102568750Y-105925000I218750J0D01*
G01*
X103006250Y-105925000D01*
G75*
G02*
X103225000Y-106143750I0J-218750D01*
G01*
X103225000Y-106656250D01*
G75*
G02*
X103006250Y-106875000I-218750J0D01*
G01*
X102568750Y-106875000D01*
G75*
G02*
X102350000Y-106656250I0J218750D01*
G01*
G37*
G36*
G01*
X100775000Y-106656250D02*
X100775000Y-106143750D01*
G75*
G02*
X100993750Y-105925000I218750J0D01*
G01*
X101431250Y-105925000D01*
G75*
G02*
X101650000Y-106143750I0J-218750D01*
G01*
X101650000Y-106656250D01*
G75*
G02*
X101431250Y-106875000I-218750J0D01*
G01*
X100993750Y-106875000D01*
G75*
G02*
X100775000Y-106656250I0J218750D01*
G01*
G37*
%TD*%
%TO.C,D3*%
G36*
G01*
X105550000Y-106656250D02*
X105550000Y-106143750D01*
G75*
G02*
X105768750Y-105925000I218750J0D01*
G01*
X106206250Y-105925000D01*
G75*
G02*
X106425000Y-106143750I0J-218750D01*
G01*
X106425000Y-106656250D01*
G75*
G02*
X106206250Y-106875000I-218750J0D01*
G01*
X105768750Y-106875000D01*
G75*
G02*
X105550000Y-106656250I0J218750D01*
G01*
G37*
G36*
G01*
X103975000Y-106656250D02*
X103975000Y-106143750D01*
G75*
G02*
X104193750Y-105925000I218750J0D01*
G01*
X104631250Y-105925000D01*
G75*
G02*
X104850000Y-106143750I0J-218750D01*
G01*
X104850000Y-106656250D01*
G75*
G02*
X104631250Y-106875000I-218750J0D01*
G01*
X104193750Y-106875000D01*
G75*
G02*
X103975000Y-106656250I0J218750D01*
G01*
G37*
%TD*%
%TO.C,D2*%
G36*
G01*
X133943750Y-95750000D02*
X134456250Y-95750000D01*
G75*
G02*
X134675000Y-95968750I0J-218750D01*
G01*
X134675000Y-96406250D01*
G75*
G02*
X134456250Y-96625000I-218750J0D01*
G01*
X133943750Y-96625000D01*
G75*
G02*
X133725000Y-96406250I0J218750D01*
G01*
X133725000Y-95968750D01*
G75*
G02*
X133943750Y-95750000I218750J0D01*
G01*
G37*
G36*
G01*
X133943750Y-94175000D02*
X134456250Y-94175000D01*
G75*
G02*
X134675000Y-94393750I0J-218750D01*
G01*
X134675000Y-94831250D01*
G75*
G02*
X134456250Y-95050000I-218750J0D01*
G01*
X133943750Y-95050000D01*
G75*
G02*
X133725000Y-94831250I0J218750D01*
G01*
X133725000Y-94393750D01*
G75*
G02*
X133943750Y-94175000I218750J0D01*
G01*
G37*
%TD*%
%TO.C,D1*%
G36*
G01*
X126743750Y-93962500D02*
X127256250Y-93962500D01*
G75*
G02*
X127475000Y-94181250I0J-218750D01*
G01*
X127475000Y-94618750D01*
G75*
G02*
X127256250Y-94837500I-218750J0D01*
G01*
X126743750Y-94837500D01*
G75*
G02*
X126525000Y-94618750I0J218750D01*
G01*
X126525000Y-94181250D01*
G75*
G02*
X126743750Y-93962500I218750J0D01*
G01*
G37*
G36*
G01*
X126743750Y-92387500D02*
X127256250Y-92387500D01*
G75*
G02*
X127475000Y-92606250I0J-218750D01*
G01*
X127475000Y-93043750D01*
G75*
G02*
X127256250Y-93262500I-218750J0D01*
G01*
X126743750Y-93262500D01*
G75*
G02*
X126525000Y-93043750I0J218750D01*
G01*
X126525000Y-92606250D01*
G75*
G02*
X126743750Y-92387500I218750J0D01*
G01*
G37*
%TD*%
%TO.C,C4*%
G36*
G01*
X122475000Y-94150000D02*
X122475000Y-94650000D01*
G75*
G02*
X122250000Y-94875000I-225000J0D01*
G01*
X121800000Y-94875000D01*
G75*
G02*
X121575000Y-94650000I0J225000D01*
G01*
X121575000Y-94150000D01*
G75*
G02*
X121800000Y-93925000I225000J0D01*
G01*
X122250000Y-93925000D01*
G75*
G02*
X122475000Y-94150000I0J-225000D01*
G01*
G37*
G36*
G01*
X124025000Y-94150000D02*
X124025000Y-94650000D01*
G75*
G02*
X123800000Y-94875000I-225000J0D01*
G01*
X123350000Y-94875000D01*
G75*
G02*
X123125000Y-94650000I0J225000D01*
G01*
X123125000Y-94150000D01*
G75*
G02*
X123350000Y-93925000I225000J0D01*
G01*
X123800000Y-93925000D01*
G75*
G02*
X124025000Y-94150000I0J-225000D01*
G01*
G37*
%TD*%
%TO.C,C3*%
G36*
G01*
X107350000Y-105925000D02*
X107850000Y-105925000D01*
G75*
G02*
X108075000Y-106150000I0J-225000D01*
G01*
X108075000Y-106600000D01*
G75*
G02*
X107850000Y-106825000I-225000J0D01*
G01*
X107350000Y-106825000D01*
G75*
G02*
X107125000Y-106600000I0J225000D01*
G01*
X107125000Y-106150000D01*
G75*
G02*
X107350000Y-105925000I225000J0D01*
G01*
G37*
G36*
G01*
X107350000Y-104375000D02*
X107850000Y-104375000D01*
G75*
G02*
X108075000Y-104600000I0J-225000D01*
G01*
X108075000Y-105050000D01*
G75*
G02*
X107850000Y-105275000I-225000J0D01*
G01*
X107350000Y-105275000D01*
G75*
G02*
X107125000Y-105050000I0J225000D01*
G01*
X107125000Y-104600000D01*
G75*
G02*
X107350000Y-104375000I225000J0D01*
G01*
G37*
%TD*%
%TO.C,C2*%
G36*
G01*
X128675000Y-90550000D02*
X128675000Y-91050000D01*
G75*
G02*
X128450000Y-91275000I-225000J0D01*
G01*
X128000000Y-91275000D01*
G75*
G02*
X127775000Y-91050000I0J225000D01*
G01*
X127775000Y-90550000D01*
G75*
G02*
X128000000Y-90325000I225000J0D01*
G01*
X128450000Y-90325000D01*
G75*
G02*
X128675000Y-90550000I0J-225000D01*
G01*
G37*
G36*
G01*
X130225000Y-90550000D02*
X130225000Y-91050000D01*
G75*
G02*
X130000000Y-91275000I-225000J0D01*
G01*
X129550000Y-91275000D01*
G75*
G02*
X129325000Y-91050000I0J225000D01*
G01*
X129325000Y-90550000D01*
G75*
G02*
X129550000Y-90325000I225000J0D01*
G01*
X130000000Y-90325000D01*
G75*
G02*
X130225000Y-90550000I0J-225000D01*
G01*
G37*
%TD*%
%TO.C,C1*%
G36*
G01*
X132725000Y-101250000D02*
X132725000Y-100750000D01*
G75*
G02*
X132950000Y-100525000I225000J0D01*
G01*
X133400000Y-100525000D01*
G75*
G02*
X133625000Y-100750000I0J-225000D01*
G01*
X133625000Y-101250000D01*
G75*
G02*
X133400000Y-101475000I-225000J0D01*
G01*
X132950000Y-101475000D01*
G75*
G02*
X132725000Y-101250000I0J225000D01*
G01*
G37*
G36*
G01*
X131175000Y-101250000D02*
X131175000Y-100750000D01*
G75*
G02*
X131400000Y-100525000I225000J0D01*
G01*
X131850000Y-100525000D01*
G75*
G02*
X132075000Y-100750000I0J-225000D01*
G01*
X132075000Y-101250000D01*
G75*
G02*
X131850000Y-101475000I-225000J0D01*
G01*
X131400000Y-101475000D01*
G75*
G02*
X131175000Y-101250000I0J225000D01*
G01*
G37*
%TD*%
D10*
%TO.C,J6*%
X121400000Y-105800000D03*
%TD*%
D11*
%TO.C,SW2*%
X110800000Y-105800000D03*
X115200000Y-105800000D03*
%TD*%
D12*
%TO.C,J5*%
X115100000Y-85000000D03*
X113100000Y-85000000D03*
X111100000Y-85000000D03*
X109100000Y-85000000D03*
X107100000Y-85000000D03*
D13*
X105100000Y-85000000D03*
%TD*%
D14*
%TO.C,SW1*%
X132420000Y-91250000D03*
X132420000Y-83950000D03*
X134630000Y-83950000D03*
X134630000Y-91250000D03*
D15*
X131770000Y-85350000D03*
X131770000Y-86850000D03*
X131770000Y-89850000D03*
D16*
X133530000Y-86100000D03*
X133530000Y-89100000D03*
%TD*%
D17*
%TO.C,U2*%
X130600000Y-95800000D03*
G36*
G01*
X128845000Y-94300000D02*
X128545000Y-94300000D01*
G75*
G02*
X128395000Y-94150000I0J150000D01*
G01*
X128395000Y-92500000D01*
G75*
G02*
X128545000Y-92350000I150000J0D01*
G01*
X128845000Y-92350000D01*
G75*
G02*
X128995000Y-92500000I0J-150000D01*
G01*
X128995000Y-94150000D01*
G75*
G02*
X128845000Y-94300000I-150000J0D01*
G01*
G37*
G36*
G01*
X130115000Y-94300000D02*
X129815000Y-94300000D01*
G75*
G02*
X129665000Y-94150000I0J150000D01*
G01*
X129665000Y-92500000D01*
G75*
G02*
X129815000Y-92350000I150000J0D01*
G01*
X130115000Y-92350000D01*
G75*
G02*
X130265000Y-92500000I0J-150000D01*
G01*
X130265000Y-94150000D01*
G75*
G02*
X130115000Y-94300000I-150000J0D01*
G01*
G37*
G36*
G01*
X131385000Y-94300000D02*
X131085000Y-94300000D01*
G75*
G02*
X130935000Y-94150000I0J150000D01*
G01*
X130935000Y-92500000D01*
G75*
G02*
X131085000Y-92350000I150000J0D01*
G01*
X131385000Y-92350000D01*
G75*
G02*
X131535000Y-92500000I0J-150000D01*
G01*
X131535000Y-94150000D01*
G75*
G02*
X131385000Y-94300000I-150000J0D01*
G01*
G37*
G36*
G01*
X132655000Y-94300000D02*
X132355000Y-94300000D01*
G75*
G02*
X132205000Y-94150000I0J150000D01*
G01*
X132205000Y-92500000D01*
G75*
G02*
X132355000Y-92350000I150000J0D01*
G01*
X132655000Y-92350000D01*
G75*
G02*
X132805000Y-92500000I0J-150000D01*
G01*
X132805000Y-94150000D01*
G75*
G02*
X132655000Y-94300000I-150000J0D01*
G01*
G37*
G36*
G01*
X132655000Y-99250000D02*
X132355000Y-99250000D01*
G75*
G02*
X132205000Y-99100000I0J150000D01*
G01*
X132205000Y-97450000D01*
G75*
G02*
X132355000Y-97300000I150000J0D01*
G01*
X132655000Y-97300000D01*
G75*
G02*
X132805000Y-97450000I0J-150000D01*
G01*
X132805000Y-99100000D01*
G75*
G02*
X132655000Y-99250000I-150000J0D01*
G01*
G37*
G36*
G01*
X131385000Y-99250000D02*
X131085000Y-99250000D01*
G75*
G02*
X130935000Y-99100000I0J150000D01*
G01*
X130935000Y-97450000D01*
G75*
G02*
X131085000Y-97300000I150000J0D01*
G01*
X131385000Y-97300000D01*
G75*
G02*
X131535000Y-97450000I0J-150000D01*
G01*
X131535000Y-99100000D01*
G75*
G02*
X131385000Y-99250000I-150000J0D01*
G01*
G37*
G36*
G01*
X130115000Y-99250000D02*
X129815000Y-99250000D01*
G75*
G02*
X129665000Y-99100000I0J150000D01*
G01*
X129665000Y-97450000D01*
G75*
G02*
X129815000Y-97300000I150000J0D01*
G01*
X130115000Y-97300000D01*
G75*
G02*
X130265000Y-97450000I0J-150000D01*
G01*
X130265000Y-99100000D01*
G75*
G02*
X130115000Y-99250000I-150000J0D01*
G01*
G37*
G36*
G01*
X128845000Y-99250000D02*
X128545000Y-99250000D01*
G75*
G02*
X128395000Y-99100000I0J150000D01*
G01*
X128395000Y-97450000D01*
G75*
G02*
X128545000Y-97300000I150000J0D01*
G01*
X128845000Y-97300000D01*
G75*
G02*
X128995000Y-97450000I0J-150000D01*
G01*
X128995000Y-99100000D01*
G75*
G02*
X128845000Y-99250000I-150000J0D01*
G01*
G37*
%TD*%
%TO.C,J4*%
G36*
G01*
X121350000Y-83750000D02*
X121350000Y-85950000D01*
G75*
G02*
X121100000Y-86200000I-250000J0D01*
G01*
X120600000Y-86200000D01*
G75*
G02*
X120350000Y-85950000I0J250000D01*
G01*
X120350000Y-83750000D01*
G75*
G02*
X120600000Y-83500000I250000J0D01*
G01*
X121100000Y-83500000D01*
G75*
G02*
X121350000Y-83750000I0J-250000D01*
G01*
G37*
G36*
G01*
X130050000Y-83750000D02*
X130050000Y-85950000D01*
G75*
G02*
X129800000Y-86200000I-250000J0D01*
G01*
X129300000Y-86200000D01*
G75*
G02*
X129050000Y-85950000I0J250000D01*
G01*
X129050000Y-83750000D01*
G75*
G02*
X129300000Y-83500000I250000J0D01*
G01*
X129800000Y-83500000D01*
G75*
G02*
X130050000Y-83750000I0J-250000D01*
G01*
G37*
G36*
G01*
X123000000Y-87350000D02*
X123000000Y-88750000D01*
G75*
G02*
X122850000Y-88900000I-150000J0D01*
G01*
X122550000Y-88900000D01*
G75*
G02*
X122400000Y-88750000I0J150000D01*
G01*
X122400000Y-87350000D01*
G75*
G02*
X122550000Y-87200000I150000J0D01*
G01*
X122850000Y-87200000D01*
G75*
G02*
X123000000Y-87350000I0J-150000D01*
G01*
G37*
G36*
G01*
X124250000Y-87350000D02*
X124250000Y-88750000D01*
G75*
G02*
X124100000Y-88900000I-150000J0D01*
G01*
X123800000Y-88900000D01*
G75*
G02*
X123650000Y-88750000I0J150000D01*
G01*
X123650000Y-87350000D01*
G75*
G02*
X123800000Y-87200000I150000J0D01*
G01*
X124100000Y-87200000D01*
G75*
G02*
X124250000Y-87350000I0J-150000D01*
G01*
G37*
G36*
G01*
X125500000Y-87350000D02*
X125500000Y-88750000D01*
G75*
G02*
X125350000Y-88900000I-150000J0D01*
G01*
X125050000Y-88900000D01*
G75*
G02*
X124900000Y-88750000I0J150000D01*
G01*
X124900000Y-87350000D01*
G75*
G02*
X125050000Y-87200000I150000J0D01*
G01*
X125350000Y-87200000D01*
G75*
G02*
X125500000Y-87350000I0J-150000D01*
G01*
G37*
G36*
G01*
X126750000Y-87350000D02*
X126750000Y-88750000D01*
G75*
G02*
X126600000Y-88900000I-150000J0D01*
G01*
X126300000Y-88900000D01*
G75*
G02*
X126150000Y-88750000I0J150000D01*
G01*
X126150000Y-87350000D01*
G75*
G02*
X126300000Y-87200000I150000J0D01*
G01*
X126600000Y-87200000D01*
G75*
G02*
X126750000Y-87350000I0J-150000D01*
G01*
G37*
G36*
G01*
X128000000Y-87350000D02*
X128000000Y-88750000D01*
G75*
G02*
X127850000Y-88900000I-150000J0D01*
G01*
X127550000Y-88900000D01*
G75*
G02*
X127400000Y-88750000I0J150000D01*
G01*
X127400000Y-87350000D01*
G75*
G02*
X127550000Y-87200000I150000J0D01*
G01*
X127850000Y-87200000D01*
G75*
G02*
X128000000Y-87350000I0J-150000D01*
G01*
G37*
%TD*%
D18*
%TO.C,U1*%
X118500000Y-84345000D03*
X118500000Y-85615000D03*
X118500000Y-86885000D03*
X118500000Y-88155000D03*
X118500000Y-89425000D03*
X118500000Y-90695000D03*
X118500000Y-91965000D03*
X118500000Y-93235000D03*
X118500000Y-94505000D03*
X118500000Y-95775000D03*
X118500000Y-97045000D03*
X118500000Y-98315000D03*
X118500000Y-99585000D03*
X118500000Y-100855000D03*
D19*
X115715000Y-101855000D03*
X114445000Y-101855000D03*
X113175000Y-101855000D03*
X111905000Y-101855000D03*
X110635000Y-101855000D03*
X109365000Y-101855000D03*
X108095000Y-101855000D03*
X106825000Y-101855000D03*
X105555000Y-101855000D03*
X104285000Y-101855000D03*
D18*
X101500000Y-100855000D03*
X101500000Y-99585000D03*
X101500000Y-98315000D03*
X101500000Y-97045000D03*
X101500000Y-95775000D03*
X101500000Y-94505000D03*
X101500000Y-93235000D03*
X101500000Y-91965000D03*
X101500000Y-90695000D03*
X101500000Y-89425000D03*
X101500000Y-88155000D03*
X101500000Y-86885000D03*
X101500000Y-85615000D03*
X101500000Y-84345000D03*
D20*
X109000000Y-91845000D03*
%TD*%
D21*
%TO.C,U5*%
X123750000Y-92500000D03*
X121850000Y-92500000D03*
X121850000Y-90300000D03*
X122800000Y-90300000D03*
X123750000Y-90300000D03*
%TD*%
D22*
%TO.C,J1*%
X133050000Y-103555000D03*
X132250000Y-103555000D03*
X127350000Y-103555000D03*
X126550000Y-103555000D03*
X126550000Y-103555000D03*
X127350000Y-103555000D03*
X132250000Y-103555000D03*
X133050000Y-103555000D03*
D23*
X128050000Y-103555000D03*
X128550000Y-103555000D03*
X129050000Y-103555000D03*
X130050000Y-103555000D03*
X130550000Y-103555000D03*
X131050000Y-103555000D03*
X131550000Y-103555000D03*
X129550000Y-103555000D03*
D24*
X134120000Y-104470000D03*
X125480000Y-104470000D03*
D25*
X126910000Y-105000000D03*
D26*
X125480000Y-108650000D03*
D25*
X132690000Y-105000000D03*
D26*
X134120000Y-108650000D03*
%TD*%
M02*
