%TF.GenerationSoftware,KiCad,Pcbnew,(5.1.8)-1*%
%TF.CreationDate,2021-10-10T15:44:20+08:00*%
%TF.ProjectId,wifiaudio,77696669-6175-4646-996f-2e6b69636164,rev?*%
%TF.SameCoordinates,Original*%
%TF.FileFunction,Copper,L2,Bot*%
%TF.FilePolarity,Positive*%
%FSLAX46Y46*%
G04 Gerber Fmt 4.6, Leading zero omitted, Abs format (unit mm)*
G04 Created by KiCad (PCBNEW (5.1.8)-1) date 2021-10-10 15:44:20*
%MOMM*%
%LPD*%
G01*
G04 APERTURE LIST*
%TA.AperFunction,ComponentPad*%
%ADD10O,1.350000X1.350000*%
%TD*%
%TA.AperFunction,ComponentPad*%
%ADD11R,1.350000X1.350000*%
%TD*%
%TA.AperFunction,SMDPad,CuDef*%
%ADD12R,2.500000X2.500000*%
%TD*%
%TA.AperFunction,ComponentPad*%
%ADD13O,1.000000X2.100000*%
%TD*%
%TA.AperFunction,ComponentPad*%
%ADD14O,1.000000X1.600000*%
%TD*%
%TA.AperFunction,ViaPad*%
%ADD15C,0.600000*%
%TD*%
%TA.AperFunction,ViaPad*%
%ADD16C,0.800000*%
%TD*%
%TA.AperFunction,Conductor*%
%ADD17C,0.500000*%
%TD*%
%TA.AperFunction,Conductor*%
%ADD18C,0.400000*%
%TD*%
%TA.AperFunction,Conductor*%
%ADD19C,0.250000*%
%TD*%
%TA.AperFunction,Conductor*%
%ADD20C,0.254000*%
%TD*%
%TA.AperFunction,Conductor*%
%ADD21C,0.350000*%
%TD*%
%ADD22C,0.300000*%
%ADD23C,0.350000*%
%ADD24O,0.600000X1.700000*%
%ADD25O,0.600000X1.200000*%
G04 APERTURE END LIST*
D10*
%TO.P,J5,6*%
%TO.N,/TXD*%
X115100000Y-85000000D03*
%TO.P,J5,5*%
%TO.N,/RXD*%
X113100000Y-85000000D03*
%TO.P,J5,4*%
%TO.N,/IO0*%
X111100000Y-85000000D03*
%TO.P,J5,3*%
%TO.N,/EN*%
X109100000Y-85000000D03*
%TO.P,J5,2*%
%TO.N,GND*%
X107100000Y-85000000D03*
D11*
%TO.P,J5,1*%
%TO.N,+5V*%
X105100000Y-85000000D03*
%TD*%
D12*
%TO.P,J3,1*%
%TO.N,GND*%
X127200000Y-84700000D03*
%TD*%
%TO.P,J2,1*%
%TO.N,BAT+*%
X131400000Y-84600000D03*
%TD*%
D13*
%TO.P,J1,S1*%
%TO.N,GND*%
X134120000Y-104470000D03*
X125480000Y-104470000D03*
D14*
X125480000Y-108650000D03*
X134120000Y-108650000D03*
%TD*%
D15*
%TO.N,GND*%
X133050013Y-102149997D03*
X131200000Y-99799992D03*
X103456114Y-107340328D03*
X103145004Y-101854996D03*
X114000000Y-105800000D03*
X107600000Y-107400000D03*
X126800000Y-86500000D03*
X120400000Y-86800000D03*
X107200000Y-88400000D03*
%TO.N,+3V3*%
X128600008Y-88000000D03*
X122800000Y-92200042D03*
X106200000Y-107600000D03*
X103600000Y-86200000D03*
%TO.N,+5V*%
X127687500Y-101887500D03*
%TO.N,BAT+*%
X132600000Y-95200000D03*
X131519812Y-91600000D03*
X130049976Y-86849976D03*
%TO.N,Net-(C1-Pad1)*%
X128000000Y-96600000D03*
X133400000Y-98400000D03*
%TO.N,Net-(D2-Pad1)*%
X130662026Y-91800000D03*
X133400002Y-90400000D03*
%TO.N,/DIN*%
X116000000Y-92200000D03*
X122699999Y-86499999D03*
%TO.N,/WS*%
X123949993Y-86450007D03*
X116800000Y-93200000D03*
%TO.N,/BCK*%
X125200000Y-86400000D03*
X116800000Y-95400000D03*
%TO.N,/EN*%
X104249990Y-103600000D03*
X103600000Y-87400000D03*
%TO.N,/IO0*%
X120200000Y-100800012D03*
D16*
X116600000Y-99000000D03*
D15*
%TO.N,/ADC*%
X106000000Y-95600000D03*
X126599994Y-91000000D03*
%TO.N,Net-(R9-Pad2)*%
X130399994Y-89799994D03*
X126405018Y-90200000D03*
%TO.N,Net-(R10-Pad2)*%
X102900018Y-99600000D03*
X101200000Y-103400000D03*
%TO.N,Net-(J6-Pad1)*%
X116800000Y-103200000D03*
X119200000Y-105600000D03*
%TD*%
D17*
%TO.N,GND*%
X133050013Y-102149997D02*
X131200000Y-100299984D01*
X131200000Y-100299984D02*
X131200000Y-99799992D01*
D18*
X102800000Y-102200000D02*
X103145004Y-101854996D01*
X102800000Y-106684214D02*
X102800000Y-102200000D01*
X103456114Y-107340328D02*
X102800000Y-106684214D01*
X126800000Y-85100000D02*
X127200000Y-84700000D01*
X126800000Y-86500000D02*
X126800000Y-85100000D01*
D17*
X107100000Y-88300000D02*
X107200000Y-88400000D01*
X107100000Y-85000000D02*
X107100000Y-88300000D01*
D18*
%TO.N,+3V3*%
X127000042Y-88000000D02*
X122800000Y-92200042D01*
X128600008Y-88000000D02*
X127000042Y-88000000D01*
D17*
X106200000Y-102589965D02*
X106200000Y-107600000D01*
X104399989Y-86999989D02*
X104399989Y-100789954D01*
X104399989Y-100789954D02*
X106200000Y-102589965D01*
X103600000Y-86200000D02*
X104399989Y-86999989D01*
%TO.N,+5V*%
X106687500Y-101887500D02*
X127687500Y-101887500D01*
X105100000Y-100300000D02*
X106687500Y-101887500D01*
X105100000Y-85000000D02*
X105100000Y-100300000D01*
%TO.N,BAT+*%
X132600000Y-95200000D02*
X132600000Y-92680188D01*
X132600000Y-92680188D02*
X131519812Y-91600000D01*
X131000000Y-85400000D02*
X130049976Y-86350024D01*
X130049976Y-86350024D02*
X130049976Y-86849976D01*
D18*
%TO.N,Net-(C1-Pad1)*%
X128000000Y-96600000D02*
X131600000Y-96600000D01*
X131600000Y-96600000D02*
X133400000Y-98400000D01*
D19*
%TO.N,Net-(D2-Pad1)*%
X130662026Y-91800000D02*
X130662026Y-91313710D01*
X130662026Y-91313710D02*
X131575736Y-90400000D01*
X131575736Y-90400000D02*
X133400002Y-90400000D01*
D18*
%TO.N,/DIN*%
X116000000Y-92200000D02*
X116999998Y-92200000D01*
X116999998Y-92200000D02*
X122699999Y-86499999D01*
%TO.N,/WS*%
X117200000Y-93200000D02*
X116800000Y-93200000D01*
X123949993Y-86450007D02*
X117200000Y-93200000D01*
%TO.N,/BCK*%
X125200000Y-86400000D02*
X116800000Y-94800000D01*
X116800000Y-94800000D02*
X116800000Y-95400000D01*
D17*
%TO.N,/EN*%
X104249990Y-103600000D02*
X104249990Y-101629919D01*
X104249990Y-101629919D02*
X103699978Y-101079908D01*
X103699978Y-101079908D02*
X103699978Y-87499978D01*
X103699978Y-87499978D02*
X103600000Y-87400000D01*
%TO.N,/IO0*%
X120200000Y-100800012D02*
X118400012Y-100800012D01*
X118400012Y-100800012D02*
X116600000Y-99000000D01*
%TO.N,/ADC*%
X106000000Y-95600000D02*
X106550001Y-96150001D01*
X106550001Y-96150001D02*
X121449993Y-96150001D01*
X121449993Y-96150001D02*
X126599994Y-91000000D01*
%TO.N,Net-(R9-Pad2)*%
X130399994Y-89799994D02*
X126805024Y-89799994D01*
X126805024Y-89799994D02*
X126405018Y-90200000D01*
D18*
%TO.N,Net-(R10-Pad2)*%
X100800000Y-103000000D02*
X101200000Y-103400000D01*
X100800000Y-100400000D02*
X100800000Y-103000000D01*
X101600000Y-99600000D02*
X100800000Y-100400000D01*
X102900018Y-99600000D02*
X101600000Y-99600000D01*
%TO.N,Net-(J6-Pad1)*%
X116800000Y-103200000D02*
X119200000Y-105600000D01*
%TD*%
D20*
%TO.N,GND*%
X134740000Y-102967411D02*
X134644976Y-102905724D01*
X134421874Y-102825881D01*
X134247000Y-102952046D01*
X134247000Y-104343000D01*
X134267000Y-104343000D01*
X134267000Y-104597000D01*
X134247000Y-104597000D01*
X134247000Y-105987954D01*
X134421874Y-106114119D01*
X134644976Y-106034276D01*
X134740000Y-105972589D01*
X134740000Y-107397411D01*
X134644976Y-107335724D01*
X134421874Y-107255881D01*
X134247000Y-107382046D01*
X134247000Y-108523000D01*
X134267000Y-108523000D01*
X134267000Y-108777000D01*
X134247000Y-108777000D01*
X134247000Y-108797000D01*
X133993000Y-108797000D01*
X133993000Y-108777000D01*
X132985000Y-108777000D01*
X132985000Y-109077000D01*
X133031585Y-109295987D01*
X133050503Y-109340000D01*
X126549497Y-109340000D01*
X126568415Y-109295987D01*
X126615000Y-109077000D01*
X126615000Y-108777000D01*
X125607000Y-108777000D01*
X125607000Y-108797000D01*
X125353000Y-108797000D01*
X125353000Y-108777000D01*
X124345000Y-108777000D01*
X124345000Y-109077000D01*
X124391585Y-109295987D01*
X124410503Y-109340000D01*
X100660000Y-109340000D01*
X100660000Y-104163699D01*
X100757111Y-104228586D01*
X100927271Y-104299068D01*
X101107911Y-104335000D01*
X101292089Y-104335000D01*
X101472729Y-104299068D01*
X101642889Y-104228586D01*
X101796028Y-104126262D01*
X101926262Y-103996028D01*
X102028586Y-103842889D01*
X102099068Y-103672729D01*
X102135000Y-103492089D01*
X102135000Y-103307911D01*
X102099068Y-103127271D01*
X102028586Y-102957111D01*
X101926262Y-102803972D01*
X101796028Y-102673738D01*
X101642889Y-102571414D01*
X101635000Y-102568146D01*
X101635000Y-100745868D01*
X101945868Y-100435000D01*
X102472614Y-100435000D01*
X102627289Y-100499068D01*
X102807929Y-100535000D01*
X102814978Y-100535000D01*
X102814978Y-101036439D01*
X102810697Y-101079908D01*
X102814978Y-101123374D01*
X102814978Y-101123384D01*
X102827783Y-101253397D01*
X102878389Y-101420220D01*
X102960567Y-101573966D01*
X103071161Y-101708725D01*
X103104935Y-101736443D01*
X103364991Y-101996498D01*
X103364990Y-103293307D01*
X103350922Y-103327271D01*
X103314990Y-103507911D01*
X103314990Y-103692089D01*
X103350922Y-103872729D01*
X103421404Y-104042889D01*
X103523728Y-104196028D01*
X103653962Y-104326262D01*
X103807101Y-104428586D01*
X103977261Y-104499068D01*
X104157901Y-104535000D01*
X104342079Y-104535000D01*
X104522719Y-104499068D01*
X104692879Y-104428586D01*
X104846018Y-104326262D01*
X104976252Y-104196028D01*
X105078576Y-104042889D01*
X105149058Y-103872729D01*
X105184990Y-103692089D01*
X105184990Y-103507911D01*
X105149058Y-103327271D01*
X105134990Y-103293308D01*
X105134990Y-102776534D01*
X105315000Y-102956544D01*
X105315001Y-107293305D01*
X105300932Y-107327271D01*
X105265000Y-107507911D01*
X105265000Y-107692089D01*
X105300932Y-107872729D01*
X105371414Y-108042889D01*
X105473738Y-108196028D01*
X105603972Y-108326262D01*
X105757111Y-108428586D01*
X105927271Y-108499068D01*
X106107911Y-108535000D01*
X106292089Y-108535000D01*
X106472729Y-108499068D01*
X106642889Y-108428586D01*
X106796028Y-108326262D01*
X106899290Y-108223000D01*
X124345000Y-108223000D01*
X124345000Y-108523000D01*
X125353000Y-108523000D01*
X125353000Y-107382046D01*
X125607000Y-107382046D01*
X125607000Y-108523000D01*
X126615000Y-108523000D01*
X126615000Y-108223000D01*
X132985000Y-108223000D01*
X132985000Y-108523000D01*
X133993000Y-108523000D01*
X133993000Y-107382046D01*
X133818126Y-107255881D01*
X133595024Y-107335724D01*
X133407236Y-107457631D01*
X133246839Y-107613831D01*
X133119997Y-107798322D01*
X133031585Y-108004013D01*
X132985000Y-108223000D01*
X126615000Y-108223000D01*
X126568415Y-108004013D01*
X126480003Y-107798322D01*
X126353161Y-107613831D01*
X126192764Y-107457631D01*
X126004976Y-107335724D01*
X125781874Y-107255881D01*
X125607000Y-107382046D01*
X125353000Y-107382046D01*
X125178126Y-107255881D01*
X124955024Y-107335724D01*
X124767236Y-107457631D01*
X124606839Y-107613831D01*
X124479997Y-107798322D01*
X124391585Y-108004013D01*
X124345000Y-108223000D01*
X106899290Y-108223000D01*
X106926262Y-108196028D01*
X107028586Y-108042889D01*
X107099068Y-107872729D01*
X107135000Y-107692089D01*
X107135000Y-107507911D01*
X107099068Y-107327271D01*
X107085000Y-107293308D01*
X107085000Y-102772500D01*
X115965040Y-102772500D01*
X115900932Y-102927271D01*
X115865000Y-103107911D01*
X115865000Y-103292089D01*
X115900932Y-103472729D01*
X115971414Y-103642889D01*
X116073738Y-103796028D01*
X116203972Y-103926262D01*
X116357111Y-104028586D01*
X116511787Y-104092654D01*
X118307347Y-105888215D01*
X118371414Y-106042889D01*
X118473738Y-106196028D01*
X118603972Y-106326262D01*
X118757111Y-106428586D01*
X118927271Y-106499068D01*
X119107911Y-106535000D01*
X119292089Y-106535000D01*
X119472729Y-106499068D01*
X119642889Y-106428586D01*
X119796028Y-106326262D01*
X119926262Y-106196028D01*
X120028586Y-106042889D01*
X120099068Y-105872729D01*
X120135000Y-105692089D01*
X120135000Y-105507911D01*
X120099068Y-105327271D01*
X120028586Y-105157111D01*
X119926262Y-105003972D01*
X119796028Y-104873738D01*
X119642889Y-104771414D01*
X119488215Y-104707347D01*
X119377868Y-104597000D01*
X124345000Y-104597000D01*
X124345000Y-105147000D01*
X124391585Y-105365987D01*
X124479997Y-105571678D01*
X124606839Y-105756169D01*
X124767236Y-105912369D01*
X124955024Y-106034276D01*
X125178126Y-106114119D01*
X125353000Y-105987954D01*
X125353000Y-104597000D01*
X124345000Y-104597000D01*
X119377868Y-104597000D01*
X118573868Y-103793000D01*
X124345000Y-103793000D01*
X124345000Y-104343000D01*
X125353000Y-104343000D01*
X125353000Y-102952046D01*
X125607000Y-102952046D01*
X125607000Y-104343000D01*
X125627000Y-104343000D01*
X125627000Y-104597000D01*
X125607000Y-104597000D01*
X125607000Y-105987954D01*
X125781874Y-106114119D01*
X126004976Y-106034276D01*
X126192764Y-105912369D01*
X126337116Y-105771794D01*
X126455269Y-105850741D01*
X126629978Y-105923108D01*
X126815448Y-105960000D01*
X127004552Y-105960000D01*
X127190022Y-105923108D01*
X127364731Y-105850741D01*
X127521964Y-105745681D01*
X127655681Y-105611964D01*
X127760741Y-105454731D01*
X127833108Y-105280022D01*
X127870000Y-105094552D01*
X127870000Y-104905448D01*
X131730000Y-104905448D01*
X131730000Y-105094552D01*
X131766892Y-105280022D01*
X131839259Y-105454731D01*
X131944319Y-105611964D01*
X132078036Y-105745681D01*
X132235269Y-105850741D01*
X132409978Y-105923108D01*
X132595448Y-105960000D01*
X132784552Y-105960000D01*
X132970022Y-105923108D01*
X133144731Y-105850741D01*
X133262884Y-105771794D01*
X133407236Y-105912369D01*
X133595024Y-106034276D01*
X133818126Y-106114119D01*
X133993000Y-105987954D01*
X133993000Y-104597000D01*
X133973000Y-104597000D01*
X133973000Y-104343000D01*
X133993000Y-104343000D01*
X133993000Y-102952046D01*
X133818126Y-102825881D01*
X133595024Y-102905724D01*
X133407236Y-103027631D01*
X133246839Y-103183831D01*
X133119997Y-103368322D01*
X133031585Y-103574013D01*
X132985000Y-103793000D01*
X132985000Y-104083096D01*
X132970022Y-104076892D01*
X132784552Y-104040000D01*
X132595448Y-104040000D01*
X132409978Y-104076892D01*
X132235269Y-104149259D01*
X132078036Y-104254319D01*
X131944319Y-104388036D01*
X131839259Y-104545269D01*
X131766892Y-104719978D01*
X131730000Y-104905448D01*
X127870000Y-104905448D01*
X127833108Y-104719978D01*
X127760741Y-104545269D01*
X127655681Y-104388036D01*
X127521964Y-104254319D01*
X127364731Y-104149259D01*
X127190022Y-104076892D01*
X127004552Y-104040000D01*
X126815448Y-104040000D01*
X126629978Y-104076892D01*
X126615000Y-104083096D01*
X126615000Y-103793000D01*
X126568415Y-103574013D01*
X126480003Y-103368322D01*
X126353161Y-103183831D01*
X126192764Y-103027631D01*
X126004976Y-102905724D01*
X125781874Y-102825881D01*
X125607000Y-102952046D01*
X125353000Y-102952046D01*
X125178126Y-102825881D01*
X124955024Y-102905724D01*
X124767236Y-103027631D01*
X124606839Y-103183831D01*
X124479997Y-103368322D01*
X124391585Y-103574013D01*
X124345000Y-103793000D01*
X118573868Y-103793000D01*
X117692654Y-102911787D01*
X117634960Y-102772500D01*
X127380808Y-102772500D01*
X127414771Y-102786568D01*
X127595411Y-102822500D01*
X127779589Y-102822500D01*
X127960229Y-102786568D01*
X128130389Y-102716086D01*
X128283528Y-102613762D01*
X128413762Y-102483528D01*
X128516086Y-102330389D01*
X128586568Y-102160229D01*
X128622500Y-101979589D01*
X128622500Y-101795411D01*
X128586568Y-101614771D01*
X128516086Y-101444611D01*
X128413762Y-101291472D01*
X128283528Y-101161238D01*
X128130389Y-101058914D01*
X127960229Y-100988432D01*
X127779589Y-100952500D01*
X127595411Y-100952500D01*
X127414771Y-100988432D01*
X127380808Y-101002500D01*
X121113040Y-101002500D01*
X121135000Y-100892101D01*
X121135000Y-100707923D01*
X121099068Y-100527283D01*
X121028586Y-100357123D01*
X120926262Y-100203984D01*
X120796028Y-100073750D01*
X120642889Y-99971426D01*
X120472729Y-99900944D01*
X120292089Y-99865012D01*
X120107911Y-99865012D01*
X119927271Y-99900944D01*
X119893308Y-99915012D01*
X118766591Y-99915012D01*
X117606535Y-98754957D01*
X117595226Y-98698102D01*
X117517205Y-98509744D01*
X117403937Y-98340226D01*
X117259774Y-98196063D01*
X117090256Y-98082795D01*
X116901898Y-98004774D01*
X116701939Y-97965000D01*
X116498061Y-97965000D01*
X116298102Y-98004774D01*
X116109744Y-98082795D01*
X115940226Y-98196063D01*
X115796063Y-98340226D01*
X115682795Y-98509744D01*
X115604774Y-98698102D01*
X115565000Y-98898061D01*
X115565000Y-99101939D01*
X115604774Y-99301898D01*
X115682795Y-99490256D01*
X115796063Y-99659774D01*
X115940226Y-99803937D01*
X116109744Y-99917205D01*
X116298102Y-99995226D01*
X116354957Y-100006535D01*
X117350921Y-101002500D01*
X107054079Y-101002500D01*
X105985000Y-99933422D01*
X105985000Y-96831191D01*
X106055942Y-96889412D01*
X106209688Y-96971590D01*
X106376511Y-97022196D01*
X106506524Y-97035001D01*
X106506532Y-97035001D01*
X106550001Y-97039282D01*
X106593470Y-97035001D01*
X121406524Y-97035001D01*
X121449993Y-97039282D01*
X121493462Y-97035001D01*
X121493470Y-97035001D01*
X121623483Y-97022196D01*
X121790306Y-96971590D01*
X121944052Y-96889412D01*
X122078810Y-96778818D01*
X122106527Y-96745045D01*
X127008919Y-91842654D01*
X127042883Y-91828586D01*
X127196022Y-91726262D01*
X127326256Y-91596028D01*
X127428580Y-91442889D01*
X127499062Y-91272729D01*
X127534994Y-91092089D01*
X127534994Y-90907911D01*
X127499062Y-90727271D01*
X127481550Y-90684994D01*
X130093302Y-90684994D01*
X130127265Y-90699062D01*
X130189495Y-90711440D01*
X130151024Y-90749911D01*
X130122026Y-90773709D01*
X130027052Y-90889434D01*
X129956480Y-91021463D01*
X129913023Y-91164724D01*
X129904557Y-91250676D01*
X129833440Y-91357111D01*
X129762958Y-91527271D01*
X129727026Y-91707911D01*
X129727026Y-91892089D01*
X129762958Y-92072729D01*
X129833440Y-92242889D01*
X129935764Y-92396028D01*
X130065998Y-92526262D01*
X130219137Y-92628586D01*
X130389297Y-92699068D01*
X130569937Y-92735000D01*
X130754115Y-92735000D01*
X130934755Y-92699068D01*
X131104915Y-92628586D01*
X131219954Y-92551720D01*
X131715001Y-93046768D01*
X131715000Y-94893307D01*
X131700932Y-94927271D01*
X131665000Y-95107911D01*
X131665000Y-95292089D01*
X131700932Y-95472729D01*
X131771414Y-95642889D01*
X131873738Y-95796028D01*
X131894461Y-95816751D01*
X131763689Y-95777082D01*
X131641019Y-95765000D01*
X131641018Y-95765000D01*
X131600000Y-95760960D01*
X131558982Y-95765000D01*
X128427404Y-95765000D01*
X128272729Y-95700932D01*
X128092089Y-95665000D01*
X127907911Y-95665000D01*
X127727271Y-95700932D01*
X127557111Y-95771414D01*
X127403972Y-95873738D01*
X127273738Y-96003972D01*
X127171414Y-96157111D01*
X127100932Y-96327271D01*
X127065000Y-96507911D01*
X127065000Y-96692089D01*
X127100932Y-96872729D01*
X127171414Y-97042889D01*
X127273738Y-97196028D01*
X127403972Y-97326262D01*
X127557111Y-97428586D01*
X127727271Y-97499068D01*
X127907911Y-97535000D01*
X128092089Y-97535000D01*
X128272729Y-97499068D01*
X128427404Y-97435000D01*
X131254133Y-97435000D01*
X132507346Y-98688214D01*
X132571414Y-98842889D01*
X132673738Y-98996028D01*
X132803972Y-99126262D01*
X132957111Y-99228586D01*
X133127271Y-99299068D01*
X133307911Y-99335000D01*
X133492089Y-99335000D01*
X133672729Y-99299068D01*
X133842889Y-99228586D01*
X133996028Y-99126262D01*
X134126262Y-98996028D01*
X134228586Y-98842889D01*
X134299068Y-98672729D01*
X134335000Y-98492089D01*
X134335000Y-98307911D01*
X134299068Y-98127271D01*
X134228586Y-97957111D01*
X134126262Y-97803972D01*
X133996028Y-97673738D01*
X133842889Y-97571414D01*
X133688214Y-97507346D01*
X132246464Y-96065597D01*
X132327271Y-96099068D01*
X132507911Y-96135000D01*
X132692089Y-96135000D01*
X132872729Y-96099068D01*
X133042889Y-96028586D01*
X133196028Y-95926262D01*
X133326262Y-95796028D01*
X133428586Y-95642889D01*
X133499068Y-95472729D01*
X133535000Y-95292089D01*
X133535000Y-95107911D01*
X133499068Y-94927271D01*
X133485000Y-94893308D01*
X133485000Y-92723657D01*
X133489281Y-92680188D01*
X133485000Y-92636719D01*
X133485000Y-92636711D01*
X133472195Y-92506698D01*
X133461903Y-92472771D01*
X133421589Y-92339874D01*
X133339411Y-92186129D01*
X133256532Y-92085141D01*
X133256530Y-92085139D01*
X133228817Y-92051371D01*
X133195049Y-92023658D01*
X132362467Y-91191077D01*
X132349595Y-91160000D01*
X132854467Y-91160000D01*
X132957113Y-91228586D01*
X133127273Y-91299068D01*
X133307913Y-91335000D01*
X133492091Y-91335000D01*
X133672731Y-91299068D01*
X133842891Y-91228586D01*
X133996030Y-91126262D01*
X134126264Y-90996028D01*
X134228588Y-90842889D01*
X134299070Y-90672729D01*
X134335002Y-90492089D01*
X134335002Y-90307911D01*
X134299070Y-90127271D01*
X134228588Y-89957111D01*
X134219823Y-89943994D01*
X134221647Y-89942775D01*
X134372775Y-89791647D01*
X134491515Y-89613940D01*
X134573304Y-89416483D01*
X134615000Y-89206863D01*
X134615000Y-88993137D01*
X134573304Y-88783517D01*
X134491515Y-88586060D01*
X134372775Y-88408353D01*
X134221647Y-88257225D01*
X134043940Y-88138485D01*
X133846483Y-88056696D01*
X133636863Y-88015000D01*
X133423137Y-88015000D01*
X133213517Y-88056696D01*
X133016060Y-88138485D01*
X132838353Y-88257225D01*
X132687225Y-88408353D01*
X132568485Y-88586060D01*
X132486696Y-88783517D01*
X132445000Y-88993137D01*
X132445000Y-89206863D01*
X132486696Y-89416483D01*
X132568485Y-89613940D01*
X132585898Y-89640000D01*
X131613058Y-89640000D01*
X131575735Y-89636324D01*
X131538412Y-89640000D01*
X131538403Y-89640000D01*
X131426750Y-89650997D01*
X131329540Y-89680485D01*
X131299062Y-89527265D01*
X131228580Y-89357105D01*
X131126256Y-89203966D01*
X130996022Y-89073732D01*
X130842883Y-88971408D01*
X130672723Y-88900926D01*
X130492083Y-88864994D01*
X130307905Y-88864994D01*
X130127265Y-88900926D01*
X130093302Y-88914994D01*
X128792673Y-88914994D01*
X128872737Y-88899068D01*
X129042897Y-88828586D01*
X129196036Y-88726262D01*
X129326270Y-88596028D01*
X129428594Y-88442889D01*
X129499076Y-88272729D01*
X129535008Y-88092089D01*
X129535008Y-87907911D01*
X129499076Y-87727271D01*
X129428594Y-87557111D01*
X129416055Y-87538345D01*
X129453948Y-87576238D01*
X129607087Y-87678562D01*
X129777247Y-87749044D01*
X129957887Y-87784976D01*
X130142065Y-87784976D01*
X130322705Y-87749044D01*
X130492865Y-87678562D01*
X130646004Y-87576238D01*
X130776238Y-87446004D01*
X130878562Y-87292865D01*
X130949044Y-87122705D01*
X130984976Y-86942065D01*
X130984976Y-86757887D01*
X130969831Y-86681748D01*
X131163507Y-86488072D01*
X132516349Y-86488072D01*
X132568485Y-86613940D01*
X132687225Y-86791647D01*
X132838353Y-86942775D01*
X133016060Y-87061515D01*
X133213517Y-87143304D01*
X133423137Y-87185000D01*
X133636863Y-87185000D01*
X133846483Y-87143304D01*
X134043940Y-87061515D01*
X134221647Y-86942775D01*
X134372775Y-86791647D01*
X134491515Y-86613940D01*
X134573304Y-86416483D01*
X134615000Y-86206863D01*
X134615000Y-85993137D01*
X134573304Y-85783517D01*
X134491515Y-85586060D01*
X134372775Y-85408353D01*
X134221647Y-85257225D01*
X134043940Y-85138485D01*
X133846483Y-85056696D01*
X133636863Y-85015000D01*
X133423137Y-85015000D01*
X133288072Y-85041866D01*
X133288072Y-83660000D01*
X134740001Y-83660000D01*
X134740000Y-102967411D01*
%TA.AperFunction,Conductor*%
D21*
G36*
X134740000Y-102967411D02*
G01*
X134644976Y-102905724D01*
X134421874Y-102825881D01*
X134247000Y-102952046D01*
X134247000Y-104343000D01*
X134267000Y-104343000D01*
X134267000Y-104597000D01*
X134247000Y-104597000D01*
X134247000Y-105987954D01*
X134421874Y-106114119D01*
X134644976Y-106034276D01*
X134740000Y-105972589D01*
X134740000Y-107397411D01*
X134644976Y-107335724D01*
X134421874Y-107255881D01*
X134247000Y-107382046D01*
X134247000Y-108523000D01*
X134267000Y-108523000D01*
X134267000Y-108777000D01*
X134247000Y-108777000D01*
X134247000Y-108797000D01*
X133993000Y-108797000D01*
X133993000Y-108777000D01*
X132985000Y-108777000D01*
X132985000Y-109077000D01*
X133031585Y-109295987D01*
X133050503Y-109340000D01*
X126549497Y-109340000D01*
X126568415Y-109295987D01*
X126615000Y-109077000D01*
X126615000Y-108777000D01*
X125607000Y-108777000D01*
X125607000Y-108797000D01*
X125353000Y-108797000D01*
X125353000Y-108777000D01*
X124345000Y-108777000D01*
X124345000Y-109077000D01*
X124391585Y-109295987D01*
X124410503Y-109340000D01*
X100660000Y-109340000D01*
X100660000Y-104163699D01*
X100757111Y-104228586D01*
X100927271Y-104299068D01*
X101107911Y-104335000D01*
X101292089Y-104335000D01*
X101472729Y-104299068D01*
X101642889Y-104228586D01*
X101796028Y-104126262D01*
X101926262Y-103996028D01*
X102028586Y-103842889D01*
X102099068Y-103672729D01*
X102135000Y-103492089D01*
X102135000Y-103307911D01*
X102099068Y-103127271D01*
X102028586Y-102957111D01*
X101926262Y-102803972D01*
X101796028Y-102673738D01*
X101642889Y-102571414D01*
X101635000Y-102568146D01*
X101635000Y-100745868D01*
X101945868Y-100435000D01*
X102472614Y-100435000D01*
X102627289Y-100499068D01*
X102807929Y-100535000D01*
X102814978Y-100535000D01*
X102814978Y-101036439D01*
X102810697Y-101079908D01*
X102814978Y-101123374D01*
X102814978Y-101123384D01*
X102827783Y-101253397D01*
X102878389Y-101420220D01*
X102960567Y-101573966D01*
X103071161Y-101708725D01*
X103104935Y-101736443D01*
X103364991Y-101996498D01*
X103364990Y-103293307D01*
X103350922Y-103327271D01*
X103314990Y-103507911D01*
X103314990Y-103692089D01*
X103350922Y-103872729D01*
X103421404Y-104042889D01*
X103523728Y-104196028D01*
X103653962Y-104326262D01*
X103807101Y-104428586D01*
X103977261Y-104499068D01*
X104157901Y-104535000D01*
X104342079Y-104535000D01*
X104522719Y-104499068D01*
X104692879Y-104428586D01*
X104846018Y-104326262D01*
X104976252Y-104196028D01*
X105078576Y-104042889D01*
X105149058Y-103872729D01*
X105184990Y-103692089D01*
X105184990Y-103507911D01*
X105149058Y-103327271D01*
X105134990Y-103293308D01*
X105134990Y-102776534D01*
X105315000Y-102956544D01*
X105315001Y-107293305D01*
X105300932Y-107327271D01*
X105265000Y-107507911D01*
X105265000Y-107692089D01*
X105300932Y-107872729D01*
X105371414Y-108042889D01*
X105473738Y-108196028D01*
X105603972Y-108326262D01*
X105757111Y-108428586D01*
X105927271Y-108499068D01*
X106107911Y-108535000D01*
X106292089Y-108535000D01*
X106472729Y-108499068D01*
X106642889Y-108428586D01*
X106796028Y-108326262D01*
X106899290Y-108223000D01*
X124345000Y-108223000D01*
X124345000Y-108523000D01*
X125353000Y-108523000D01*
X125353000Y-107382046D01*
X125607000Y-107382046D01*
X125607000Y-108523000D01*
X126615000Y-108523000D01*
X126615000Y-108223000D01*
X132985000Y-108223000D01*
X132985000Y-108523000D01*
X133993000Y-108523000D01*
X133993000Y-107382046D01*
X133818126Y-107255881D01*
X133595024Y-107335724D01*
X133407236Y-107457631D01*
X133246839Y-107613831D01*
X133119997Y-107798322D01*
X133031585Y-108004013D01*
X132985000Y-108223000D01*
X126615000Y-108223000D01*
X126568415Y-108004013D01*
X126480003Y-107798322D01*
X126353161Y-107613831D01*
X126192764Y-107457631D01*
X126004976Y-107335724D01*
X125781874Y-107255881D01*
X125607000Y-107382046D01*
X125353000Y-107382046D01*
X125178126Y-107255881D01*
X124955024Y-107335724D01*
X124767236Y-107457631D01*
X124606839Y-107613831D01*
X124479997Y-107798322D01*
X124391585Y-108004013D01*
X124345000Y-108223000D01*
X106899290Y-108223000D01*
X106926262Y-108196028D01*
X107028586Y-108042889D01*
X107099068Y-107872729D01*
X107135000Y-107692089D01*
X107135000Y-107507911D01*
X107099068Y-107327271D01*
X107085000Y-107293308D01*
X107085000Y-102772500D01*
X115965040Y-102772500D01*
X115900932Y-102927271D01*
X115865000Y-103107911D01*
X115865000Y-103292089D01*
X115900932Y-103472729D01*
X115971414Y-103642889D01*
X116073738Y-103796028D01*
X116203972Y-103926262D01*
X116357111Y-104028586D01*
X116511787Y-104092654D01*
X118307347Y-105888215D01*
X118371414Y-106042889D01*
X118473738Y-106196028D01*
X118603972Y-106326262D01*
X118757111Y-106428586D01*
X118927271Y-106499068D01*
X119107911Y-106535000D01*
X119292089Y-106535000D01*
X119472729Y-106499068D01*
X119642889Y-106428586D01*
X119796028Y-106326262D01*
X119926262Y-106196028D01*
X120028586Y-106042889D01*
X120099068Y-105872729D01*
X120135000Y-105692089D01*
X120135000Y-105507911D01*
X120099068Y-105327271D01*
X120028586Y-105157111D01*
X119926262Y-105003972D01*
X119796028Y-104873738D01*
X119642889Y-104771414D01*
X119488215Y-104707347D01*
X119377868Y-104597000D01*
X124345000Y-104597000D01*
X124345000Y-105147000D01*
X124391585Y-105365987D01*
X124479997Y-105571678D01*
X124606839Y-105756169D01*
X124767236Y-105912369D01*
X124955024Y-106034276D01*
X125178126Y-106114119D01*
X125353000Y-105987954D01*
X125353000Y-104597000D01*
X124345000Y-104597000D01*
X119377868Y-104597000D01*
X118573868Y-103793000D01*
X124345000Y-103793000D01*
X124345000Y-104343000D01*
X125353000Y-104343000D01*
X125353000Y-102952046D01*
X125607000Y-102952046D01*
X125607000Y-104343000D01*
X125627000Y-104343000D01*
X125627000Y-104597000D01*
X125607000Y-104597000D01*
X125607000Y-105987954D01*
X125781874Y-106114119D01*
X126004976Y-106034276D01*
X126192764Y-105912369D01*
X126337116Y-105771794D01*
X126455269Y-105850741D01*
X126629978Y-105923108D01*
X126815448Y-105960000D01*
X127004552Y-105960000D01*
X127190022Y-105923108D01*
X127364731Y-105850741D01*
X127521964Y-105745681D01*
X127655681Y-105611964D01*
X127760741Y-105454731D01*
X127833108Y-105280022D01*
X127870000Y-105094552D01*
X127870000Y-104905448D01*
X131730000Y-104905448D01*
X131730000Y-105094552D01*
X131766892Y-105280022D01*
X131839259Y-105454731D01*
X131944319Y-105611964D01*
X132078036Y-105745681D01*
X132235269Y-105850741D01*
X132409978Y-105923108D01*
X132595448Y-105960000D01*
X132784552Y-105960000D01*
X132970022Y-105923108D01*
X133144731Y-105850741D01*
X133262884Y-105771794D01*
X133407236Y-105912369D01*
X133595024Y-106034276D01*
X133818126Y-106114119D01*
X133993000Y-105987954D01*
X133993000Y-104597000D01*
X133973000Y-104597000D01*
X133973000Y-104343000D01*
X133993000Y-104343000D01*
X133993000Y-102952046D01*
X133818126Y-102825881D01*
X133595024Y-102905724D01*
X133407236Y-103027631D01*
X133246839Y-103183831D01*
X133119997Y-103368322D01*
X133031585Y-103574013D01*
X132985000Y-103793000D01*
X132985000Y-104083096D01*
X132970022Y-104076892D01*
X132784552Y-104040000D01*
X132595448Y-104040000D01*
X132409978Y-104076892D01*
X132235269Y-104149259D01*
X132078036Y-104254319D01*
X131944319Y-104388036D01*
X131839259Y-104545269D01*
X131766892Y-104719978D01*
X131730000Y-104905448D01*
X127870000Y-104905448D01*
X127833108Y-104719978D01*
X127760741Y-104545269D01*
X127655681Y-104388036D01*
X127521964Y-104254319D01*
X127364731Y-104149259D01*
X127190022Y-104076892D01*
X127004552Y-104040000D01*
X126815448Y-104040000D01*
X126629978Y-104076892D01*
X126615000Y-104083096D01*
X126615000Y-103793000D01*
X126568415Y-103574013D01*
X126480003Y-103368322D01*
X126353161Y-103183831D01*
X126192764Y-103027631D01*
X126004976Y-102905724D01*
X125781874Y-102825881D01*
X125607000Y-102952046D01*
X125353000Y-102952046D01*
X125178126Y-102825881D01*
X124955024Y-102905724D01*
X124767236Y-103027631D01*
X124606839Y-103183831D01*
X124479997Y-103368322D01*
X124391585Y-103574013D01*
X124345000Y-103793000D01*
X118573868Y-103793000D01*
X117692654Y-102911787D01*
X117634960Y-102772500D01*
X127380808Y-102772500D01*
X127414771Y-102786568D01*
X127595411Y-102822500D01*
X127779589Y-102822500D01*
X127960229Y-102786568D01*
X128130389Y-102716086D01*
X128283528Y-102613762D01*
X128413762Y-102483528D01*
X128516086Y-102330389D01*
X128586568Y-102160229D01*
X128622500Y-101979589D01*
X128622500Y-101795411D01*
X128586568Y-101614771D01*
X128516086Y-101444611D01*
X128413762Y-101291472D01*
X128283528Y-101161238D01*
X128130389Y-101058914D01*
X127960229Y-100988432D01*
X127779589Y-100952500D01*
X127595411Y-100952500D01*
X127414771Y-100988432D01*
X127380808Y-101002500D01*
X121113040Y-101002500D01*
X121135000Y-100892101D01*
X121135000Y-100707923D01*
X121099068Y-100527283D01*
X121028586Y-100357123D01*
X120926262Y-100203984D01*
X120796028Y-100073750D01*
X120642889Y-99971426D01*
X120472729Y-99900944D01*
X120292089Y-99865012D01*
X120107911Y-99865012D01*
X119927271Y-99900944D01*
X119893308Y-99915012D01*
X118766591Y-99915012D01*
X117606535Y-98754957D01*
X117595226Y-98698102D01*
X117517205Y-98509744D01*
X117403937Y-98340226D01*
X117259774Y-98196063D01*
X117090256Y-98082795D01*
X116901898Y-98004774D01*
X116701939Y-97965000D01*
X116498061Y-97965000D01*
X116298102Y-98004774D01*
X116109744Y-98082795D01*
X115940226Y-98196063D01*
X115796063Y-98340226D01*
X115682795Y-98509744D01*
X115604774Y-98698102D01*
X115565000Y-98898061D01*
X115565000Y-99101939D01*
X115604774Y-99301898D01*
X115682795Y-99490256D01*
X115796063Y-99659774D01*
X115940226Y-99803937D01*
X116109744Y-99917205D01*
X116298102Y-99995226D01*
X116354957Y-100006535D01*
X117350921Y-101002500D01*
X107054079Y-101002500D01*
X105985000Y-99933422D01*
X105985000Y-96831191D01*
X106055942Y-96889412D01*
X106209688Y-96971590D01*
X106376511Y-97022196D01*
X106506524Y-97035001D01*
X106506532Y-97035001D01*
X106550001Y-97039282D01*
X106593470Y-97035001D01*
X121406524Y-97035001D01*
X121449993Y-97039282D01*
X121493462Y-97035001D01*
X121493470Y-97035001D01*
X121623483Y-97022196D01*
X121790306Y-96971590D01*
X121944052Y-96889412D01*
X122078810Y-96778818D01*
X122106527Y-96745045D01*
X127008919Y-91842654D01*
X127042883Y-91828586D01*
X127196022Y-91726262D01*
X127326256Y-91596028D01*
X127428580Y-91442889D01*
X127499062Y-91272729D01*
X127534994Y-91092089D01*
X127534994Y-90907911D01*
X127499062Y-90727271D01*
X127481550Y-90684994D01*
X130093302Y-90684994D01*
X130127265Y-90699062D01*
X130189495Y-90711440D01*
X130151024Y-90749911D01*
X130122026Y-90773709D01*
X130027052Y-90889434D01*
X129956480Y-91021463D01*
X129913023Y-91164724D01*
X129904557Y-91250676D01*
X129833440Y-91357111D01*
X129762958Y-91527271D01*
X129727026Y-91707911D01*
X129727026Y-91892089D01*
X129762958Y-92072729D01*
X129833440Y-92242889D01*
X129935764Y-92396028D01*
X130065998Y-92526262D01*
X130219137Y-92628586D01*
X130389297Y-92699068D01*
X130569937Y-92735000D01*
X130754115Y-92735000D01*
X130934755Y-92699068D01*
X131104915Y-92628586D01*
X131219954Y-92551720D01*
X131715001Y-93046768D01*
X131715000Y-94893307D01*
X131700932Y-94927271D01*
X131665000Y-95107911D01*
X131665000Y-95292089D01*
X131700932Y-95472729D01*
X131771414Y-95642889D01*
X131873738Y-95796028D01*
X131894461Y-95816751D01*
X131763689Y-95777082D01*
X131641019Y-95765000D01*
X131641018Y-95765000D01*
X131600000Y-95760960D01*
X131558982Y-95765000D01*
X128427404Y-95765000D01*
X128272729Y-95700932D01*
X128092089Y-95665000D01*
X127907911Y-95665000D01*
X127727271Y-95700932D01*
X127557111Y-95771414D01*
X127403972Y-95873738D01*
X127273738Y-96003972D01*
X127171414Y-96157111D01*
X127100932Y-96327271D01*
X127065000Y-96507911D01*
X127065000Y-96692089D01*
X127100932Y-96872729D01*
X127171414Y-97042889D01*
X127273738Y-97196028D01*
X127403972Y-97326262D01*
X127557111Y-97428586D01*
X127727271Y-97499068D01*
X127907911Y-97535000D01*
X128092089Y-97535000D01*
X128272729Y-97499068D01*
X128427404Y-97435000D01*
X131254133Y-97435000D01*
X132507346Y-98688214D01*
X132571414Y-98842889D01*
X132673738Y-98996028D01*
X132803972Y-99126262D01*
X132957111Y-99228586D01*
X133127271Y-99299068D01*
X133307911Y-99335000D01*
X133492089Y-99335000D01*
X133672729Y-99299068D01*
X133842889Y-99228586D01*
X133996028Y-99126262D01*
X134126262Y-98996028D01*
X134228586Y-98842889D01*
X134299068Y-98672729D01*
X134335000Y-98492089D01*
X134335000Y-98307911D01*
X134299068Y-98127271D01*
X134228586Y-97957111D01*
X134126262Y-97803972D01*
X133996028Y-97673738D01*
X133842889Y-97571414D01*
X133688214Y-97507346D01*
X132246464Y-96065597D01*
X132327271Y-96099068D01*
X132507911Y-96135000D01*
X132692089Y-96135000D01*
X132872729Y-96099068D01*
X133042889Y-96028586D01*
X133196028Y-95926262D01*
X133326262Y-95796028D01*
X133428586Y-95642889D01*
X133499068Y-95472729D01*
X133535000Y-95292089D01*
X133535000Y-95107911D01*
X133499068Y-94927271D01*
X133485000Y-94893308D01*
X133485000Y-92723657D01*
X133489281Y-92680188D01*
X133485000Y-92636719D01*
X133485000Y-92636711D01*
X133472195Y-92506698D01*
X133461903Y-92472771D01*
X133421589Y-92339874D01*
X133339411Y-92186129D01*
X133256532Y-92085141D01*
X133256530Y-92085139D01*
X133228817Y-92051371D01*
X133195049Y-92023658D01*
X132362467Y-91191077D01*
X132349595Y-91160000D01*
X132854467Y-91160000D01*
X132957113Y-91228586D01*
X133127273Y-91299068D01*
X133307913Y-91335000D01*
X133492091Y-91335000D01*
X133672731Y-91299068D01*
X133842891Y-91228586D01*
X133996030Y-91126262D01*
X134126264Y-90996028D01*
X134228588Y-90842889D01*
X134299070Y-90672729D01*
X134335002Y-90492089D01*
X134335002Y-90307911D01*
X134299070Y-90127271D01*
X134228588Y-89957111D01*
X134219823Y-89943994D01*
X134221647Y-89942775D01*
X134372775Y-89791647D01*
X134491515Y-89613940D01*
X134573304Y-89416483D01*
X134615000Y-89206863D01*
X134615000Y-88993137D01*
X134573304Y-88783517D01*
X134491515Y-88586060D01*
X134372775Y-88408353D01*
X134221647Y-88257225D01*
X134043940Y-88138485D01*
X133846483Y-88056696D01*
X133636863Y-88015000D01*
X133423137Y-88015000D01*
X133213517Y-88056696D01*
X133016060Y-88138485D01*
X132838353Y-88257225D01*
X132687225Y-88408353D01*
X132568485Y-88586060D01*
X132486696Y-88783517D01*
X132445000Y-88993137D01*
X132445000Y-89206863D01*
X132486696Y-89416483D01*
X132568485Y-89613940D01*
X132585898Y-89640000D01*
X131613058Y-89640000D01*
X131575735Y-89636324D01*
X131538412Y-89640000D01*
X131538403Y-89640000D01*
X131426750Y-89650997D01*
X131329540Y-89680485D01*
X131299062Y-89527265D01*
X131228580Y-89357105D01*
X131126256Y-89203966D01*
X130996022Y-89073732D01*
X130842883Y-88971408D01*
X130672723Y-88900926D01*
X130492083Y-88864994D01*
X130307905Y-88864994D01*
X130127265Y-88900926D01*
X130093302Y-88914994D01*
X128792673Y-88914994D01*
X128872737Y-88899068D01*
X129042897Y-88828586D01*
X129196036Y-88726262D01*
X129326270Y-88596028D01*
X129428594Y-88442889D01*
X129499076Y-88272729D01*
X129535008Y-88092089D01*
X129535008Y-87907911D01*
X129499076Y-87727271D01*
X129428594Y-87557111D01*
X129416055Y-87538345D01*
X129453948Y-87576238D01*
X129607087Y-87678562D01*
X129777247Y-87749044D01*
X129957887Y-87784976D01*
X130142065Y-87784976D01*
X130322705Y-87749044D01*
X130492865Y-87678562D01*
X130646004Y-87576238D01*
X130776238Y-87446004D01*
X130878562Y-87292865D01*
X130949044Y-87122705D01*
X130984976Y-86942065D01*
X130984976Y-86757887D01*
X130969831Y-86681748D01*
X131163507Y-86488072D01*
X132516349Y-86488072D01*
X132568485Y-86613940D01*
X132687225Y-86791647D01*
X132838353Y-86942775D01*
X133016060Y-87061515D01*
X133213517Y-87143304D01*
X133423137Y-87185000D01*
X133636863Y-87185000D01*
X133846483Y-87143304D01*
X134043940Y-87061515D01*
X134221647Y-86942775D01*
X134372775Y-86791647D01*
X134491515Y-86613940D01*
X134573304Y-86416483D01*
X134615000Y-86206863D01*
X134615000Y-85993137D01*
X134573304Y-85783517D01*
X134491515Y-85586060D01*
X134372775Y-85408353D01*
X134221647Y-85257225D01*
X134043940Y-85138485D01*
X133846483Y-85056696D01*
X133636863Y-85015000D01*
X133423137Y-85015000D01*
X133288072Y-85041866D01*
X133288072Y-83660000D01*
X134740001Y-83660000D01*
X134740000Y-102967411D01*
G37*
%TD.AperFunction*%
D20*
X125315000Y-84414250D02*
X125473750Y-84573000D01*
X127073000Y-84573000D01*
X127073000Y-84553000D01*
X127327000Y-84553000D01*
X127327000Y-84573000D01*
X128926250Y-84573000D01*
X129085000Y-84414250D01*
X129087403Y-83660000D01*
X129511928Y-83660000D01*
X129511928Y-85636494D01*
X129454932Y-85693490D01*
X129421159Y-85721207D01*
X129310565Y-85855966D01*
X129228387Y-86009712D01*
X129202764Y-86094180D01*
X129187583Y-86144224D01*
X129177781Y-86176535D01*
X129164976Y-86306548D01*
X129164976Y-86306555D01*
X129160695Y-86350024D01*
X129164976Y-86393493D01*
X129164976Y-86543284D01*
X129150908Y-86577247D01*
X129114976Y-86757887D01*
X129114976Y-86942065D01*
X129150908Y-87122705D01*
X129221390Y-87292865D01*
X129233929Y-87311631D01*
X129196036Y-87273738D01*
X129042897Y-87171414D01*
X128872737Y-87100932D01*
X128692097Y-87065000D01*
X128507919Y-87065000D01*
X128327279Y-87100932D01*
X128172604Y-87165000D01*
X127041049Y-87165000D01*
X127000041Y-87160961D01*
X126959033Y-87165000D01*
X126959023Y-87165000D01*
X126836353Y-87177082D01*
X126678955Y-87224828D01*
X126533896Y-87302364D01*
X126406751Y-87406709D01*
X126380601Y-87438573D01*
X122511787Y-91307387D01*
X122357111Y-91371456D01*
X122203972Y-91473780D01*
X122073738Y-91604014D01*
X121971414Y-91757153D01*
X121900932Y-91927313D01*
X121865000Y-92107953D01*
X121865000Y-92292131D01*
X121900932Y-92472771D01*
X121971414Y-92642931D01*
X122073738Y-92796070D01*
X122203972Y-92926304D01*
X122357111Y-93028628D01*
X122527271Y-93099110D01*
X122707911Y-93135042D01*
X122892089Y-93135042D01*
X123072729Y-93099110D01*
X123242889Y-93028628D01*
X123396028Y-92926304D01*
X123526262Y-92796070D01*
X123628586Y-92642931D01*
X123692655Y-92488255D01*
X125565182Y-90615728D01*
X125576432Y-90642889D01*
X125628140Y-90720275D01*
X121083415Y-95265001D01*
X117726465Y-95265001D01*
X117699068Y-95127271D01*
X117685750Y-95095117D01*
X125488216Y-87292653D01*
X125642889Y-87228586D01*
X125796028Y-87126262D01*
X125926262Y-86996028D01*
X126028586Y-86842889D01*
X126099068Y-86672729D01*
X126116013Y-86587543D01*
X126914250Y-86585000D01*
X127073000Y-86426250D01*
X127073000Y-84827000D01*
X127327000Y-84827000D01*
X127327000Y-86426250D01*
X127485750Y-86585000D01*
X128450000Y-86588072D01*
X128574482Y-86575812D01*
X128694180Y-86539502D01*
X128804494Y-86480537D01*
X128901185Y-86401185D01*
X128980537Y-86304494D01*
X129039502Y-86194180D01*
X129075812Y-86074482D01*
X129088072Y-85950000D01*
X129085000Y-84985750D01*
X128926250Y-84827000D01*
X127327000Y-84827000D01*
X127073000Y-84827000D01*
X125473750Y-84827000D01*
X125315000Y-84985750D01*
X125313460Y-85469251D01*
X125292089Y-85465000D01*
X125107911Y-85465000D01*
X124927271Y-85500932D01*
X124757111Y-85571414D01*
X124603972Y-85673738D01*
X124549993Y-85727717D01*
X124546021Y-85723745D01*
X124392882Y-85621421D01*
X124222722Y-85550939D01*
X124042082Y-85515007D01*
X123857904Y-85515007D01*
X123677264Y-85550939D01*
X123507104Y-85621421D01*
X123353965Y-85723745D01*
X123300000Y-85777710D01*
X123296027Y-85773737D01*
X123142888Y-85671413D01*
X122972728Y-85600931D01*
X122792088Y-85564999D01*
X122607910Y-85564999D01*
X122427270Y-85600931D01*
X122257110Y-85671413D01*
X122103971Y-85773737D01*
X121973737Y-85903971D01*
X121871413Y-86057110D01*
X121807346Y-86211783D01*
X116654131Y-91365000D01*
X116427404Y-91365000D01*
X116272729Y-91300932D01*
X116092089Y-91265000D01*
X115907911Y-91265000D01*
X115727271Y-91300932D01*
X115557111Y-91371414D01*
X115403972Y-91473738D01*
X115273738Y-91603972D01*
X115171414Y-91757111D01*
X115100932Y-91927271D01*
X115065000Y-92107911D01*
X115065000Y-92292089D01*
X115100932Y-92472729D01*
X115171414Y-92642889D01*
X115273738Y-92796028D01*
X115403972Y-92926262D01*
X115557111Y-93028586D01*
X115727271Y-93099068D01*
X115865000Y-93126464D01*
X115865000Y-93292089D01*
X115900932Y-93472729D01*
X115971414Y-93642889D01*
X116073738Y-93796028D01*
X116203972Y-93926262D01*
X116357111Y-94028586D01*
X116380754Y-94038379D01*
X116238579Y-94180554D01*
X116206709Y-94206709D01*
X116129383Y-94300932D01*
X116102364Y-94333855D01*
X116024828Y-94478914D01*
X115977082Y-94636312D01*
X115960960Y-94800000D01*
X115965000Y-94841018D01*
X115965000Y-94972596D01*
X115900932Y-95127271D01*
X115873535Y-95265001D01*
X106916579Y-95265001D01*
X106842655Y-95191077D01*
X106828586Y-95157111D01*
X106726262Y-95003972D01*
X106596028Y-94873738D01*
X106442889Y-94771414D01*
X106272729Y-94700932D01*
X106092089Y-94665000D01*
X105985000Y-94665000D01*
X105985000Y-86274870D01*
X106019180Y-86264502D01*
X106129494Y-86205537D01*
X106226185Y-86126185D01*
X106303119Y-86032441D01*
X106436371Y-86129473D01*
X106669472Y-86237238D01*
X106770600Y-86267910D01*
X106973000Y-86144224D01*
X106973000Y-85127000D01*
X106953000Y-85127000D01*
X106953000Y-84873000D01*
X106973000Y-84873000D01*
X106973000Y-83855776D01*
X107227000Y-83855776D01*
X107227000Y-84873000D01*
X107247000Y-84873000D01*
X107247000Y-85127000D01*
X107227000Y-85127000D01*
X107227000Y-86144224D01*
X107429400Y-86267910D01*
X107530528Y-86237238D01*
X107763629Y-86129473D01*
X107971227Y-85978303D01*
X108093319Y-85845940D01*
X108264923Y-86017544D01*
X108479482Y-86160907D01*
X108717887Y-86259658D01*
X108970976Y-86310000D01*
X109229024Y-86310000D01*
X109482113Y-86259658D01*
X109720518Y-86160907D01*
X109935077Y-86017544D01*
X110100000Y-85852621D01*
X110264923Y-86017544D01*
X110479482Y-86160907D01*
X110717887Y-86259658D01*
X110970976Y-86310000D01*
X111229024Y-86310000D01*
X111482113Y-86259658D01*
X111720518Y-86160907D01*
X111935077Y-86017544D01*
X112100000Y-85852621D01*
X112264923Y-86017544D01*
X112479482Y-86160907D01*
X112717887Y-86259658D01*
X112970976Y-86310000D01*
X113229024Y-86310000D01*
X113482113Y-86259658D01*
X113720518Y-86160907D01*
X113935077Y-86017544D01*
X114100000Y-85852621D01*
X114264923Y-86017544D01*
X114479482Y-86160907D01*
X114717887Y-86259658D01*
X114970976Y-86310000D01*
X115229024Y-86310000D01*
X115482113Y-86259658D01*
X115720518Y-86160907D01*
X115935077Y-86017544D01*
X116117544Y-85835077D01*
X116260907Y-85620518D01*
X116359658Y-85382113D01*
X116410000Y-85129024D01*
X116410000Y-84870976D01*
X116359658Y-84617887D01*
X116260907Y-84379482D01*
X116117544Y-84164923D01*
X115935077Y-83982456D01*
X115720518Y-83839093D01*
X115482113Y-83740342D01*
X115229024Y-83690000D01*
X114970976Y-83690000D01*
X114717887Y-83740342D01*
X114479482Y-83839093D01*
X114264923Y-83982456D01*
X114100000Y-84147379D01*
X113935077Y-83982456D01*
X113720518Y-83839093D01*
X113482113Y-83740342D01*
X113229024Y-83690000D01*
X112970976Y-83690000D01*
X112717887Y-83740342D01*
X112479482Y-83839093D01*
X112264923Y-83982456D01*
X112100000Y-84147379D01*
X111935077Y-83982456D01*
X111720518Y-83839093D01*
X111482113Y-83740342D01*
X111229024Y-83690000D01*
X110970976Y-83690000D01*
X110717887Y-83740342D01*
X110479482Y-83839093D01*
X110264923Y-83982456D01*
X110100000Y-84147379D01*
X109935077Y-83982456D01*
X109720518Y-83839093D01*
X109482113Y-83740342D01*
X109229024Y-83690000D01*
X108970976Y-83690000D01*
X108717887Y-83740342D01*
X108479482Y-83839093D01*
X108264923Y-83982456D01*
X108093319Y-84154060D01*
X107971227Y-84021697D01*
X107763629Y-83870527D01*
X107530528Y-83762762D01*
X107429400Y-83732090D01*
X107227000Y-83855776D01*
X106973000Y-83855776D01*
X106770600Y-83732090D01*
X106669472Y-83762762D01*
X106436371Y-83870527D01*
X106303119Y-83967559D01*
X106226185Y-83873815D01*
X106129494Y-83794463D01*
X106019180Y-83735498D01*
X105899482Y-83699188D01*
X105775000Y-83686928D01*
X104425000Y-83686928D01*
X104300518Y-83699188D01*
X104180820Y-83735498D01*
X104070506Y-83794463D01*
X103973815Y-83873815D01*
X103894463Y-83970506D01*
X103835498Y-84080820D01*
X103799188Y-84200518D01*
X103786928Y-84325000D01*
X103786928Y-85283865D01*
X103692089Y-85265000D01*
X103507911Y-85265000D01*
X103327271Y-85300932D01*
X103157111Y-85371414D01*
X103003972Y-85473738D01*
X102873738Y-85603972D01*
X102771414Y-85757111D01*
X102700932Y-85927271D01*
X102665000Y-86107911D01*
X102665000Y-86292089D01*
X102700932Y-86472729D01*
X102771414Y-86642889D01*
X102873738Y-86796028D01*
X102877710Y-86800000D01*
X102873738Y-86803972D01*
X102771414Y-86957111D01*
X102700932Y-87127271D01*
X102665000Y-87307911D01*
X102665000Y-87492089D01*
X102700932Y-87672729D01*
X102771414Y-87842889D01*
X102814979Y-87908089D01*
X102814978Y-98665000D01*
X102807929Y-98665000D01*
X102627289Y-98700932D01*
X102472614Y-98765000D01*
X101641018Y-98765000D01*
X101600000Y-98760960D01*
X101558981Y-98765000D01*
X101436311Y-98777082D01*
X101278913Y-98824828D01*
X101133854Y-98902364D01*
X101006709Y-99006709D01*
X100980563Y-99038568D01*
X100660000Y-99359132D01*
X100660000Y-83660000D01*
X125312597Y-83660000D01*
X125315000Y-84414250D01*
%TA.AperFunction,Conductor*%
D21*
G36*
X125315000Y-84414250D02*
G01*
X125473750Y-84573000D01*
X127073000Y-84573000D01*
X127073000Y-84553000D01*
X127327000Y-84553000D01*
X127327000Y-84573000D01*
X128926250Y-84573000D01*
X129085000Y-84414250D01*
X129087403Y-83660000D01*
X129511928Y-83660000D01*
X129511928Y-85636494D01*
X129454932Y-85693490D01*
X129421159Y-85721207D01*
X129310565Y-85855966D01*
X129228387Y-86009712D01*
X129202764Y-86094180D01*
X129187583Y-86144224D01*
X129177781Y-86176535D01*
X129164976Y-86306548D01*
X129164976Y-86306555D01*
X129160695Y-86350024D01*
X129164976Y-86393493D01*
X129164976Y-86543284D01*
X129150908Y-86577247D01*
X129114976Y-86757887D01*
X129114976Y-86942065D01*
X129150908Y-87122705D01*
X129221390Y-87292865D01*
X129233929Y-87311631D01*
X129196036Y-87273738D01*
X129042897Y-87171414D01*
X128872737Y-87100932D01*
X128692097Y-87065000D01*
X128507919Y-87065000D01*
X128327279Y-87100932D01*
X128172604Y-87165000D01*
X127041049Y-87165000D01*
X127000041Y-87160961D01*
X126959033Y-87165000D01*
X126959023Y-87165000D01*
X126836353Y-87177082D01*
X126678955Y-87224828D01*
X126533896Y-87302364D01*
X126406751Y-87406709D01*
X126380601Y-87438573D01*
X122511787Y-91307387D01*
X122357111Y-91371456D01*
X122203972Y-91473780D01*
X122073738Y-91604014D01*
X121971414Y-91757153D01*
X121900932Y-91927313D01*
X121865000Y-92107953D01*
X121865000Y-92292131D01*
X121900932Y-92472771D01*
X121971414Y-92642931D01*
X122073738Y-92796070D01*
X122203972Y-92926304D01*
X122357111Y-93028628D01*
X122527271Y-93099110D01*
X122707911Y-93135042D01*
X122892089Y-93135042D01*
X123072729Y-93099110D01*
X123242889Y-93028628D01*
X123396028Y-92926304D01*
X123526262Y-92796070D01*
X123628586Y-92642931D01*
X123692655Y-92488255D01*
X125565182Y-90615728D01*
X125576432Y-90642889D01*
X125628140Y-90720275D01*
X121083415Y-95265001D01*
X117726465Y-95265001D01*
X117699068Y-95127271D01*
X117685750Y-95095117D01*
X125488216Y-87292653D01*
X125642889Y-87228586D01*
X125796028Y-87126262D01*
X125926262Y-86996028D01*
X126028586Y-86842889D01*
X126099068Y-86672729D01*
X126116013Y-86587543D01*
X126914250Y-86585000D01*
X127073000Y-86426250D01*
X127073000Y-84827000D01*
X127327000Y-84827000D01*
X127327000Y-86426250D01*
X127485750Y-86585000D01*
X128450000Y-86588072D01*
X128574482Y-86575812D01*
X128694180Y-86539502D01*
X128804494Y-86480537D01*
X128901185Y-86401185D01*
X128980537Y-86304494D01*
X129039502Y-86194180D01*
X129075812Y-86074482D01*
X129088072Y-85950000D01*
X129085000Y-84985750D01*
X128926250Y-84827000D01*
X127327000Y-84827000D01*
X127073000Y-84827000D01*
X125473750Y-84827000D01*
X125315000Y-84985750D01*
X125313460Y-85469251D01*
X125292089Y-85465000D01*
X125107911Y-85465000D01*
X124927271Y-85500932D01*
X124757111Y-85571414D01*
X124603972Y-85673738D01*
X124549993Y-85727717D01*
X124546021Y-85723745D01*
X124392882Y-85621421D01*
X124222722Y-85550939D01*
X124042082Y-85515007D01*
X123857904Y-85515007D01*
X123677264Y-85550939D01*
X123507104Y-85621421D01*
X123353965Y-85723745D01*
X123300000Y-85777710D01*
X123296027Y-85773737D01*
X123142888Y-85671413D01*
X122972728Y-85600931D01*
X122792088Y-85564999D01*
X122607910Y-85564999D01*
X122427270Y-85600931D01*
X122257110Y-85671413D01*
X122103971Y-85773737D01*
X121973737Y-85903971D01*
X121871413Y-86057110D01*
X121807346Y-86211783D01*
X116654131Y-91365000D01*
X116427404Y-91365000D01*
X116272729Y-91300932D01*
X116092089Y-91265000D01*
X115907911Y-91265000D01*
X115727271Y-91300932D01*
X115557111Y-91371414D01*
X115403972Y-91473738D01*
X115273738Y-91603972D01*
X115171414Y-91757111D01*
X115100932Y-91927271D01*
X115065000Y-92107911D01*
X115065000Y-92292089D01*
X115100932Y-92472729D01*
X115171414Y-92642889D01*
X115273738Y-92796028D01*
X115403972Y-92926262D01*
X115557111Y-93028586D01*
X115727271Y-93099068D01*
X115865000Y-93126464D01*
X115865000Y-93292089D01*
X115900932Y-93472729D01*
X115971414Y-93642889D01*
X116073738Y-93796028D01*
X116203972Y-93926262D01*
X116357111Y-94028586D01*
X116380754Y-94038379D01*
X116238579Y-94180554D01*
X116206709Y-94206709D01*
X116129383Y-94300932D01*
X116102364Y-94333855D01*
X116024828Y-94478914D01*
X115977082Y-94636312D01*
X115960960Y-94800000D01*
X115965000Y-94841018D01*
X115965000Y-94972596D01*
X115900932Y-95127271D01*
X115873535Y-95265001D01*
X106916579Y-95265001D01*
X106842655Y-95191077D01*
X106828586Y-95157111D01*
X106726262Y-95003972D01*
X106596028Y-94873738D01*
X106442889Y-94771414D01*
X106272729Y-94700932D01*
X106092089Y-94665000D01*
X105985000Y-94665000D01*
X105985000Y-86274870D01*
X106019180Y-86264502D01*
X106129494Y-86205537D01*
X106226185Y-86126185D01*
X106303119Y-86032441D01*
X106436371Y-86129473D01*
X106669472Y-86237238D01*
X106770600Y-86267910D01*
X106973000Y-86144224D01*
X106973000Y-85127000D01*
X106953000Y-85127000D01*
X106953000Y-84873000D01*
X106973000Y-84873000D01*
X106973000Y-83855776D01*
X107227000Y-83855776D01*
X107227000Y-84873000D01*
X107247000Y-84873000D01*
X107247000Y-85127000D01*
X107227000Y-85127000D01*
X107227000Y-86144224D01*
X107429400Y-86267910D01*
X107530528Y-86237238D01*
X107763629Y-86129473D01*
X107971227Y-85978303D01*
X108093319Y-85845940D01*
X108264923Y-86017544D01*
X108479482Y-86160907D01*
X108717887Y-86259658D01*
X108970976Y-86310000D01*
X109229024Y-86310000D01*
X109482113Y-86259658D01*
X109720518Y-86160907D01*
X109935077Y-86017544D01*
X110100000Y-85852621D01*
X110264923Y-86017544D01*
X110479482Y-86160907D01*
X110717887Y-86259658D01*
X110970976Y-86310000D01*
X111229024Y-86310000D01*
X111482113Y-86259658D01*
X111720518Y-86160907D01*
X111935077Y-86017544D01*
X112100000Y-85852621D01*
X112264923Y-86017544D01*
X112479482Y-86160907D01*
X112717887Y-86259658D01*
X112970976Y-86310000D01*
X113229024Y-86310000D01*
X113482113Y-86259658D01*
X113720518Y-86160907D01*
X113935077Y-86017544D01*
X114100000Y-85852621D01*
X114264923Y-86017544D01*
X114479482Y-86160907D01*
X114717887Y-86259658D01*
X114970976Y-86310000D01*
X115229024Y-86310000D01*
X115482113Y-86259658D01*
X115720518Y-86160907D01*
X115935077Y-86017544D01*
X116117544Y-85835077D01*
X116260907Y-85620518D01*
X116359658Y-85382113D01*
X116410000Y-85129024D01*
X116410000Y-84870976D01*
X116359658Y-84617887D01*
X116260907Y-84379482D01*
X116117544Y-84164923D01*
X115935077Y-83982456D01*
X115720518Y-83839093D01*
X115482113Y-83740342D01*
X115229024Y-83690000D01*
X114970976Y-83690000D01*
X114717887Y-83740342D01*
X114479482Y-83839093D01*
X114264923Y-83982456D01*
X114100000Y-84147379D01*
X113935077Y-83982456D01*
X113720518Y-83839093D01*
X113482113Y-83740342D01*
X113229024Y-83690000D01*
X112970976Y-83690000D01*
X112717887Y-83740342D01*
X112479482Y-83839093D01*
X112264923Y-83982456D01*
X112100000Y-84147379D01*
X111935077Y-83982456D01*
X111720518Y-83839093D01*
X111482113Y-83740342D01*
X111229024Y-83690000D01*
X110970976Y-83690000D01*
X110717887Y-83740342D01*
X110479482Y-83839093D01*
X110264923Y-83982456D01*
X110100000Y-84147379D01*
X109935077Y-83982456D01*
X109720518Y-83839093D01*
X109482113Y-83740342D01*
X109229024Y-83690000D01*
X108970976Y-83690000D01*
X108717887Y-83740342D01*
X108479482Y-83839093D01*
X108264923Y-83982456D01*
X108093319Y-84154060D01*
X107971227Y-84021697D01*
X107763629Y-83870527D01*
X107530528Y-83762762D01*
X107429400Y-83732090D01*
X107227000Y-83855776D01*
X106973000Y-83855776D01*
X106770600Y-83732090D01*
X106669472Y-83762762D01*
X106436371Y-83870527D01*
X106303119Y-83967559D01*
X106226185Y-83873815D01*
X106129494Y-83794463D01*
X106019180Y-83735498D01*
X105899482Y-83699188D01*
X105775000Y-83686928D01*
X104425000Y-83686928D01*
X104300518Y-83699188D01*
X104180820Y-83735498D01*
X104070506Y-83794463D01*
X103973815Y-83873815D01*
X103894463Y-83970506D01*
X103835498Y-84080820D01*
X103799188Y-84200518D01*
X103786928Y-84325000D01*
X103786928Y-85283865D01*
X103692089Y-85265000D01*
X103507911Y-85265000D01*
X103327271Y-85300932D01*
X103157111Y-85371414D01*
X103003972Y-85473738D01*
X102873738Y-85603972D01*
X102771414Y-85757111D01*
X102700932Y-85927271D01*
X102665000Y-86107911D01*
X102665000Y-86292089D01*
X102700932Y-86472729D01*
X102771414Y-86642889D01*
X102873738Y-86796028D01*
X102877710Y-86800000D01*
X102873738Y-86803972D01*
X102771414Y-86957111D01*
X102700932Y-87127271D01*
X102665000Y-87307911D01*
X102665000Y-87492089D01*
X102700932Y-87672729D01*
X102771414Y-87842889D01*
X102814979Y-87908089D01*
X102814978Y-98665000D01*
X102807929Y-98665000D01*
X102627289Y-98700932D01*
X102472614Y-98765000D01*
X101641018Y-98765000D01*
X101600000Y-98760960D01*
X101558981Y-98765000D01*
X101436311Y-98777082D01*
X101278913Y-98824828D01*
X101133854Y-98902364D01*
X101006709Y-99006709D01*
X100980563Y-99038568D01*
X100660000Y-99359132D01*
X100660000Y-83660000D01*
X125312597Y-83660000D01*
X125315000Y-84414250D01*
G37*
%TD.AperFunction*%
%TD*%
D22*
X133050013Y-102149997D03*
X131200000Y-99799992D03*
X103456114Y-107340328D03*
X103145004Y-101854996D03*
X114000000Y-105800000D03*
X107600000Y-107400000D03*
X126800000Y-86500000D03*
X120400000Y-86800000D03*
X107200000Y-88400000D03*
X128600008Y-88000000D03*
X122800000Y-92200042D03*
X106200000Y-107600000D03*
X103600000Y-86200000D03*
X127687500Y-101887500D03*
X132600000Y-95200000D03*
X131519812Y-91600000D03*
X130049976Y-86849976D03*
X128000000Y-96600000D03*
X133400000Y-98400000D03*
X130662026Y-91800000D03*
X133400002Y-90400000D03*
X116000000Y-92200000D03*
X122699999Y-86499999D03*
X123949993Y-86450007D03*
X116800000Y-93200000D03*
X125200000Y-86400000D03*
X116800000Y-95400000D03*
X104249990Y-103600000D03*
X103600000Y-87400000D03*
X120200000Y-100800012D03*
D23*
X116600000Y-99000000D03*
D22*
X106000000Y-95600000D03*
X126599994Y-91000000D03*
X130399994Y-89799994D03*
X126405018Y-90200000D03*
X102900018Y-99600000D03*
X101200000Y-103400000D03*
X116800000Y-103200000D03*
X119200000Y-105600000D03*
D23*
X115100000Y-85000000D03*
X113100000Y-85000000D03*
X111100000Y-85000000D03*
X109100000Y-85000000D03*
X107100000Y-85000000D03*
X105100000Y-85000000D03*
X133530000Y-86100000D03*
X133530000Y-89100000D03*
D24*
X134120000Y-104470000D03*
X125480000Y-104470000D03*
D23*
X126910000Y-105000000D03*
D25*
X125480000Y-108650000D03*
D23*
X132690000Y-105000000D03*
D25*
X134120000Y-108650000D03*
M02*
