%TF.GenerationSoftware,KiCad,Pcbnew,(5.1.8)-1*%
%TF.CreationDate,2021-10-10T15:44:20+08:00*%
%TF.ProjectId,wifiaudio,77696669-6175-4646-996f-2e6b69636164,rev?*%
%TF.SameCoordinates,Original*%
%TF.FileFunction,Legend,Top*%
%TF.FilePolarity,Positive*%
%FSLAX46Y46*%
G04 Gerber Fmt 4.6, Leading zero omitted, Abs format (unit mm)*
G04 Created by KiCad (PCBNEW (5.1.8)-1) date 2021-10-10 15:44:20*
%MOMM*%
%LPD*%
G01*
G04 APERTURE LIST*
%ADD10C,0.150000*%
%ADD11C,0.120000*%
G04 APERTURE END LIST*
D10*
X101080952Y-108528571D02*
X101223809Y-108576190D01*
X101271428Y-108623809D01*
X101319047Y-108719047D01*
X101319047Y-108861904D01*
X101271428Y-108957142D01*
X101223809Y-109004761D01*
X101128571Y-109052380D01*
X100747619Y-109052380D01*
X100747619Y-108052380D01*
X101080952Y-108052380D01*
X101176190Y-108100000D01*
X101223809Y-108147619D01*
X101271428Y-108242857D01*
X101271428Y-108338095D01*
X101223809Y-108433333D01*
X101176190Y-108480952D01*
X101080952Y-108528571D01*
X100747619Y-108528571D01*
X102223809Y-109052380D02*
X101747619Y-109052380D01*
X101747619Y-108052380D01*
X102985714Y-109052380D02*
X102985714Y-108528571D01*
X102938095Y-108433333D01*
X102842857Y-108385714D01*
X102652380Y-108385714D01*
X102557142Y-108433333D01*
X102985714Y-109004761D02*
X102890476Y-109052380D01*
X102652380Y-109052380D01*
X102557142Y-109004761D01*
X102509523Y-108909523D01*
X102509523Y-108814285D01*
X102557142Y-108719047D01*
X102652380Y-108671428D01*
X102890476Y-108671428D01*
X102985714Y-108623809D01*
X103461904Y-109052380D02*
X103461904Y-108052380D01*
X103461904Y-108433333D02*
X103557142Y-108385714D01*
X103747619Y-108385714D01*
X103842857Y-108433333D01*
X103890476Y-108480952D01*
X103938095Y-108576190D01*
X103938095Y-108861904D01*
X103890476Y-108957142D01*
X103842857Y-109004761D01*
X103747619Y-109052380D01*
X103557142Y-109052380D01*
X103461904Y-109004761D01*
X104319047Y-108766666D02*
X104795238Y-108766666D01*
X104223809Y-109052380D02*
X104557142Y-108052380D01*
X104890476Y-109052380D01*
X105652380Y-108385714D02*
X105652380Y-109052380D01*
X105223809Y-108385714D02*
X105223809Y-108909523D01*
X105271428Y-109004761D01*
X105366666Y-109052380D01*
X105509523Y-109052380D01*
X105604761Y-109004761D01*
X105652380Y-108957142D01*
X106557142Y-109052380D02*
X106557142Y-108052380D01*
X106557142Y-109004761D02*
X106461904Y-109052380D01*
X106271428Y-109052380D01*
X106176190Y-109004761D01*
X106128571Y-108957142D01*
X106080952Y-108861904D01*
X106080952Y-108576190D01*
X106128571Y-108480952D01*
X106176190Y-108433333D01*
X106271428Y-108385714D01*
X106461904Y-108385714D01*
X106557142Y-108433333D01*
X107033333Y-109052380D02*
X107033333Y-108385714D01*
X107033333Y-108052380D02*
X106985714Y-108100000D01*
X107033333Y-108147619D01*
X107080952Y-108100000D01*
X107033333Y-108052380D01*
X107033333Y-108147619D01*
X107652380Y-109052380D02*
X107557142Y-109004761D01*
X107509523Y-108957142D01*
X107461904Y-108861904D01*
X107461904Y-108576190D01*
X107509523Y-108480952D01*
X107557142Y-108433333D01*
X107652380Y-108385714D01*
X107795238Y-108385714D01*
X107890476Y-108433333D01*
X107938095Y-108480952D01*
X107985714Y-108576190D01*
X107985714Y-108861904D01*
X107938095Y-108957142D01*
X107890476Y-109004761D01*
X107795238Y-109052380D01*
X107652380Y-109052380D01*
X108271428Y-108052380D02*
X108842857Y-108052380D01*
X108557142Y-109052380D02*
X108557142Y-108052380D01*
X109080952Y-108052380D02*
X109747619Y-109052380D01*
X109747619Y-108052380D02*
X109080952Y-109052380D01*
D11*
%TO.C,R10*%
X102237258Y-105322500D02*
X101762742Y-105322500D01*
X102237258Y-104277500D02*
X101762742Y-104277500D01*
%TO.C,R9*%
X124877500Y-91237258D02*
X124877500Y-90762742D01*
X125922500Y-91237258D02*
X125922500Y-90762742D01*
%TO.C,R8*%
X124877500Y-94237258D02*
X124877500Y-93762742D01*
X125922500Y-94237258D02*
X125922500Y-93762742D01*
%TO.C,R7*%
X105437258Y-105322500D02*
X104962742Y-105322500D01*
X105437258Y-104277500D02*
X104962742Y-104277500D01*
%TO.C,R6*%
X134722500Y-98162742D02*
X134722500Y-98637258D01*
X133677500Y-98162742D02*
X133677500Y-98637258D01*
%TO.C,R5*%
X126477500Y-99837258D02*
X126477500Y-99362742D01*
X127522500Y-99837258D02*
X127522500Y-99362742D01*
%TO.C,R4*%
X127522500Y-96362742D02*
X127522500Y-96837258D01*
X126477500Y-96362742D02*
X126477500Y-96837258D01*
%TO.C,R3*%
X129637258Y-101522500D02*
X129162742Y-101522500D01*
X129637258Y-100477500D02*
X129162742Y-100477500D01*
%TO.C,R2*%
X116277500Y-105837258D02*
X116277500Y-105362742D01*
X117322500Y-105837258D02*
X117322500Y-105362742D01*
%TO.C,R1*%
X108677500Y-105837258D02*
X108677500Y-105362742D01*
X109722500Y-105837258D02*
X109722500Y-105362742D01*
%TO.C,D4*%
X102800000Y-105665000D02*
X100515000Y-105665000D01*
X100515000Y-105665000D02*
X100515000Y-107135000D01*
X100515000Y-107135000D02*
X102800000Y-107135000D01*
%TO.C,D3*%
X106000000Y-105665000D02*
X103715000Y-105665000D01*
X103715000Y-105665000D02*
X103715000Y-107135000D01*
X103715000Y-107135000D02*
X106000000Y-107135000D01*
%TO.C,D2*%
X134935000Y-96200000D02*
X134935000Y-93915000D01*
X134935000Y-93915000D02*
X133465000Y-93915000D01*
X133465000Y-93915000D02*
X133465000Y-96200000D01*
%TO.C,D1*%
X127735000Y-94412500D02*
X127735000Y-92127500D01*
X127735000Y-92127500D02*
X126265000Y-92127500D01*
X126265000Y-92127500D02*
X126265000Y-94412500D01*
%TO.C,C4*%
X122940580Y-94910000D02*
X122659420Y-94910000D01*
X122940580Y-93890000D02*
X122659420Y-93890000D01*
%TO.C,C3*%
X108110000Y-105459420D02*
X108110000Y-105740580D01*
X107090000Y-105459420D02*
X107090000Y-105740580D01*
%TO.C,C2*%
X129140580Y-91310000D02*
X128859420Y-91310000D01*
X129140580Y-90290000D02*
X128859420Y-90290000D01*
%TO.C,C1*%
X132259420Y-100490000D02*
X132540580Y-100490000D01*
X132259420Y-101510000D02*
X132540580Y-101510000D01*
%TO.C,SW2*%
X111350000Y-107200000D02*
X111350000Y-106900000D01*
X114650000Y-107200000D02*
X111350000Y-107200000D01*
X114650000Y-106900000D02*
X114650000Y-107200000D01*
X111350000Y-104400000D02*
X111350000Y-104700000D01*
X114650000Y-104400000D02*
X111350000Y-104400000D01*
X114650000Y-104700000D02*
X114650000Y-104400000D01*
%TO.C,J5*%
X104040000Y-86060000D02*
X104040000Y-85000000D01*
X105100000Y-86060000D02*
X104040000Y-86060000D01*
X106100000Y-86060000D02*
X106100000Y-83940000D01*
X106100000Y-83940000D02*
X116160000Y-83940000D01*
X106100000Y-86060000D02*
X116160000Y-86060000D01*
X116160000Y-86060000D02*
X116160000Y-83940000D01*
%TO.C,SW1*%
X133920000Y-84150000D02*
X133130000Y-84150000D01*
X133130000Y-91050000D02*
X133920000Y-91050000D01*
X132080000Y-89200000D02*
X132080000Y-87500000D01*
X134930000Y-90450000D02*
X134930000Y-84750000D01*
X136220000Y-87700000D02*
X134930000Y-87700000D01*
X136430000Y-88800000D02*
X136430000Y-87900000D01*
X134930000Y-89000000D02*
X136220000Y-89000000D01*
X136220000Y-87700000D02*
X136430000Y-87900000D01*
X136220000Y-89000000D02*
X136430000Y-88800000D01*
X132080000Y-86200000D02*
X132080000Y-86000000D01*
%TO.C,U2*%
X133160000Y-95800000D02*
X133160000Y-93850000D01*
X133160000Y-95800000D02*
X133160000Y-97750000D01*
X128040000Y-95800000D02*
X128040000Y-93850000D01*
X128040000Y-95800000D02*
X128040000Y-99250000D01*
%TO.C,J4*%
X128790000Y-83640000D02*
X121610000Y-83640000D01*
X120340000Y-87910000D02*
X122140000Y-87910000D01*
X120340000Y-86460000D02*
X120340000Y-87910000D01*
X128260000Y-87910000D02*
X128260000Y-88900000D01*
X130060000Y-87910000D02*
X128260000Y-87910000D01*
X130060000Y-86460000D02*
X130060000Y-87910000D01*
%TO.C,U1*%
X100880000Y-83155000D02*
X100500000Y-83155000D01*
X100880000Y-76735000D02*
X100880000Y-83155000D01*
X119120000Y-76735000D02*
X119120000Y-83155000D01*
X100880000Y-76735000D02*
X119120000Y-76735000D01*
X119120000Y-102480000D02*
X118120000Y-102480000D01*
X119120000Y-101700000D02*
X119120000Y-102480000D01*
X100880000Y-102480000D02*
X101880000Y-102480000D01*
X100880000Y-101700000D02*
X100880000Y-102480000D01*
%TO.C,U5*%
X121190000Y-90500000D02*
X121190000Y-92300000D01*
X124410000Y-92300000D02*
X124410000Y-89850000D01*
%TO.C,J1*%
X125100000Y-109600000D02*
X125100000Y-111500000D01*
X125100000Y-105700000D02*
X125100000Y-107700000D01*
X134500000Y-109600000D02*
X134500000Y-111500000D01*
X134500000Y-105700000D02*
X134500000Y-107700000D01*
X125100000Y-111500000D02*
X134500000Y-111500000D01*
%TD*%
M02*
