%TF.GenerationSoftware,KiCad,Pcbnew,(5.1.8)-1*%
%TF.CreationDate,2021-10-10T15:44:20+08:00*%
%TF.ProjectId,wifiaudio,77696669-6175-4646-996f-2e6b69636164,rev?*%
%TF.SameCoordinates,Original*%
%TF.FileFunction,Copper,L1,Top*%
%TF.FilePolarity,Positive*%
%FSLAX46Y46*%
G04 Gerber Fmt 4.6, Leading zero omitted, Abs format (unit mm)*
G04 Created by KiCad (PCBNEW (5.1.8)-1) date 2021-10-10 15:44:20*
%MOMM*%
%LPD*%
G01*
G04 APERTURE LIST*
%TA.AperFunction,SMDPad,CuDef*%
%ADD10R,2.500000X2.500000*%
%TD*%
%TA.AperFunction,SMDPad,CuDef*%
%ADD11R,0.900000X1.700000*%
%TD*%
%TA.AperFunction,ComponentPad*%
%ADD12O,1.350000X1.350000*%
%TD*%
%TA.AperFunction,ComponentPad*%
%ADD13R,1.350000X1.350000*%
%TD*%
%TA.AperFunction,SMDPad,CuDef*%
%ADD14R,0.800000X1.000000*%
%TD*%
%TA.AperFunction,SMDPad,CuDef*%
%ADD15R,1.500000X0.700000*%
%TD*%
%TA.AperFunction,SMDPad,CuDef*%
%ADD16R,3.000000X2.290000*%
%TD*%
%TA.AperFunction,SMDPad,CuDef*%
%ADD17R,2.000000X0.900000*%
%TD*%
%TA.AperFunction,SMDPad,CuDef*%
%ADD18R,0.900000X2.000000*%
%TD*%
%TA.AperFunction,SMDPad,CuDef*%
%ADD19R,5.000000X5.000000*%
%TD*%
%TA.AperFunction,SMDPad,CuDef*%
%ADD20R,0.650000X1.060000*%
%TD*%
%TA.AperFunction,SMDPad,CuDef*%
%ADD21R,0.600000X1.450000*%
%TD*%
%TA.AperFunction,SMDPad,CuDef*%
%ADD22R,0.300000X1.450000*%
%TD*%
%TA.AperFunction,ComponentPad*%
%ADD23O,1.000000X2.100000*%
%TD*%
%TA.AperFunction,ComponentPad*%
%ADD24O,1.000000X1.600000*%
%TD*%
%TA.AperFunction,ViaPad*%
%ADD25C,0.600000*%
%TD*%
%TA.AperFunction,ViaPad*%
%ADD26C,0.800000*%
%TD*%
%TA.AperFunction,Conductor*%
%ADD27C,0.400000*%
%TD*%
%TA.AperFunction,Conductor*%
%ADD28C,0.500000*%
%TD*%
%TA.AperFunction,Conductor*%
%ADD29C,0.250000*%
%TD*%
%TA.AperFunction,Conductor*%
%ADD30C,0.254000*%
%TD*%
%TA.AperFunction,Conductor*%
%ADD31C,0.350000*%
%TD*%
%ADD32C,0.300000*%
%ADD33C,0.350000*%
%ADD34O,0.600000X1.700000*%
%ADD35O,0.600000X1.200000*%
G04 APERTURE END LIST*
%TO.P,R10,2*%
%TO.N,Net-(R10-Pad2)*%
%TA.AperFunction,SMDPad,CuDef*%
G36*
G01*
X101575000Y-104525000D02*
X101575000Y-105075000D01*
G75*
G02*
X101375000Y-105275000I-200000J0D01*
G01*
X100975000Y-105275000D01*
G75*
G02*
X100775000Y-105075000I0J200000D01*
G01*
X100775000Y-104525000D01*
G75*
G02*
X100975000Y-104325000I200000J0D01*
G01*
X101375000Y-104325000D01*
G75*
G02*
X101575000Y-104525000I0J-200000D01*
G01*
G37*
%TD.AperFunction*%
%TO.P,R10,1*%
%TO.N,Net-(D4-Pad2)*%
%TA.AperFunction,SMDPad,CuDef*%
G36*
G01*
X103225000Y-104525000D02*
X103225000Y-105075000D01*
G75*
G02*
X103025000Y-105275000I-200000J0D01*
G01*
X102625000Y-105275000D01*
G75*
G02*
X102425000Y-105075000I0J200000D01*
G01*
X102425000Y-104525000D01*
G75*
G02*
X102625000Y-104325000I200000J0D01*
G01*
X103025000Y-104325000D01*
G75*
G02*
X103225000Y-104525000I0J-200000D01*
G01*
G37*
%TD.AperFunction*%
%TD*%
%TO.P,R9,2*%
%TO.N,Net-(R9-Pad2)*%
%TA.AperFunction,SMDPad,CuDef*%
G36*
G01*
X125675000Y-90575000D02*
X125125000Y-90575000D01*
G75*
G02*
X124925000Y-90375000I0J200000D01*
G01*
X124925000Y-89975000D01*
G75*
G02*
X125125000Y-89775000I200000J0D01*
G01*
X125675000Y-89775000D01*
G75*
G02*
X125875000Y-89975000I0J-200000D01*
G01*
X125875000Y-90375000D01*
G75*
G02*
X125675000Y-90575000I-200000J0D01*
G01*
G37*
%TD.AperFunction*%
%TO.P,R9,1*%
%TO.N,/ADC*%
%TA.AperFunction,SMDPad,CuDef*%
G36*
G01*
X125675000Y-92225000D02*
X125125000Y-92225000D01*
G75*
G02*
X124925000Y-92025000I0J200000D01*
G01*
X124925000Y-91625000D01*
G75*
G02*
X125125000Y-91425000I200000J0D01*
G01*
X125675000Y-91425000D01*
G75*
G02*
X125875000Y-91625000I0J-200000D01*
G01*
X125875000Y-92025000D01*
G75*
G02*
X125675000Y-92225000I-200000J0D01*
G01*
G37*
%TD.AperFunction*%
%TD*%
%TO.P,R8,2*%
%TO.N,/ADC*%
%TA.AperFunction,SMDPad,CuDef*%
G36*
G01*
X125675000Y-93575000D02*
X125125000Y-93575000D01*
G75*
G02*
X124925000Y-93375000I0J200000D01*
G01*
X124925000Y-92975000D01*
G75*
G02*
X125125000Y-92775000I200000J0D01*
G01*
X125675000Y-92775000D01*
G75*
G02*
X125875000Y-92975000I0J-200000D01*
G01*
X125875000Y-93375000D01*
G75*
G02*
X125675000Y-93575000I-200000J0D01*
G01*
G37*
%TD.AperFunction*%
%TO.P,R8,1*%
%TO.N,GND*%
%TA.AperFunction,SMDPad,CuDef*%
G36*
G01*
X125675000Y-95225000D02*
X125125000Y-95225000D01*
G75*
G02*
X124925000Y-95025000I0J200000D01*
G01*
X124925000Y-94625000D01*
G75*
G02*
X125125000Y-94425000I200000J0D01*
G01*
X125675000Y-94425000D01*
G75*
G02*
X125875000Y-94625000I0J-200000D01*
G01*
X125875000Y-95025000D01*
G75*
G02*
X125675000Y-95225000I-200000J0D01*
G01*
G37*
%TD.AperFunction*%
%TD*%
%TO.P,R7,2*%
%TO.N,Net-(R7-Pad2)*%
%TA.AperFunction,SMDPad,CuDef*%
G36*
G01*
X104775000Y-104525000D02*
X104775000Y-105075000D01*
G75*
G02*
X104575000Y-105275000I-200000J0D01*
G01*
X104175000Y-105275000D01*
G75*
G02*
X103975000Y-105075000I0J200000D01*
G01*
X103975000Y-104525000D01*
G75*
G02*
X104175000Y-104325000I200000J0D01*
G01*
X104575000Y-104325000D01*
G75*
G02*
X104775000Y-104525000I0J-200000D01*
G01*
G37*
%TD.AperFunction*%
%TO.P,R7,1*%
%TO.N,Net-(D3-Pad2)*%
%TA.AperFunction,SMDPad,CuDef*%
G36*
G01*
X106425000Y-104525000D02*
X106425000Y-105075000D01*
G75*
G02*
X106225000Y-105275000I-200000J0D01*
G01*
X105825000Y-105275000D01*
G75*
G02*
X105625000Y-105075000I0J200000D01*
G01*
X105625000Y-104525000D01*
G75*
G02*
X105825000Y-104325000I200000J0D01*
G01*
X106225000Y-104325000D01*
G75*
G02*
X106425000Y-104525000I0J-200000D01*
G01*
G37*
%TD.AperFunction*%
%TD*%
%TO.P,R6,2*%
%TO.N,Net-(C1-Pad1)*%
%TA.AperFunction,SMDPad,CuDef*%
G36*
G01*
X133925000Y-98825000D02*
X134475000Y-98825000D01*
G75*
G02*
X134675000Y-99025000I0J-200000D01*
G01*
X134675000Y-99425000D01*
G75*
G02*
X134475000Y-99625000I-200000J0D01*
G01*
X133925000Y-99625000D01*
G75*
G02*
X133725000Y-99425000I0J200000D01*
G01*
X133725000Y-99025000D01*
G75*
G02*
X133925000Y-98825000I200000J0D01*
G01*
G37*
%TD.AperFunction*%
%TO.P,R6,1*%
%TO.N,Net-(D2-Pad2)*%
%TA.AperFunction,SMDPad,CuDef*%
G36*
G01*
X133925000Y-97175000D02*
X134475000Y-97175000D01*
G75*
G02*
X134675000Y-97375000I0J-200000D01*
G01*
X134675000Y-97775000D01*
G75*
G02*
X134475000Y-97975000I-200000J0D01*
G01*
X133925000Y-97975000D01*
G75*
G02*
X133725000Y-97775000I0J200000D01*
G01*
X133725000Y-97375000D01*
G75*
G02*
X133925000Y-97175000I200000J0D01*
G01*
G37*
%TD.AperFunction*%
%TD*%
%TO.P,R5,2*%
%TO.N,GND*%
%TA.AperFunction,SMDPad,CuDef*%
G36*
G01*
X127275000Y-99175000D02*
X126725000Y-99175000D01*
G75*
G02*
X126525000Y-98975000I0J200000D01*
G01*
X126525000Y-98575000D01*
G75*
G02*
X126725000Y-98375000I200000J0D01*
G01*
X127275000Y-98375000D01*
G75*
G02*
X127475000Y-98575000I0J-200000D01*
G01*
X127475000Y-98975000D01*
G75*
G02*
X127275000Y-99175000I-200000J0D01*
G01*
G37*
%TD.AperFunction*%
%TO.P,R5,1*%
%TO.N,Net-(R5-Pad1)*%
%TA.AperFunction,SMDPad,CuDef*%
G36*
G01*
X127275000Y-100825000D02*
X126725000Y-100825000D01*
G75*
G02*
X126525000Y-100625000I0J200000D01*
G01*
X126525000Y-100225000D01*
G75*
G02*
X126725000Y-100025000I200000J0D01*
G01*
X127275000Y-100025000D01*
G75*
G02*
X127475000Y-100225000I0J-200000D01*
G01*
X127475000Y-100625000D01*
G75*
G02*
X127275000Y-100825000I-200000J0D01*
G01*
G37*
%TD.AperFunction*%
%TD*%
%TO.P,R4,2*%
%TO.N,Net-(C1-Pad1)*%
%TA.AperFunction,SMDPad,CuDef*%
G36*
G01*
X126725000Y-97025000D02*
X127275000Y-97025000D01*
G75*
G02*
X127475000Y-97225000I0J-200000D01*
G01*
X127475000Y-97625000D01*
G75*
G02*
X127275000Y-97825000I-200000J0D01*
G01*
X126725000Y-97825000D01*
G75*
G02*
X126525000Y-97625000I0J200000D01*
G01*
X126525000Y-97225000D01*
G75*
G02*
X126725000Y-97025000I200000J0D01*
G01*
G37*
%TD.AperFunction*%
%TO.P,R4,1*%
%TO.N,Net-(D1-Pad2)*%
%TA.AperFunction,SMDPad,CuDef*%
G36*
G01*
X126725000Y-95375000D02*
X127275000Y-95375000D01*
G75*
G02*
X127475000Y-95575000I0J-200000D01*
G01*
X127475000Y-95975000D01*
G75*
G02*
X127275000Y-96175000I-200000J0D01*
G01*
X126725000Y-96175000D01*
G75*
G02*
X126525000Y-95975000I0J200000D01*
G01*
X126525000Y-95575000D01*
G75*
G02*
X126725000Y-95375000I200000J0D01*
G01*
G37*
%TD.AperFunction*%
%TD*%
%TO.P,R3,2*%
%TO.N,+5V*%
%TA.AperFunction,SMDPad,CuDef*%
G36*
G01*
X128975000Y-100725000D02*
X128975000Y-101275000D01*
G75*
G02*
X128775000Y-101475000I-200000J0D01*
G01*
X128375000Y-101475000D01*
G75*
G02*
X128175000Y-101275000I0J200000D01*
G01*
X128175000Y-100725000D01*
G75*
G02*
X128375000Y-100525000I200000J0D01*
G01*
X128775000Y-100525000D01*
G75*
G02*
X128975000Y-100725000I0J-200000D01*
G01*
G37*
%TD.AperFunction*%
%TO.P,R3,1*%
%TO.N,Net-(C1-Pad1)*%
%TA.AperFunction,SMDPad,CuDef*%
G36*
G01*
X130625000Y-100725000D02*
X130625000Y-101275000D01*
G75*
G02*
X130425000Y-101475000I-200000J0D01*
G01*
X130025000Y-101475000D01*
G75*
G02*
X129825000Y-101275000I0J200000D01*
G01*
X129825000Y-100725000D01*
G75*
G02*
X130025000Y-100525000I200000J0D01*
G01*
X130425000Y-100525000D01*
G75*
G02*
X130625000Y-100725000I0J-200000D01*
G01*
G37*
%TD.AperFunction*%
%TD*%
%TO.P,R2,2*%
%TO.N,/IO0*%
%TA.AperFunction,SMDPad,CuDef*%
G36*
G01*
X117075000Y-105175000D02*
X116525000Y-105175000D01*
G75*
G02*
X116325000Y-104975000I0J200000D01*
G01*
X116325000Y-104575000D01*
G75*
G02*
X116525000Y-104375000I200000J0D01*
G01*
X117075000Y-104375000D01*
G75*
G02*
X117275000Y-104575000I0J-200000D01*
G01*
X117275000Y-104975000D01*
G75*
G02*
X117075000Y-105175000I-200000J0D01*
G01*
G37*
%TD.AperFunction*%
%TO.P,R2,1*%
%TO.N,+3V3*%
%TA.AperFunction,SMDPad,CuDef*%
G36*
G01*
X117075000Y-106825000D02*
X116525000Y-106825000D01*
G75*
G02*
X116325000Y-106625000I0J200000D01*
G01*
X116325000Y-106225000D01*
G75*
G02*
X116525000Y-106025000I200000J0D01*
G01*
X117075000Y-106025000D01*
G75*
G02*
X117275000Y-106225000I0J-200000D01*
G01*
X117275000Y-106625000D01*
G75*
G02*
X117075000Y-106825000I-200000J0D01*
G01*
G37*
%TD.AperFunction*%
%TD*%
%TO.P,R1,2*%
%TO.N,/EN*%
%TA.AperFunction,SMDPad,CuDef*%
G36*
G01*
X109475000Y-105175000D02*
X108925000Y-105175000D01*
G75*
G02*
X108725000Y-104975000I0J200000D01*
G01*
X108725000Y-104575000D01*
G75*
G02*
X108925000Y-104375000I200000J0D01*
G01*
X109475000Y-104375000D01*
G75*
G02*
X109675000Y-104575000I0J-200000D01*
G01*
X109675000Y-104975000D01*
G75*
G02*
X109475000Y-105175000I-200000J0D01*
G01*
G37*
%TD.AperFunction*%
%TO.P,R1,1*%
%TO.N,+3V3*%
%TA.AperFunction,SMDPad,CuDef*%
G36*
G01*
X109475000Y-106825000D02*
X108925000Y-106825000D01*
G75*
G02*
X108725000Y-106625000I0J200000D01*
G01*
X108725000Y-106225000D01*
G75*
G02*
X108925000Y-106025000I200000J0D01*
G01*
X109475000Y-106025000D01*
G75*
G02*
X109675000Y-106225000I0J-200000D01*
G01*
X109675000Y-106625000D01*
G75*
G02*
X109475000Y-106825000I-200000J0D01*
G01*
G37*
%TD.AperFunction*%
%TD*%
%TO.P,D4,2*%
%TO.N,Net-(D4-Pad2)*%
%TA.AperFunction,SMDPad,CuDef*%
G36*
G01*
X102350000Y-106656250D02*
X102350000Y-106143750D01*
G75*
G02*
X102568750Y-105925000I218750J0D01*
G01*
X103006250Y-105925000D01*
G75*
G02*
X103225000Y-106143750I0J-218750D01*
G01*
X103225000Y-106656250D01*
G75*
G02*
X103006250Y-106875000I-218750J0D01*
G01*
X102568750Y-106875000D01*
G75*
G02*
X102350000Y-106656250I0J218750D01*
G01*
G37*
%TD.AperFunction*%
%TO.P,D4,1*%
%TO.N,GND*%
%TA.AperFunction,SMDPad,CuDef*%
G36*
G01*
X100775000Y-106656250D02*
X100775000Y-106143750D01*
G75*
G02*
X100993750Y-105925000I218750J0D01*
G01*
X101431250Y-105925000D01*
G75*
G02*
X101650000Y-106143750I0J-218750D01*
G01*
X101650000Y-106656250D01*
G75*
G02*
X101431250Y-106875000I-218750J0D01*
G01*
X100993750Y-106875000D01*
G75*
G02*
X100775000Y-106656250I0J218750D01*
G01*
G37*
%TD.AperFunction*%
%TD*%
%TO.P,D3,2*%
%TO.N,Net-(D3-Pad2)*%
%TA.AperFunction,SMDPad,CuDef*%
G36*
G01*
X105550000Y-106656250D02*
X105550000Y-106143750D01*
G75*
G02*
X105768750Y-105925000I218750J0D01*
G01*
X106206250Y-105925000D01*
G75*
G02*
X106425000Y-106143750I0J-218750D01*
G01*
X106425000Y-106656250D01*
G75*
G02*
X106206250Y-106875000I-218750J0D01*
G01*
X105768750Y-106875000D01*
G75*
G02*
X105550000Y-106656250I0J218750D01*
G01*
G37*
%TD.AperFunction*%
%TO.P,D3,1*%
%TO.N,GND*%
%TA.AperFunction,SMDPad,CuDef*%
G36*
G01*
X103975000Y-106656250D02*
X103975000Y-106143750D01*
G75*
G02*
X104193750Y-105925000I218750J0D01*
G01*
X104631250Y-105925000D01*
G75*
G02*
X104850000Y-106143750I0J-218750D01*
G01*
X104850000Y-106656250D01*
G75*
G02*
X104631250Y-106875000I-218750J0D01*
G01*
X104193750Y-106875000D01*
G75*
G02*
X103975000Y-106656250I0J218750D01*
G01*
G37*
%TD.AperFunction*%
%TD*%
%TO.P,D2,2*%
%TO.N,Net-(D2-Pad2)*%
%TA.AperFunction,SMDPad,CuDef*%
G36*
G01*
X133943750Y-95750000D02*
X134456250Y-95750000D01*
G75*
G02*
X134675000Y-95968750I0J-218750D01*
G01*
X134675000Y-96406250D01*
G75*
G02*
X134456250Y-96625000I-218750J0D01*
G01*
X133943750Y-96625000D01*
G75*
G02*
X133725000Y-96406250I0J218750D01*
G01*
X133725000Y-95968750D01*
G75*
G02*
X133943750Y-95750000I218750J0D01*
G01*
G37*
%TD.AperFunction*%
%TO.P,D2,1*%
%TO.N,Net-(D2-Pad1)*%
%TA.AperFunction,SMDPad,CuDef*%
G36*
G01*
X133943750Y-94175000D02*
X134456250Y-94175000D01*
G75*
G02*
X134675000Y-94393750I0J-218750D01*
G01*
X134675000Y-94831250D01*
G75*
G02*
X134456250Y-95050000I-218750J0D01*
G01*
X133943750Y-95050000D01*
G75*
G02*
X133725000Y-94831250I0J218750D01*
G01*
X133725000Y-94393750D01*
G75*
G02*
X133943750Y-94175000I218750J0D01*
G01*
G37*
%TD.AperFunction*%
%TD*%
%TO.P,D1,2*%
%TO.N,Net-(D1-Pad2)*%
%TA.AperFunction,SMDPad,CuDef*%
G36*
G01*
X126743750Y-93962500D02*
X127256250Y-93962500D01*
G75*
G02*
X127475000Y-94181250I0J-218750D01*
G01*
X127475000Y-94618750D01*
G75*
G02*
X127256250Y-94837500I-218750J0D01*
G01*
X126743750Y-94837500D01*
G75*
G02*
X126525000Y-94618750I0J218750D01*
G01*
X126525000Y-94181250D01*
G75*
G02*
X126743750Y-93962500I218750J0D01*
G01*
G37*
%TD.AperFunction*%
%TO.P,D1,1*%
%TO.N,Net-(D1-Pad1)*%
%TA.AperFunction,SMDPad,CuDef*%
G36*
G01*
X126743750Y-92387500D02*
X127256250Y-92387500D01*
G75*
G02*
X127475000Y-92606250I0J-218750D01*
G01*
X127475000Y-93043750D01*
G75*
G02*
X127256250Y-93262500I-218750J0D01*
G01*
X126743750Y-93262500D01*
G75*
G02*
X126525000Y-93043750I0J218750D01*
G01*
X126525000Y-92606250D01*
G75*
G02*
X126743750Y-92387500I218750J0D01*
G01*
G37*
%TD.AperFunction*%
%TD*%
%TO.P,C4,2*%
%TO.N,GND*%
%TA.AperFunction,SMDPad,CuDef*%
G36*
G01*
X122475000Y-94150000D02*
X122475000Y-94650000D01*
G75*
G02*
X122250000Y-94875000I-225000J0D01*
G01*
X121800000Y-94875000D01*
G75*
G02*
X121575000Y-94650000I0J225000D01*
G01*
X121575000Y-94150000D01*
G75*
G02*
X121800000Y-93925000I225000J0D01*
G01*
X122250000Y-93925000D01*
G75*
G02*
X122475000Y-94150000I0J-225000D01*
G01*
G37*
%TD.AperFunction*%
%TO.P,C4,1*%
%TO.N,+3V3*%
%TA.AperFunction,SMDPad,CuDef*%
G36*
G01*
X124025000Y-94150000D02*
X124025000Y-94650000D01*
G75*
G02*
X123800000Y-94875000I-225000J0D01*
G01*
X123350000Y-94875000D01*
G75*
G02*
X123125000Y-94650000I0J225000D01*
G01*
X123125000Y-94150000D01*
G75*
G02*
X123350000Y-93925000I225000J0D01*
G01*
X123800000Y-93925000D01*
G75*
G02*
X124025000Y-94150000I0J-225000D01*
G01*
G37*
%TD.AperFunction*%
%TD*%
%TO.P,C3,2*%
%TO.N,GND*%
%TA.AperFunction,SMDPad,CuDef*%
G36*
G01*
X107350000Y-105925000D02*
X107850000Y-105925000D01*
G75*
G02*
X108075000Y-106150000I0J-225000D01*
G01*
X108075000Y-106600000D01*
G75*
G02*
X107850000Y-106825000I-225000J0D01*
G01*
X107350000Y-106825000D01*
G75*
G02*
X107125000Y-106600000I0J225000D01*
G01*
X107125000Y-106150000D01*
G75*
G02*
X107350000Y-105925000I225000J0D01*
G01*
G37*
%TD.AperFunction*%
%TO.P,C3,1*%
%TO.N,/EN*%
%TA.AperFunction,SMDPad,CuDef*%
G36*
G01*
X107350000Y-104375000D02*
X107850000Y-104375000D01*
G75*
G02*
X108075000Y-104600000I0J-225000D01*
G01*
X108075000Y-105050000D01*
G75*
G02*
X107850000Y-105275000I-225000J0D01*
G01*
X107350000Y-105275000D01*
G75*
G02*
X107125000Y-105050000I0J225000D01*
G01*
X107125000Y-104600000D01*
G75*
G02*
X107350000Y-104375000I225000J0D01*
G01*
G37*
%TD.AperFunction*%
%TD*%
%TO.P,C2,2*%
%TO.N,GND*%
%TA.AperFunction,SMDPad,CuDef*%
G36*
G01*
X128675000Y-90550000D02*
X128675000Y-91050000D01*
G75*
G02*
X128450000Y-91275000I-225000J0D01*
G01*
X128000000Y-91275000D01*
G75*
G02*
X127775000Y-91050000I0J225000D01*
G01*
X127775000Y-90550000D01*
G75*
G02*
X128000000Y-90325000I225000J0D01*
G01*
X128450000Y-90325000D01*
G75*
G02*
X128675000Y-90550000I0J-225000D01*
G01*
G37*
%TD.AperFunction*%
%TO.P,C2,1*%
%TO.N,BAT+*%
%TA.AperFunction,SMDPad,CuDef*%
G36*
G01*
X130225000Y-90550000D02*
X130225000Y-91050000D01*
G75*
G02*
X130000000Y-91275000I-225000J0D01*
G01*
X129550000Y-91275000D01*
G75*
G02*
X129325000Y-91050000I0J225000D01*
G01*
X129325000Y-90550000D01*
G75*
G02*
X129550000Y-90325000I225000J0D01*
G01*
X130000000Y-90325000D01*
G75*
G02*
X130225000Y-90550000I0J-225000D01*
G01*
G37*
%TD.AperFunction*%
%TD*%
%TO.P,C1,2*%
%TO.N,GND*%
%TA.AperFunction,SMDPad,CuDef*%
G36*
G01*
X132725000Y-101250000D02*
X132725000Y-100750000D01*
G75*
G02*
X132950000Y-100525000I225000J0D01*
G01*
X133400000Y-100525000D01*
G75*
G02*
X133625000Y-100750000I0J-225000D01*
G01*
X133625000Y-101250000D01*
G75*
G02*
X133400000Y-101475000I-225000J0D01*
G01*
X132950000Y-101475000D01*
G75*
G02*
X132725000Y-101250000I0J225000D01*
G01*
G37*
%TD.AperFunction*%
%TO.P,C1,1*%
%TO.N,Net-(C1-Pad1)*%
%TA.AperFunction,SMDPad,CuDef*%
G36*
G01*
X131175000Y-101250000D02*
X131175000Y-100750000D01*
G75*
G02*
X131400000Y-100525000I225000J0D01*
G01*
X131850000Y-100525000D01*
G75*
G02*
X132075000Y-100750000I0J-225000D01*
G01*
X132075000Y-101250000D01*
G75*
G02*
X131850000Y-101475000I-225000J0D01*
G01*
X131400000Y-101475000D01*
G75*
G02*
X131175000Y-101250000I0J225000D01*
G01*
G37*
%TD.AperFunction*%
%TD*%
D10*
%TO.P,J6,1*%
%TO.N,Net-(J6-Pad1)*%
X121400000Y-105800000D03*
%TD*%
D11*
%TO.P,SW2,2*%
%TO.N,/EN*%
X110800000Y-105800000D03*
%TO.P,SW2,1*%
%TO.N,GND*%
X115200000Y-105800000D03*
%TD*%
D12*
%TO.P,J5,6*%
%TO.N,/TXD*%
X115100000Y-85000000D03*
%TO.P,J5,5*%
%TO.N,/RXD*%
X113100000Y-85000000D03*
%TO.P,J5,4*%
%TO.N,/IO0*%
X111100000Y-85000000D03*
%TO.P,J5,3*%
%TO.N,/EN*%
X109100000Y-85000000D03*
%TO.P,J5,2*%
%TO.N,GND*%
X107100000Y-85000000D03*
D13*
%TO.P,J5,1*%
%TO.N,+5V*%
X105100000Y-85000000D03*
%TD*%
D14*
%TO.P,SW1,*%
%TO.N,*%
X132420000Y-91250000D03*
X132420000Y-83950000D03*
X134630000Y-83950000D03*
X134630000Y-91250000D03*
D15*
%TO.P,SW1,3*%
%TO.N,N/C*%
X131770000Y-85350000D03*
%TO.P,SW1,2*%
%TO.N,BAT+*%
X131770000Y-86850000D03*
%TO.P,SW1,1*%
%TO.N,Net-(R9-Pad2)*%
X131770000Y-89850000D03*
%TD*%
D16*
%TO.P,U2,9*%
%TO.N,N/C*%
X130600000Y-95800000D03*
%TO.P,U2,8*%
%TO.N,Net-(C1-Pad1)*%
%TA.AperFunction,SMDPad,CuDef*%
G36*
G01*
X128845000Y-94300000D02*
X128545000Y-94300000D01*
G75*
G02*
X128395000Y-94150000I0J150000D01*
G01*
X128395000Y-92500000D01*
G75*
G02*
X128545000Y-92350000I150000J0D01*
G01*
X128845000Y-92350000D01*
G75*
G02*
X128995000Y-92500000I0J-150000D01*
G01*
X128995000Y-94150000D01*
G75*
G02*
X128845000Y-94300000I-150000J0D01*
G01*
G37*
%TD.AperFunction*%
%TO.P,U2,7*%
%TO.N,Net-(D1-Pad1)*%
%TA.AperFunction,SMDPad,CuDef*%
G36*
G01*
X130115000Y-94300000D02*
X129815000Y-94300000D01*
G75*
G02*
X129665000Y-94150000I0J150000D01*
G01*
X129665000Y-92500000D01*
G75*
G02*
X129815000Y-92350000I150000J0D01*
G01*
X130115000Y-92350000D01*
G75*
G02*
X130265000Y-92500000I0J-150000D01*
G01*
X130265000Y-94150000D01*
G75*
G02*
X130115000Y-94300000I-150000J0D01*
G01*
G37*
%TD.AperFunction*%
%TO.P,U2,6*%
%TO.N,Net-(D2-Pad1)*%
%TA.AperFunction,SMDPad,CuDef*%
G36*
G01*
X131385000Y-94300000D02*
X131085000Y-94300000D01*
G75*
G02*
X130935000Y-94150000I0J150000D01*
G01*
X130935000Y-92500000D01*
G75*
G02*
X131085000Y-92350000I150000J0D01*
G01*
X131385000Y-92350000D01*
G75*
G02*
X131535000Y-92500000I0J-150000D01*
G01*
X131535000Y-94150000D01*
G75*
G02*
X131385000Y-94300000I-150000J0D01*
G01*
G37*
%TD.AperFunction*%
%TO.P,U2,5*%
%TO.N,BAT+*%
%TA.AperFunction,SMDPad,CuDef*%
G36*
G01*
X132655000Y-94300000D02*
X132355000Y-94300000D01*
G75*
G02*
X132205000Y-94150000I0J150000D01*
G01*
X132205000Y-92500000D01*
G75*
G02*
X132355000Y-92350000I150000J0D01*
G01*
X132655000Y-92350000D01*
G75*
G02*
X132805000Y-92500000I0J-150000D01*
G01*
X132805000Y-94150000D01*
G75*
G02*
X132655000Y-94300000I-150000J0D01*
G01*
G37*
%TD.AperFunction*%
%TO.P,U2,4*%
%TO.N,Net-(C1-Pad1)*%
%TA.AperFunction,SMDPad,CuDef*%
G36*
G01*
X132655000Y-99250000D02*
X132355000Y-99250000D01*
G75*
G02*
X132205000Y-99100000I0J150000D01*
G01*
X132205000Y-97450000D01*
G75*
G02*
X132355000Y-97300000I150000J0D01*
G01*
X132655000Y-97300000D01*
G75*
G02*
X132805000Y-97450000I0J-150000D01*
G01*
X132805000Y-99100000D01*
G75*
G02*
X132655000Y-99250000I-150000J0D01*
G01*
G37*
%TD.AperFunction*%
%TO.P,U2,3*%
%TO.N,GND*%
%TA.AperFunction,SMDPad,CuDef*%
G36*
G01*
X131385000Y-99250000D02*
X131085000Y-99250000D01*
G75*
G02*
X130935000Y-99100000I0J150000D01*
G01*
X130935000Y-97450000D01*
G75*
G02*
X131085000Y-97300000I150000J0D01*
G01*
X131385000Y-97300000D01*
G75*
G02*
X131535000Y-97450000I0J-150000D01*
G01*
X131535000Y-99100000D01*
G75*
G02*
X131385000Y-99250000I-150000J0D01*
G01*
G37*
%TD.AperFunction*%
%TO.P,U2,2*%
%TO.N,Net-(R5-Pad1)*%
%TA.AperFunction,SMDPad,CuDef*%
G36*
G01*
X130115000Y-99250000D02*
X129815000Y-99250000D01*
G75*
G02*
X129665000Y-99100000I0J150000D01*
G01*
X129665000Y-97450000D01*
G75*
G02*
X129815000Y-97300000I150000J0D01*
G01*
X130115000Y-97300000D01*
G75*
G02*
X130265000Y-97450000I0J-150000D01*
G01*
X130265000Y-99100000D01*
G75*
G02*
X130115000Y-99250000I-150000J0D01*
G01*
G37*
%TD.AperFunction*%
%TO.P,U2,1*%
%TO.N,GND*%
%TA.AperFunction,SMDPad,CuDef*%
G36*
G01*
X128845000Y-99250000D02*
X128545000Y-99250000D01*
G75*
G02*
X128395000Y-99100000I0J150000D01*
G01*
X128395000Y-97450000D01*
G75*
G02*
X128545000Y-97300000I150000J0D01*
G01*
X128845000Y-97300000D01*
G75*
G02*
X128995000Y-97450000I0J-150000D01*
G01*
X128995000Y-99100000D01*
G75*
G02*
X128845000Y-99250000I-150000J0D01*
G01*
G37*
%TD.AperFunction*%
%TD*%
%TO.P,J4,MP*%
%TO.N,N/C*%
%TA.AperFunction,SMDPad,CuDef*%
G36*
G01*
X121350000Y-83750000D02*
X121350000Y-85950000D01*
G75*
G02*
X121100000Y-86200000I-250000J0D01*
G01*
X120600000Y-86200000D01*
G75*
G02*
X120350000Y-85950000I0J250000D01*
G01*
X120350000Y-83750000D01*
G75*
G02*
X120600000Y-83500000I250000J0D01*
G01*
X121100000Y-83500000D01*
G75*
G02*
X121350000Y-83750000I0J-250000D01*
G01*
G37*
%TD.AperFunction*%
%TA.AperFunction,SMDPad,CuDef*%
G36*
G01*
X130050000Y-83750000D02*
X130050000Y-85950000D01*
G75*
G02*
X129800000Y-86200000I-250000J0D01*
G01*
X129300000Y-86200000D01*
G75*
G02*
X129050000Y-85950000I0J250000D01*
G01*
X129050000Y-83750000D01*
G75*
G02*
X129300000Y-83500000I250000J0D01*
G01*
X129800000Y-83500000D01*
G75*
G02*
X130050000Y-83750000I0J-250000D01*
G01*
G37*
%TD.AperFunction*%
%TO.P,J4,5*%
%TO.N,/DIN*%
%TA.AperFunction,SMDPad,CuDef*%
G36*
G01*
X123000000Y-87350000D02*
X123000000Y-88750000D01*
G75*
G02*
X122850000Y-88900000I-150000J0D01*
G01*
X122550000Y-88900000D01*
G75*
G02*
X122400000Y-88750000I0J150000D01*
G01*
X122400000Y-87350000D01*
G75*
G02*
X122550000Y-87200000I150000J0D01*
G01*
X122850000Y-87200000D01*
G75*
G02*
X123000000Y-87350000I0J-150000D01*
G01*
G37*
%TD.AperFunction*%
%TO.P,J4,4*%
%TO.N,/WS*%
%TA.AperFunction,SMDPad,CuDef*%
G36*
G01*
X124250000Y-87350000D02*
X124250000Y-88750000D01*
G75*
G02*
X124100000Y-88900000I-150000J0D01*
G01*
X123800000Y-88900000D01*
G75*
G02*
X123650000Y-88750000I0J150000D01*
G01*
X123650000Y-87350000D01*
G75*
G02*
X123800000Y-87200000I150000J0D01*
G01*
X124100000Y-87200000D01*
G75*
G02*
X124250000Y-87350000I0J-150000D01*
G01*
G37*
%TD.AperFunction*%
%TO.P,J4,3*%
%TO.N,/BCK*%
%TA.AperFunction,SMDPad,CuDef*%
G36*
G01*
X125500000Y-87350000D02*
X125500000Y-88750000D01*
G75*
G02*
X125350000Y-88900000I-150000J0D01*
G01*
X125050000Y-88900000D01*
G75*
G02*
X124900000Y-88750000I0J150000D01*
G01*
X124900000Y-87350000D01*
G75*
G02*
X125050000Y-87200000I150000J0D01*
G01*
X125350000Y-87200000D01*
G75*
G02*
X125500000Y-87350000I0J-150000D01*
G01*
G37*
%TD.AperFunction*%
%TO.P,J4,2*%
%TO.N,GND*%
%TA.AperFunction,SMDPad,CuDef*%
G36*
G01*
X126750000Y-87350000D02*
X126750000Y-88750000D01*
G75*
G02*
X126600000Y-88900000I-150000J0D01*
G01*
X126300000Y-88900000D01*
G75*
G02*
X126150000Y-88750000I0J150000D01*
G01*
X126150000Y-87350000D01*
G75*
G02*
X126300000Y-87200000I150000J0D01*
G01*
X126600000Y-87200000D01*
G75*
G02*
X126750000Y-87350000I0J-150000D01*
G01*
G37*
%TD.AperFunction*%
%TO.P,J4,1*%
%TO.N,+3V3*%
%TA.AperFunction,SMDPad,CuDef*%
G36*
G01*
X128000000Y-87350000D02*
X128000000Y-88750000D01*
G75*
G02*
X127850000Y-88900000I-150000J0D01*
G01*
X127550000Y-88900000D01*
G75*
G02*
X127400000Y-88750000I0J150000D01*
G01*
X127400000Y-87350000D01*
G75*
G02*
X127550000Y-87200000I150000J0D01*
G01*
X127850000Y-87200000D01*
G75*
G02*
X128000000Y-87350000I0J-150000D01*
G01*
G37*
%TD.AperFunction*%
%TD*%
D17*
%TO.P,U1,38*%
%TO.N,GND*%
X118500000Y-84345000D03*
%TO.P,U1,37*%
%TO.N,N/C*%
X118500000Y-85615000D03*
%TO.P,U1,36*%
X118500000Y-86885000D03*
%TO.P,U1,35*%
%TO.N,/TXD*%
X118500000Y-88155000D03*
%TO.P,U1,34*%
%TO.N,/RXD*%
X118500000Y-89425000D03*
%TO.P,U1,33*%
%TO.N,N/C*%
X118500000Y-90695000D03*
%TO.P,U1,32*%
X118500000Y-91965000D03*
%TO.P,U1,31*%
%TO.N,/WS*%
X118500000Y-93235000D03*
%TO.P,U1,30*%
%TO.N,/DIN*%
X118500000Y-94505000D03*
%TO.P,U1,29*%
%TO.N,/BCK*%
X118500000Y-95775000D03*
%TO.P,U1,28*%
%TO.N,N/C*%
X118500000Y-97045000D03*
%TO.P,U1,27*%
X118500000Y-98315000D03*
%TO.P,U1,26*%
%TO.N,Net-(J6-Pad1)*%
X118500000Y-99585000D03*
%TO.P,U1,25*%
%TO.N,/IO0*%
X118500000Y-100855000D03*
D18*
%TO.P,U1,24*%
%TO.N,N/C*%
X115715000Y-101855000D03*
%TO.P,U1,23*%
X114445000Y-101855000D03*
%TO.P,U1,22*%
X113175000Y-101855000D03*
%TO.P,U1,21*%
X111905000Y-101855000D03*
%TO.P,U1,20*%
X110635000Y-101855000D03*
%TO.P,U1,19*%
X109365000Y-101855000D03*
%TO.P,U1,18*%
X108095000Y-101855000D03*
%TO.P,U1,17*%
X106825000Y-101855000D03*
%TO.P,U1,16*%
X105555000Y-101855000D03*
%TO.P,U1,15*%
%TO.N,GND*%
X104285000Y-101855000D03*
D17*
%TO.P,U1,14*%
%TO.N,Net-(R7-Pad2)*%
X101500000Y-100855000D03*
%TO.P,U1,13*%
%TO.N,Net-(R10-Pad2)*%
X101500000Y-99585000D03*
%TO.P,U1,12*%
%TO.N,N/C*%
X101500000Y-98315000D03*
%TO.P,U1,11*%
X101500000Y-97045000D03*
%TO.P,U1,10*%
X101500000Y-95775000D03*
%TO.P,U1,9*%
X101500000Y-94505000D03*
%TO.P,U1,8*%
X101500000Y-93235000D03*
%TO.P,U1,7*%
X101500000Y-91965000D03*
%TO.P,U1,6*%
%TO.N,/ADC*%
X101500000Y-90695000D03*
%TO.P,U1,5*%
%TO.N,N/C*%
X101500000Y-89425000D03*
%TO.P,U1,4*%
X101500000Y-88155000D03*
%TO.P,U1,3*%
%TO.N,/EN*%
X101500000Y-86885000D03*
%TO.P,U1,2*%
%TO.N,+3V3*%
X101500000Y-85615000D03*
%TO.P,U1,1*%
%TO.N,GND*%
X101500000Y-84345000D03*
D19*
%TO.P,U1,39*%
X109000000Y-91845000D03*
%TD*%
D20*
%TO.P,U5,5*%
%TO.N,+3V3*%
X123750000Y-92500000D03*
%TO.P,U5,4*%
%TO.N,N/C*%
X121850000Y-92500000D03*
%TO.P,U5,3*%
%TO.N,Net-(R9-Pad2)*%
X121850000Y-90300000D03*
%TO.P,U5,2*%
%TO.N,GND*%
X122800000Y-90300000D03*
%TO.P,U5,1*%
%TO.N,Net-(R9-Pad2)*%
X123750000Y-90300000D03*
%TD*%
D21*
%TO.P,J1,B1*%
%TO.N,GND*%
X133050000Y-103555000D03*
%TO.P,J1,A9*%
%TO.N,+5V*%
X132250000Y-103555000D03*
%TO.P,J1,B9*%
X127350000Y-103555000D03*
%TO.P,J1,B12*%
%TO.N,GND*%
X126550000Y-103555000D03*
%TO.P,J1,A1*%
X126550000Y-103555000D03*
%TO.P,J1,A4*%
%TO.N,+5V*%
X127350000Y-103555000D03*
%TO.P,J1,B4*%
X132250000Y-103555000D03*
%TO.P,J1,A12*%
%TO.N,GND*%
X133050000Y-103555000D03*
D22*
%TO.P,J1,B8*%
%TO.N,N/C*%
X128050000Y-103555000D03*
%TO.P,J1,A5*%
X128550000Y-103555000D03*
%TO.P,J1,B7*%
X129050000Y-103555000D03*
%TO.P,J1,A7*%
X130050000Y-103555000D03*
%TO.P,J1,B6*%
X130550000Y-103555000D03*
%TO.P,J1,A8*%
X131050000Y-103555000D03*
%TO.P,J1,B5*%
X131550000Y-103555000D03*
%TO.P,J1,A6*%
X129550000Y-103555000D03*
D23*
%TO.P,J1,S1*%
%TO.N,GND*%
X134120000Y-104470000D03*
X125480000Y-104470000D03*
D24*
X125480000Y-108650000D03*
X134120000Y-108650000D03*
%TD*%
D25*
%TO.N,GND*%
X133050013Y-102149997D03*
X131200000Y-99799992D03*
X103456114Y-107340328D03*
X103145004Y-101854996D03*
X114000000Y-105800000D03*
X107600000Y-107400000D03*
X126800000Y-86500000D03*
X120400000Y-86800000D03*
X107200000Y-88400000D03*
%TO.N,+3V3*%
X128600008Y-88000000D03*
X122800000Y-92200042D03*
X106200000Y-107600000D03*
X103600000Y-86200000D03*
%TO.N,+5V*%
X127687500Y-101887500D03*
%TO.N,BAT+*%
X132600000Y-95200000D03*
X131519812Y-91600000D03*
X130049976Y-86849976D03*
%TO.N,Net-(C1-Pad1)*%
X128000000Y-96600000D03*
X133400000Y-98400000D03*
%TO.N,Net-(D2-Pad1)*%
X130662026Y-91800000D03*
X133400002Y-90400000D03*
%TO.N,/DIN*%
X116000000Y-92200000D03*
X122699999Y-86499999D03*
%TO.N,/WS*%
X123949993Y-86450007D03*
X116800000Y-93200000D03*
%TO.N,/BCK*%
X125200000Y-86400000D03*
X116800000Y-95400000D03*
%TO.N,/EN*%
X104249990Y-103600000D03*
X103600000Y-87400000D03*
%TO.N,/IO0*%
X120200000Y-100800012D03*
D26*
X116600000Y-99000000D03*
D25*
%TO.N,/ADC*%
X106000000Y-95600000D03*
X126599994Y-91000000D03*
%TO.N,Net-(R9-Pad2)*%
X130399994Y-89799994D03*
X126405018Y-90200000D03*
%TO.N,Net-(R10-Pad2)*%
X102900018Y-99600000D03*
X101200000Y-103400000D03*
%TO.N,Net-(J6-Pad1)*%
X116800000Y-103200000D03*
X119200000Y-105600000D03*
%TD*%
D27*
%TO.N,GND*%
X104285000Y-101855000D02*
X104100000Y-102040000D01*
X127025000Y-98800000D02*
X127000000Y-98775000D01*
X128170000Y-98800000D02*
X127025000Y-98800000D01*
X128695000Y-98275000D02*
X128170000Y-98800000D01*
D28*
X133050000Y-102150010D02*
X133050013Y-102149997D01*
X133050000Y-103555000D02*
X133050000Y-102150010D01*
X131235000Y-98275000D02*
X131235000Y-99764992D01*
X131235000Y-99764992D02*
X131200000Y-99799992D01*
X133175000Y-102025010D02*
X133050013Y-102149997D01*
X133175000Y-101000000D02*
X133175000Y-102025010D01*
D27*
X128000000Y-90800000D02*
X128225000Y-90800000D01*
X126400000Y-89200000D02*
X128000000Y-90800000D01*
X126400000Y-88100000D02*
X126400000Y-89200000D01*
X126450000Y-88050000D02*
X126400000Y-88100000D01*
X126049990Y-89300010D02*
X126450000Y-88900000D01*
X123174988Y-89300010D02*
X126049990Y-89300010D01*
X122800000Y-89674998D02*
X123174988Y-89300010D01*
X126450000Y-88900000D02*
X126450000Y-88050000D01*
X122800000Y-90300000D02*
X122800000Y-89674998D01*
D28*
X126395000Y-103555000D02*
X125480000Y-104470000D01*
X126550000Y-103555000D02*
X126395000Y-103555000D01*
X133205000Y-103555000D02*
X134120000Y-104470000D01*
X133050000Y-103555000D02*
X133205000Y-103555000D01*
D27*
X103472172Y-107340328D02*
X104412500Y-106400000D01*
X103456114Y-107340328D02*
X103472172Y-107340328D01*
X103145008Y-101855000D02*
X103145004Y-101854996D01*
X104285000Y-101855000D02*
X103145008Y-101855000D01*
X115200000Y-105800000D02*
X114000000Y-105800000D01*
X107600000Y-106375000D02*
X107600000Y-107400000D01*
X126450000Y-86850000D02*
X126800000Y-86500000D01*
X126450000Y-88050000D02*
X126450000Y-86850000D01*
X120400000Y-87400000D02*
X120400000Y-86800000D01*
X122800000Y-89800000D02*
X120400000Y-87400000D01*
X122800000Y-90300000D02*
X122800000Y-89800000D01*
D28*
%TO.N,+3V3*%
X123750000Y-94225000D02*
X123575000Y-94400000D01*
X123750000Y-92500000D02*
X123750000Y-94225000D01*
D27*
X127700000Y-88050000D02*
X128550008Y-88050000D01*
X128550008Y-88050000D02*
X128600008Y-88000000D01*
X123750000Y-92500000D02*
X123099958Y-92500000D01*
X123099958Y-92500000D02*
X122800000Y-92200042D01*
D28*
X115825000Y-107400000D02*
X116800000Y-106425000D01*
X110200000Y-107400000D02*
X115825000Y-107400000D01*
X109225000Y-106425000D02*
X110200000Y-107400000D01*
X109200000Y-106425000D02*
X109225000Y-106425000D01*
X103600000Y-86200000D02*
X103015000Y-85615000D01*
X103015000Y-85615000D02*
X101500000Y-85615000D01*
X106750001Y-108150001D02*
X106200000Y-107600000D01*
X107960001Y-108150001D02*
X106750001Y-108150001D01*
X109200000Y-106910002D02*
X107960001Y-108150001D01*
X109200000Y-106425000D02*
X109200000Y-106910002D01*
X121200000Y-102025000D02*
X116800000Y-106425000D01*
X121200000Y-96775000D02*
X121200000Y-102025000D01*
X123575000Y-94400000D02*
X121200000Y-96775000D01*
%TO.N,+5V*%
X128575000Y-101000000D02*
X127350000Y-102225000D01*
X131680002Y-102000000D02*
X132250000Y-102569998D01*
X132250000Y-102569998D02*
X132250000Y-103555000D01*
X129600000Y-102000000D02*
X131680002Y-102000000D01*
X128600000Y-101000000D02*
X129600000Y-102000000D01*
X128575000Y-101000000D02*
X128600000Y-101000000D01*
X127350000Y-102225000D02*
X127687500Y-101887500D01*
X127350000Y-103555000D02*
X127350000Y-102225000D01*
%TO.N,BAT+*%
X132505000Y-93325000D02*
X132505000Y-92491812D01*
X132600000Y-93420000D02*
X132600000Y-95200000D01*
X132505000Y-93325000D02*
X132600000Y-93420000D01*
X131519812Y-91175736D02*
X131519812Y-91600000D01*
X129775000Y-90800000D02*
X131144076Y-90800000D01*
X131144076Y-90800000D02*
X131519812Y-91175736D01*
X131770000Y-86850000D02*
X130050000Y-86850000D01*
X130050000Y-86850000D02*
X130049976Y-86849976D01*
X129775000Y-90800000D02*
X129649992Y-90674992D01*
X129649992Y-90674992D02*
X129649992Y-87249960D01*
X129649992Y-87249960D02*
X130049976Y-86849976D01*
D27*
%TO.N,Net-(C1-Pad1)*%
X130225000Y-101000000D02*
X131625000Y-101000000D01*
X132505000Y-98275000D02*
X132505000Y-99095000D01*
X131625000Y-101000000D02*
X132305000Y-100320000D01*
X132505000Y-98905000D02*
X132505000Y-98275000D01*
X132825000Y-99225000D02*
X132505000Y-98905000D01*
X134200000Y-99225000D02*
X132825000Y-99225000D01*
X127175000Y-97425000D02*
X128000000Y-96600000D01*
X127000000Y-97425000D02*
X127175000Y-97425000D01*
X128695000Y-95905000D02*
X128000000Y-96600000D01*
X128695000Y-93325000D02*
X128695000Y-95905000D01*
X132505000Y-100120000D02*
X132505000Y-98275000D01*
X132305000Y-100320000D02*
X132505000Y-100120000D01*
X134200000Y-99225000D02*
X133400000Y-98425000D01*
X133400000Y-98425000D02*
X133400000Y-98400000D01*
%TO.N,Net-(D1-Pad2)*%
X127000000Y-94400000D02*
X127000000Y-95775000D01*
%TO.N,Net-(D1-Pad1)*%
X127000000Y-92200000D02*
X127000000Y-92825000D01*
X127400000Y-91800000D02*
X127000000Y-92200000D01*
X129415000Y-91800000D02*
X127400000Y-91800000D01*
X129965000Y-92350000D02*
X129415000Y-91800000D01*
X129965000Y-93325000D02*
X129965000Y-92350000D01*
%TO.N,Net-(D2-Pad2)*%
X134200000Y-96187500D02*
X134200000Y-97575000D01*
D29*
%TO.N,Net-(D2-Pad1)*%
X130662026Y-92752026D02*
X130662026Y-91800000D01*
X131235000Y-93325000D02*
X130662026Y-92752026D01*
X133800000Y-90799998D02*
X133400002Y-90400000D01*
X133800000Y-94212500D02*
X133800000Y-90799998D01*
X134200000Y-94612500D02*
X133800000Y-94212500D01*
D27*
%TO.N,Net-(R5-Pad1)*%
X127375000Y-100425000D02*
X127000000Y-100425000D01*
X129600000Y-99800000D02*
X128000000Y-99800000D01*
X128000000Y-99800000D02*
X127375000Y-100425000D01*
X129965000Y-99435000D02*
X129600000Y-99800000D01*
X129965000Y-98275000D02*
X129965000Y-99435000D01*
%TO.N,/DIN*%
X122700000Y-88050000D02*
X122699999Y-86924263D01*
X122699999Y-86924263D02*
X122699999Y-86499999D01*
X118395000Y-94400000D02*
X118500000Y-94505000D01*
X116191000Y-94400000D02*
X118395000Y-94400000D01*
X115600000Y-93809000D02*
X116191000Y-94400000D01*
X115600000Y-92600000D02*
X115600000Y-93809000D01*
X116000000Y-92200000D02*
X115600000Y-92600000D01*
%TO.N,/WS*%
X123950000Y-88050000D02*
X123950000Y-86450014D01*
X123950000Y-86450014D02*
X123949993Y-86450007D01*
X116835000Y-93235000D02*
X116800000Y-93200000D01*
X118500000Y-93235000D02*
X116835000Y-93235000D01*
%TO.N,/BCK*%
X125200000Y-88050000D02*
X125200000Y-86400000D01*
X118500000Y-95775000D02*
X117175000Y-95775000D01*
X117175000Y-95775000D02*
X116800000Y-95400000D01*
%TO.N,Net-(D3-Pad2)*%
X106025000Y-106362500D02*
X105987500Y-106400000D01*
X106025000Y-104800000D02*
X106025000Y-106362500D01*
%TO.N,Net-(R7-Pad2)*%
X101500000Y-101925000D02*
X104375000Y-104800000D01*
X101500000Y-100855000D02*
X101500000Y-101925000D01*
%TO.N,/EN*%
X109150000Y-104825000D02*
X109200000Y-104775000D01*
X107600000Y-104825000D02*
X109150000Y-104825000D01*
X110175000Y-104775000D02*
X109200000Y-104775000D01*
X110800000Y-105400000D02*
X110175000Y-104775000D01*
X110800000Y-105800000D02*
X110800000Y-105400000D01*
D28*
X107600000Y-104825000D02*
X106375000Y-103600000D01*
X106375000Y-103600000D02*
X104249990Y-103600000D01*
X101500000Y-86885000D02*
X103085000Y-86885000D01*
X103085000Y-86885000D02*
X103600000Y-87400000D01*
D27*
X107800000Y-87400000D02*
X103600000Y-87400000D01*
X109100000Y-86100000D02*
X107800000Y-87400000D01*
X109100000Y-85000000D02*
X109100000Y-86100000D01*
%TO.N,/IO0*%
X118500000Y-102400000D02*
X118500000Y-100855000D01*
X118500000Y-103075000D02*
X116800000Y-104775000D01*
X118500000Y-100855000D02*
X118500000Y-103075000D01*
D28*
X120145012Y-100855000D02*
X120200000Y-100800012D01*
X118500000Y-100855000D02*
X120145012Y-100855000D01*
X111100000Y-85000000D02*
X114800000Y-88700000D01*
X114800000Y-88700000D02*
X114800000Y-97200000D01*
X114800000Y-97200000D02*
X116600000Y-99000000D01*
D27*
%TO.N,/ADC*%
X125400000Y-93175000D02*
X125400000Y-91825000D01*
D28*
X106000000Y-93695000D02*
X106000000Y-95600000D01*
X103000000Y-90695000D02*
X106000000Y-93695000D01*
X101500000Y-90695000D02*
X103000000Y-90695000D01*
X125400000Y-91825000D02*
X125774994Y-91825000D01*
X125774994Y-91825000D02*
X126599994Y-91000000D01*
%TO.N,Net-(R9-Pad2)*%
X131770000Y-89850000D02*
X130450000Y-89850000D01*
X130450000Y-89850000D02*
X130399994Y-89799994D01*
X123875000Y-90175000D02*
X123750000Y-90300000D01*
X125400000Y-90175000D02*
X123875000Y-90175000D01*
X123750000Y-91015002D02*
X123750000Y-90300000D01*
X123365002Y-91400000D02*
X123750000Y-91015002D01*
X122234998Y-91400000D02*
X123365002Y-91400000D01*
X121850000Y-91015002D02*
X122234998Y-91400000D01*
X121850000Y-90300000D02*
X121850000Y-91015002D01*
X125400000Y-90175000D02*
X126380018Y-90175000D01*
X126380018Y-90175000D02*
X126405018Y-90200000D01*
D27*
%TO.N,Net-(D4-Pad2)*%
X102825000Y-106362500D02*
X102787500Y-106400000D01*
X102825000Y-104800000D02*
X102825000Y-106362500D01*
%TO.N,Net-(R10-Pad2)*%
X101500000Y-99585000D02*
X101515000Y-99600000D01*
X101515000Y-99600000D02*
X102900018Y-99600000D01*
X101200000Y-104775000D02*
X101175000Y-104800000D01*
X101200000Y-103400000D02*
X101200000Y-104775000D01*
%TO.N,/RXD*%
X113100000Y-86080746D02*
X113100000Y-85000000D01*
X118500000Y-89425000D02*
X116444254Y-89425000D01*
X116444254Y-89425000D02*
X113100000Y-86080746D01*
%TO.N,/TXD*%
X115100000Y-86155000D02*
X115100000Y-85000000D01*
X117100000Y-88155000D02*
X115100000Y-86155000D01*
X118500000Y-88155000D02*
X117100000Y-88155000D01*
%TO.N,Net-(J6-Pad1)*%
X121200000Y-105600000D02*
X121400000Y-105800000D01*
X119200000Y-105600000D02*
X121200000Y-105600000D01*
X116800000Y-100200000D02*
X116800000Y-103200000D01*
X117415000Y-99585000D02*
X116800000Y-100200000D01*
X118500000Y-99585000D02*
X117415000Y-99585000D01*
%TD*%
D30*
%TO.N,GND*%
X125527000Y-94698000D02*
X125547000Y-94698000D01*
X125547000Y-94952000D01*
X125527000Y-94952000D01*
X125527000Y-95701250D01*
X125685750Y-95860000D01*
X125875000Y-95863072D01*
X125886928Y-95861897D01*
X125886928Y-95975000D01*
X125903031Y-96138500D01*
X125950722Y-96295716D01*
X126028169Y-96440608D01*
X126132394Y-96567606D01*
X126171866Y-96600000D01*
X126132394Y-96632394D01*
X126028169Y-96759392D01*
X125950722Y-96904284D01*
X125903031Y-97061500D01*
X125886928Y-97225000D01*
X125886928Y-97625000D01*
X125903031Y-97788500D01*
X125950722Y-97945716D01*
X125992581Y-98024027D01*
X125935498Y-98130820D01*
X125899188Y-98250518D01*
X125886928Y-98375000D01*
X125890000Y-98489250D01*
X126048750Y-98648000D01*
X126873000Y-98648000D01*
X126873000Y-98628000D01*
X127127000Y-98628000D01*
X127127000Y-98648000D01*
X127147000Y-98648000D01*
X127147000Y-98902000D01*
X127127000Y-98902000D01*
X127127000Y-98922000D01*
X126873000Y-98922000D01*
X126873000Y-98902000D01*
X126048750Y-98902000D01*
X125890000Y-99060750D01*
X125886928Y-99175000D01*
X125899188Y-99299482D01*
X125935498Y-99419180D01*
X125994463Y-99529494D01*
X126073815Y-99626185D01*
X126111863Y-99657410D01*
X126028169Y-99759392D01*
X125950722Y-99904284D01*
X125903031Y-100061500D01*
X125886928Y-100225000D01*
X125886928Y-100625000D01*
X125903031Y-100788500D01*
X125950722Y-100945716D01*
X126028169Y-101090608D01*
X126132394Y-101217606D01*
X126259392Y-101321831D01*
X126404284Y-101399278D01*
X126561500Y-101446969D01*
X126725000Y-101463072D01*
X126851267Y-101463072D01*
X126844845Y-101478577D01*
X126754952Y-101568470D01*
X126721184Y-101596183D01*
X126693471Y-101629951D01*
X126693468Y-101629954D01*
X126610590Y-101730941D01*
X126528412Y-101884687D01*
X126477805Y-102051510D01*
X126463674Y-102195000D01*
X126422998Y-102195000D01*
X126422998Y-102353748D01*
X126264250Y-102195000D01*
X126250000Y-102191928D01*
X126125518Y-102204188D01*
X126005820Y-102240498D01*
X125895506Y-102299463D01*
X125798815Y-102378815D01*
X125719463Y-102475506D01*
X125660498Y-102585820D01*
X125624188Y-102705518D01*
X125611928Y-102830000D01*
X125612753Y-102947896D01*
X125607000Y-102952046D01*
X125607000Y-104343000D01*
X125618133Y-104343000D01*
X125624188Y-104404482D01*
X125627000Y-104413752D01*
X125627000Y-104597000D01*
X125607000Y-104597000D01*
X125607000Y-105987954D01*
X125781874Y-106114119D01*
X126004976Y-106034276D01*
X126192764Y-105912369D01*
X126337116Y-105771794D01*
X126455269Y-105850741D01*
X126629978Y-105923108D01*
X126815448Y-105960000D01*
X127004552Y-105960000D01*
X127190022Y-105923108D01*
X127364731Y-105850741D01*
X127521964Y-105745681D01*
X127655681Y-105611964D01*
X127760741Y-105454731D01*
X127833108Y-105280022D01*
X127870000Y-105094552D01*
X127870000Y-104915117D01*
X127900000Y-104918072D01*
X128200000Y-104918072D01*
X128300000Y-104908223D01*
X128400000Y-104918072D01*
X128700000Y-104918072D01*
X128800000Y-104908223D01*
X128900000Y-104918072D01*
X129200000Y-104918072D01*
X129300000Y-104908223D01*
X129400000Y-104918072D01*
X129700000Y-104918072D01*
X129800000Y-104908223D01*
X129900000Y-104918072D01*
X130200000Y-104918072D01*
X130300000Y-104908223D01*
X130400000Y-104918072D01*
X130700000Y-104918072D01*
X130800000Y-104908223D01*
X130900000Y-104918072D01*
X131200000Y-104918072D01*
X131300000Y-104908223D01*
X131400000Y-104918072D01*
X131700000Y-104918072D01*
X131730000Y-104915117D01*
X131730000Y-105094552D01*
X131766892Y-105280022D01*
X131839259Y-105454731D01*
X131944319Y-105611964D01*
X132078036Y-105745681D01*
X132235269Y-105850741D01*
X132409978Y-105923108D01*
X132595448Y-105960000D01*
X132784552Y-105960000D01*
X132970022Y-105923108D01*
X133144731Y-105850741D01*
X133262884Y-105771794D01*
X133407236Y-105912369D01*
X133595024Y-106034276D01*
X133818126Y-106114119D01*
X133993000Y-105987954D01*
X133993000Y-104597000D01*
X133973000Y-104597000D01*
X133973000Y-104413752D01*
X133975812Y-104404482D01*
X133981867Y-104343000D01*
X133993000Y-104343000D01*
X133993000Y-102952046D01*
X133987247Y-102947896D01*
X133988072Y-102830000D01*
X133975812Y-102705518D01*
X133939502Y-102585820D01*
X133880537Y-102475506D01*
X133801185Y-102378815D01*
X133704494Y-102299463D01*
X133594180Y-102240498D01*
X133474482Y-102204188D01*
X133350000Y-102191928D01*
X133335750Y-102195000D01*
X133177002Y-102353748D01*
X133177002Y-102195000D01*
X133053050Y-102195000D01*
X132989411Y-102075939D01*
X132959616Y-102039634D01*
X133048000Y-101951250D01*
X133048000Y-101127000D01*
X133302000Y-101127000D01*
X133302000Y-101951250D01*
X133460750Y-102110000D01*
X133625000Y-102113072D01*
X133749482Y-102100812D01*
X133869180Y-102064502D01*
X133979494Y-102005537D01*
X134076185Y-101926185D01*
X134155537Y-101829494D01*
X134214502Y-101719180D01*
X134250812Y-101599482D01*
X134263072Y-101475000D01*
X134260000Y-101285750D01*
X134101250Y-101127000D01*
X133302000Y-101127000D01*
X133048000Y-101127000D01*
X133028000Y-101127000D01*
X133028000Y-100873000D01*
X133048000Y-100873000D01*
X133048000Y-100853000D01*
X133302000Y-100853000D01*
X133302000Y-100873000D01*
X134101250Y-100873000D01*
X134260000Y-100714250D01*
X134263072Y-100525000D01*
X134250812Y-100400518D01*
X134214502Y-100280820D01*
X134205015Y-100263072D01*
X134475000Y-100263072D01*
X134638500Y-100246969D01*
X134740000Y-100216179D01*
X134740000Y-102967411D01*
X134644976Y-102905724D01*
X134421874Y-102825881D01*
X134247000Y-102952046D01*
X134247000Y-104343000D01*
X134267000Y-104343000D01*
X134267000Y-104597000D01*
X134247000Y-104597000D01*
X134247000Y-105987954D01*
X134421874Y-106114119D01*
X134644976Y-106034276D01*
X134740000Y-105972589D01*
X134740000Y-107397411D01*
X134644976Y-107335724D01*
X134421874Y-107255881D01*
X134247000Y-107382046D01*
X134247000Y-108523000D01*
X134267000Y-108523000D01*
X134267000Y-108777000D01*
X134247000Y-108777000D01*
X134247000Y-108797000D01*
X133993000Y-108797000D01*
X133993000Y-108777000D01*
X132985000Y-108777000D01*
X132985000Y-109077000D01*
X133031585Y-109295987D01*
X133050503Y-109340000D01*
X126549497Y-109340000D01*
X126568415Y-109295987D01*
X126615000Y-109077000D01*
X126615000Y-108777000D01*
X125607000Y-108777000D01*
X125607000Y-108797000D01*
X125353000Y-108797000D01*
X125353000Y-108777000D01*
X124345000Y-108777000D01*
X124345000Y-109077000D01*
X124391585Y-109295987D01*
X124410503Y-109340000D01*
X100660000Y-109340000D01*
X100660000Y-107501746D01*
X100775000Y-107513072D01*
X100926750Y-107510000D01*
X101085500Y-107351250D01*
X101085500Y-106527000D01*
X101065500Y-106527000D01*
X101065500Y-106273000D01*
X101085500Y-106273000D01*
X101085500Y-106253000D01*
X101339500Y-106253000D01*
X101339500Y-106273000D01*
X101359500Y-106273000D01*
X101359500Y-106527000D01*
X101339500Y-106527000D01*
X101339500Y-107351250D01*
X101498250Y-107510000D01*
X101650000Y-107513072D01*
X101774482Y-107500812D01*
X101894180Y-107464502D01*
X102004494Y-107405537D01*
X102071070Y-107350900D01*
X102092725Y-107368671D01*
X102240858Y-107447850D01*
X102401592Y-107496608D01*
X102568750Y-107513072D01*
X103006250Y-107513072D01*
X103173408Y-107496608D01*
X103334142Y-107447850D01*
X103482275Y-107368671D01*
X103528930Y-107330383D01*
X103620506Y-107405537D01*
X103730820Y-107464502D01*
X103850518Y-107500812D01*
X103975000Y-107513072D01*
X104126750Y-107510000D01*
X104285500Y-107351250D01*
X104285500Y-106527000D01*
X104265500Y-106527000D01*
X104265500Y-106273000D01*
X104285500Y-106273000D01*
X104285500Y-106253000D01*
X104539500Y-106253000D01*
X104539500Y-106273000D01*
X104559500Y-106273000D01*
X104559500Y-106527000D01*
X104539500Y-106527000D01*
X104539500Y-107351250D01*
X104698250Y-107510000D01*
X104850000Y-107513072D01*
X104974482Y-107500812D01*
X105094180Y-107464502D01*
X105204494Y-107405537D01*
X105271070Y-107350900D01*
X105292701Y-107368651D01*
X105265000Y-107507911D01*
X105265000Y-107692089D01*
X105300932Y-107872729D01*
X105371414Y-108042889D01*
X105473738Y-108196028D01*
X105603972Y-108326262D01*
X105757111Y-108428586D01*
X105791077Y-108442655D01*
X106093467Y-108745045D01*
X106121184Y-108778818D01*
X106255942Y-108889412D01*
X106409688Y-108971590D01*
X106576511Y-109022196D01*
X106706524Y-109035001D01*
X106706532Y-109035001D01*
X106750001Y-109039282D01*
X106793470Y-109035001D01*
X107916532Y-109035001D01*
X107960001Y-109039282D01*
X108003470Y-109035001D01*
X108003478Y-109035001D01*
X108133491Y-109022196D01*
X108300314Y-108971590D01*
X108454060Y-108889412D01*
X108588818Y-108778818D01*
X108616535Y-108745045D01*
X109455001Y-107906580D01*
X109543470Y-107995049D01*
X109571183Y-108028817D01*
X109604951Y-108056530D01*
X109604953Y-108056532D01*
X109650680Y-108094059D01*
X109705941Y-108139411D01*
X109859687Y-108221589D01*
X110026510Y-108272195D01*
X110156523Y-108285000D01*
X110156533Y-108285000D01*
X110199999Y-108289281D01*
X110243465Y-108285000D01*
X115781531Y-108285000D01*
X115825000Y-108289281D01*
X115868469Y-108285000D01*
X115868477Y-108285000D01*
X115998490Y-108272195D01*
X116160661Y-108223000D01*
X124345000Y-108223000D01*
X124345000Y-108523000D01*
X125353000Y-108523000D01*
X125353000Y-107382046D01*
X125607000Y-107382046D01*
X125607000Y-108523000D01*
X126615000Y-108523000D01*
X126615000Y-108223000D01*
X132985000Y-108223000D01*
X132985000Y-108523000D01*
X133993000Y-108523000D01*
X133993000Y-107382046D01*
X133818126Y-107255881D01*
X133595024Y-107335724D01*
X133407236Y-107457631D01*
X133246839Y-107613831D01*
X133119997Y-107798322D01*
X133031585Y-108004013D01*
X132985000Y-108223000D01*
X126615000Y-108223000D01*
X126568415Y-108004013D01*
X126480003Y-107798322D01*
X126353161Y-107613831D01*
X126192764Y-107457631D01*
X126004976Y-107335724D01*
X125781874Y-107255881D01*
X125607000Y-107382046D01*
X125353000Y-107382046D01*
X125178126Y-107255881D01*
X124955024Y-107335724D01*
X124767236Y-107457631D01*
X124606839Y-107613831D01*
X124479997Y-107798322D01*
X124391585Y-108004013D01*
X124345000Y-108223000D01*
X116160661Y-108223000D01*
X116165313Y-108221589D01*
X116319059Y-108139411D01*
X116453817Y-108028817D01*
X116481534Y-107995044D01*
X117013507Y-107463072D01*
X117075000Y-107463072D01*
X117238500Y-107446969D01*
X117395716Y-107399278D01*
X117540608Y-107321831D01*
X117667606Y-107217606D01*
X117771831Y-107090608D01*
X117849278Y-106945716D01*
X117896969Y-106788500D01*
X117913072Y-106625000D01*
X117913072Y-106563506D01*
X118396358Y-106080220D01*
X118473738Y-106196028D01*
X118603972Y-106326262D01*
X118757111Y-106428586D01*
X118927271Y-106499068D01*
X119107911Y-106535000D01*
X119292089Y-106535000D01*
X119472729Y-106499068D01*
X119511928Y-106482831D01*
X119511928Y-107050000D01*
X119524188Y-107174482D01*
X119560498Y-107294180D01*
X119619463Y-107404494D01*
X119698815Y-107501185D01*
X119795506Y-107580537D01*
X119905820Y-107639502D01*
X120025518Y-107675812D01*
X120150000Y-107688072D01*
X122650000Y-107688072D01*
X122774482Y-107675812D01*
X122894180Y-107639502D01*
X123004494Y-107580537D01*
X123101185Y-107501185D01*
X123180537Y-107404494D01*
X123239502Y-107294180D01*
X123275812Y-107174482D01*
X123288072Y-107050000D01*
X123288072Y-104597000D01*
X124345000Y-104597000D01*
X124345000Y-105147000D01*
X124391585Y-105365987D01*
X124479997Y-105571678D01*
X124606839Y-105756169D01*
X124767236Y-105912369D01*
X124955024Y-106034276D01*
X125178126Y-106114119D01*
X125353000Y-105987954D01*
X125353000Y-104597000D01*
X124345000Y-104597000D01*
X123288072Y-104597000D01*
X123288072Y-104550000D01*
X123275812Y-104425518D01*
X123239502Y-104305820D01*
X123180537Y-104195506D01*
X123101185Y-104098815D01*
X123004494Y-104019463D01*
X122894180Y-103960498D01*
X122774482Y-103924188D01*
X122650000Y-103911928D01*
X120564651Y-103911928D01*
X120683579Y-103793000D01*
X124345000Y-103793000D01*
X124345000Y-104343000D01*
X125353000Y-104343000D01*
X125353000Y-102952046D01*
X125178126Y-102825881D01*
X124955024Y-102905724D01*
X124767236Y-103027631D01*
X124606839Y-103183831D01*
X124479997Y-103368322D01*
X124391585Y-103574013D01*
X124345000Y-103793000D01*
X120683579Y-103793000D01*
X121795049Y-102681530D01*
X121828817Y-102653817D01*
X121891793Y-102577082D01*
X121939411Y-102519059D01*
X122021589Y-102365314D01*
X122072195Y-102198490D01*
X122075963Y-102160229D01*
X122085000Y-102068477D01*
X122085000Y-102068469D01*
X122089281Y-102025000D01*
X122085000Y-101981531D01*
X122085000Y-97141578D01*
X123713507Y-95513072D01*
X123800000Y-95513072D01*
X123968377Y-95496488D01*
X124130283Y-95447375D01*
X124279497Y-95367618D01*
X124299668Y-95351064D01*
X124335498Y-95469180D01*
X124394463Y-95579494D01*
X124473815Y-95676185D01*
X124570506Y-95755537D01*
X124680820Y-95814502D01*
X124800518Y-95850812D01*
X124925000Y-95863072D01*
X125114250Y-95860000D01*
X125273000Y-95701250D01*
X125273000Y-94952000D01*
X125253000Y-94952000D01*
X125253000Y-94698000D01*
X125273000Y-94698000D01*
X125273000Y-94678000D01*
X125527000Y-94678000D01*
X125527000Y-94698000D01*
%TA.AperFunction,Conductor*%
D31*
G36*
X125527000Y-94698000D02*
G01*
X125547000Y-94698000D01*
X125547000Y-94952000D01*
X125527000Y-94952000D01*
X125527000Y-95701250D01*
X125685750Y-95860000D01*
X125875000Y-95863072D01*
X125886928Y-95861897D01*
X125886928Y-95975000D01*
X125903031Y-96138500D01*
X125950722Y-96295716D01*
X126028169Y-96440608D01*
X126132394Y-96567606D01*
X126171866Y-96600000D01*
X126132394Y-96632394D01*
X126028169Y-96759392D01*
X125950722Y-96904284D01*
X125903031Y-97061500D01*
X125886928Y-97225000D01*
X125886928Y-97625000D01*
X125903031Y-97788500D01*
X125950722Y-97945716D01*
X125992581Y-98024027D01*
X125935498Y-98130820D01*
X125899188Y-98250518D01*
X125886928Y-98375000D01*
X125890000Y-98489250D01*
X126048750Y-98648000D01*
X126873000Y-98648000D01*
X126873000Y-98628000D01*
X127127000Y-98628000D01*
X127127000Y-98648000D01*
X127147000Y-98648000D01*
X127147000Y-98902000D01*
X127127000Y-98902000D01*
X127127000Y-98922000D01*
X126873000Y-98922000D01*
X126873000Y-98902000D01*
X126048750Y-98902000D01*
X125890000Y-99060750D01*
X125886928Y-99175000D01*
X125899188Y-99299482D01*
X125935498Y-99419180D01*
X125994463Y-99529494D01*
X126073815Y-99626185D01*
X126111863Y-99657410D01*
X126028169Y-99759392D01*
X125950722Y-99904284D01*
X125903031Y-100061500D01*
X125886928Y-100225000D01*
X125886928Y-100625000D01*
X125903031Y-100788500D01*
X125950722Y-100945716D01*
X126028169Y-101090608D01*
X126132394Y-101217606D01*
X126259392Y-101321831D01*
X126404284Y-101399278D01*
X126561500Y-101446969D01*
X126725000Y-101463072D01*
X126851267Y-101463072D01*
X126844845Y-101478577D01*
X126754952Y-101568470D01*
X126721184Y-101596183D01*
X126693471Y-101629951D01*
X126693468Y-101629954D01*
X126610590Y-101730941D01*
X126528412Y-101884687D01*
X126477805Y-102051510D01*
X126463674Y-102195000D01*
X126422998Y-102195000D01*
X126422998Y-102353748D01*
X126264250Y-102195000D01*
X126250000Y-102191928D01*
X126125518Y-102204188D01*
X126005820Y-102240498D01*
X125895506Y-102299463D01*
X125798815Y-102378815D01*
X125719463Y-102475506D01*
X125660498Y-102585820D01*
X125624188Y-102705518D01*
X125611928Y-102830000D01*
X125612753Y-102947896D01*
X125607000Y-102952046D01*
X125607000Y-104343000D01*
X125618133Y-104343000D01*
X125624188Y-104404482D01*
X125627000Y-104413752D01*
X125627000Y-104597000D01*
X125607000Y-104597000D01*
X125607000Y-105987954D01*
X125781874Y-106114119D01*
X126004976Y-106034276D01*
X126192764Y-105912369D01*
X126337116Y-105771794D01*
X126455269Y-105850741D01*
X126629978Y-105923108D01*
X126815448Y-105960000D01*
X127004552Y-105960000D01*
X127190022Y-105923108D01*
X127364731Y-105850741D01*
X127521964Y-105745681D01*
X127655681Y-105611964D01*
X127760741Y-105454731D01*
X127833108Y-105280022D01*
X127870000Y-105094552D01*
X127870000Y-104915117D01*
X127900000Y-104918072D01*
X128200000Y-104918072D01*
X128300000Y-104908223D01*
X128400000Y-104918072D01*
X128700000Y-104918072D01*
X128800000Y-104908223D01*
X128900000Y-104918072D01*
X129200000Y-104918072D01*
X129300000Y-104908223D01*
X129400000Y-104918072D01*
X129700000Y-104918072D01*
X129800000Y-104908223D01*
X129900000Y-104918072D01*
X130200000Y-104918072D01*
X130300000Y-104908223D01*
X130400000Y-104918072D01*
X130700000Y-104918072D01*
X130800000Y-104908223D01*
X130900000Y-104918072D01*
X131200000Y-104918072D01*
X131300000Y-104908223D01*
X131400000Y-104918072D01*
X131700000Y-104918072D01*
X131730000Y-104915117D01*
X131730000Y-105094552D01*
X131766892Y-105280022D01*
X131839259Y-105454731D01*
X131944319Y-105611964D01*
X132078036Y-105745681D01*
X132235269Y-105850741D01*
X132409978Y-105923108D01*
X132595448Y-105960000D01*
X132784552Y-105960000D01*
X132970022Y-105923108D01*
X133144731Y-105850741D01*
X133262884Y-105771794D01*
X133407236Y-105912369D01*
X133595024Y-106034276D01*
X133818126Y-106114119D01*
X133993000Y-105987954D01*
X133993000Y-104597000D01*
X133973000Y-104597000D01*
X133973000Y-104413752D01*
X133975812Y-104404482D01*
X133981867Y-104343000D01*
X133993000Y-104343000D01*
X133993000Y-102952046D01*
X133987247Y-102947896D01*
X133988072Y-102830000D01*
X133975812Y-102705518D01*
X133939502Y-102585820D01*
X133880537Y-102475506D01*
X133801185Y-102378815D01*
X133704494Y-102299463D01*
X133594180Y-102240498D01*
X133474482Y-102204188D01*
X133350000Y-102191928D01*
X133335750Y-102195000D01*
X133177002Y-102353748D01*
X133177002Y-102195000D01*
X133053050Y-102195000D01*
X132989411Y-102075939D01*
X132959616Y-102039634D01*
X133048000Y-101951250D01*
X133048000Y-101127000D01*
X133302000Y-101127000D01*
X133302000Y-101951250D01*
X133460750Y-102110000D01*
X133625000Y-102113072D01*
X133749482Y-102100812D01*
X133869180Y-102064502D01*
X133979494Y-102005537D01*
X134076185Y-101926185D01*
X134155537Y-101829494D01*
X134214502Y-101719180D01*
X134250812Y-101599482D01*
X134263072Y-101475000D01*
X134260000Y-101285750D01*
X134101250Y-101127000D01*
X133302000Y-101127000D01*
X133048000Y-101127000D01*
X133028000Y-101127000D01*
X133028000Y-100873000D01*
X133048000Y-100873000D01*
X133048000Y-100853000D01*
X133302000Y-100853000D01*
X133302000Y-100873000D01*
X134101250Y-100873000D01*
X134260000Y-100714250D01*
X134263072Y-100525000D01*
X134250812Y-100400518D01*
X134214502Y-100280820D01*
X134205015Y-100263072D01*
X134475000Y-100263072D01*
X134638500Y-100246969D01*
X134740000Y-100216179D01*
X134740000Y-102967411D01*
X134644976Y-102905724D01*
X134421874Y-102825881D01*
X134247000Y-102952046D01*
X134247000Y-104343000D01*
X134267000Y-104343000D01*
X134267000Y-104597000D01*
X134247000Y-104597000D01*
X134247000Y-105987954D01*
X134421874Y-106114119D01*
X134644976Y-106034276D01*
X134740000Y-105972589D01*
X134740000Y-107397411D01*
X134644976Y-107335724D01*
X134421874Y-107255881D01*
X134247000Y-107382046D01*
X134247000Y-108523000D01*
X134267000Y-108523000D01*
X134267000Y-108777000D01*
X134247000Y-108777000D01*
X134247000Y-108797000D01*
X133993000Y-108797000D01*
X133993000Y-108777000D01*
X132985000Y-108777000D01*
X132985000Y-109077000D01*
X133031585Y-109295987D01*
X133050503Y-109340000D01*
X126549497Y-109340000D01*
X126568415Y-109295987D01*
X126615000Y-109077000D01*
X126615000Y-108777000D01*
X125607000Y-108777000D01*
X125607000Y-108797000D01*
X125353000Y-108797000D01*
X125353000Y-108777000D01*
X124345000Y-108777000D01*
X124345000Y-109077000D01*
X124391585Y-109295987D01*
X124410503Y-109340000D01*
X100660000Y-109340000D01*
X100660000Y-107501746D01*
X100775000Y-107513072D01*
X100926750Y-107510000D01*
X101085500Y-107351250D01*
X101085500Y-106527000D01*
X101065500Y-106527000D01*
X101065500Y-106273000D01*
X101085500Y-106273000D01*
X101085500Y-106253000D01*
X101339500Y-106253000D01*
X101339500Y-106273000D01*
X101359500Y-106273000D01*
X101359500Y-106527000D01*
X101339500Y-106527000D01*
X101339500Y-107351250D01*
X101498250Y-107510000D01*
X101650000Y-107513072D01*
X101774482Y-107500812D01*
X101894180Y-107464502D01*
X102004494Y-107405537D01*
X102071070Y-107350900D01*
X102092725Y-107368671D01*
X102240858Y-107447850D01*
X102401592Y-107496608D01*
X102568750Y-107513072D01*
X103006250Y-107513072D01*
X103173408Y-107496608D01*
X103334142Y-107447850D01*
X103482275Y-107368671D01*
X103528930Y-107330383D01*
X103620506Y-107405537D01*
X103730820Y-107464502D01*
X103850518Y-107500812D01*
X103975000Y-107513072D01*
X104126750Y-107510000D01*
X104285500Y-107351250D01*
X104285500Y-106527000D01*
X104265500Y-106527000D01*
X104265500Y-106273000D01*
X104285500Y-106273000D01*
X104285500Y-106253000D01*
X104539500Y-106253000D01*
X104539500Y-106273000D01*
X104559500Y-106273000D01*
X104559500Y-106527000D01*
X104539500Y-106527000D01*
X104539500Y-107351250D01*
X104698250Y-107510000D01*
X104850000Y-107513072D01*
X104974482Y-107500812D01*
X105094180Y-107464502D01*
X105204494Y-107405537D01*
X105271070Y-107350900D01*
X105292701Y-107368651D01*
X105265000Y-107507911D01*
X105265000Y-107692089D01*
X105300932Y-107872729D01*
X105371414Y-108042889D01*
X105473738Y-108196028D01*
X105603972Y-108326262D01*
X105757111Y-108428586D01*
X105791077Y-108442655D01*
X106093467Y-108745045D01*
X106121184Y-108778818D01*
X106255942Y-108889412D01*
X106409688Y-108971590D01*
X106576511Y-109022196D01*
X106706524Y-109035001D01*
X106706532Y-109035001D01*
X106750001Y-109039282D01*
X106793470Y-109035001D01*
X107916532Y-109035001D01*
X107960001Y-109039282D01*
X108003470Y-109035001D01*
X108003478Y-109035001D01*
X108133491Y-109022196D01*
X108300314Y-108971590D01*
X108454060Y-108889412D01*
X108588818Y-108778818D01*
X108616535Y-108745045D01*
X109455001Y-107906580D01*
X109543470Y-107995049D01*
X109571183Y-108028817D01*
X109604951Y-108056530D01*
X109604953Y-108056532D01*
X109650680Y-108094059D01*
X109705941Y-108139411D01*
X109859687Y-108221589D01*
X110026510Y-108272195D01*
X110156523Y-108285000D01*
X110156533Y-108285000D01*
X110199999Y-108289281D01*
X110243465Y-108285000D01*
X115781531Y-108285000D01*
X115825000Y-108289281D01*
X115868469Y-108285000D01*
X115868477Y-108285000D01*
X115998490Y-108272195D01*
X116160661Y-108223000D01*
X124345000Y-108223000D01*
X124345000Y-108523000D01*
X125353000Y-108523000D01*
X125353000Y-107382046D01*
X125607000Y-107382046D01*
X125607000Y-108523000D01*
X126615000Y-108523000D01*
X126615000Y-108223000D01*
X132985000Y-108223000D01*
X132985000Y-108523000D01*
X133993000Y-108523000D01*
X133993000Y-107382046D01*
X133818126Y-107255881D01*
X133595024Y-107335724D01*
X133407236Y-107457631D01*
X133246839Y-107613831D01*
X133119997Y-107798322D01*
X133031585Y-108004013D01*
X132985000Y-108223000D01*
X126615000Y-108223000D01*
X126568415Y-108004013D01*
X126480003Y-107798322D01*
X126353161Y-107613831D01*
X126192764Y-107457631D01*
X126004976Y-107335724D01*
X125781874Y-107255881D01*
X125607000Y-107382046D01*
X125353000Y-107382046D01*
X125178126Y-107255881D01*
X124955024Y-107335724D01*
X124767236Y-107457631D01*
X124606839Y-107613831D01*
X124479997Y-107798322D01*
X124391585Y-108004013D01*
X124345000Y-108223000D01*
X116160661Y-108223000D01*
X116165313Y-108221589D01*
X116319059Y-108139411D01*
X116453817Y-108028817D01*
X116481534Y-107995044D01*
X117013507Y-107463072D01*
X117075000Y-107463072D01*
X117238500Y-107446969D01*
X117395716Y-107399278D01*
X117540608Y-107321831D01*
X117667606Y-107217606D01*
X117771831Y-107090608D01*
X117849278Y-106945716D01*
X117896969Y-106788500D01*
X117913072Y-106625000D01*
X117913072Y-106563506D01*
X118396358Y-106080220D01*
X118473738Y-106196028D01*
X118603972Y-106326262D01*
X118757111Y-106428586D01*
X118927271Y-106499068D01*
X119107911Y-106535000D01*
X119292089Y-106535000D01*
X119472729Y-106499068D01*
X119511928Y-106482831D01*
X119511928Y-107050000D01*
X119524188Y-107174482D01*
X119560498Y-107294180D01*
X119619463Y-107404494D01*
X119698815Y-107501185D01*
X119795506Y-107580537D01*
X119905820Y-107639502D01*
X120025518Y-107675812D01*
X120150000Y-107688072D01*
X122650000Y-107688072D01*
X122774482Y-107675812D01*
X122894180Y-107639502D01*
X123004494Y-107580537D01*
X123101185Y-107501185D01*
X123180537Y-107404494D01*
X123239502Y-107294180D01*
X123275812Y-107174482D01*
X123288072Y-107050000D01*
X123288072Y-104597000D01*
X124345000Y-104597000D01*
X124345000Y-105147000D01*
X124391585Y-105365987D01*
X124479997Y-105571678D01*
X124606839Y-105756169D01*
X124767236Y-105912369D01*
X124955024Y-106034276D01*
X125178126Y-106114119D01*
X125353000Y-105987954D01*
X125353000Y-104597000D01*
X124345000Y-104597000D01*
X123288072Y-104597000D01*
X123288072Y-104550000D01*
X123275812Y-104425518D01*
X123239502Y-104305820D01*
X123180537Y-104195506D01*
X123101185Y-104098815D01*
X123004494Y-104019463D01*
X122894180Y-103960498D01*
X122774482Y-103924188D01*
X122650000Y-103911928D01*
X120564651Y-103911928D01*
X120683579Y-103793000D01*
X124345000Y-103793000D01*
X124345000Y-104343000D01*
X125353000Y-104343000D01*
X125353000Y-102952046D01*
X125178126Y-102825881D01*
X124955024Y-102905724D01*
X124767236Y-103027631D01*
X124606839Y-103183831D01*
X124479997Y-103368322D01*
X124391585Y-103574013D01*
X124345000Y-103793000D01*
X120683579Y-103793000D01*
X121795049Y-102681530D01*
X121828817Y-102653817D01*
X121891793Y-102577082D01*
X121939411Y-102519059D01*
X122021589Y-102365314D01*
X122072195Y-102198490D01*
X122075963Y-102160229D01*
X122085000Y-102068477D01*
X122085000Y-102068469D01*
X122089281Y-102025000D01*
X122085000Y-101981531D01*
X122085000Y-97141578D01*
X123713507Y-95513072D01*
X123800000Y-95513072D01*
X123968377Y-95496488D01*
X124130283Y-95447375D01*
X124279497Y-95367618D01*
X124299668Y-95351064D01*
X124335498Y-95469180D01*
X124394463Y-95579494D01*
X124473815Y-95676185D01*
X124570506Y-95755537D01*
X124680820Y-95814502D01*
X124800518Y-95850812D01*
X124925000Y-95863072D01*
X125114250Y-95860000D01*
X125273000Y-95701250D01*
X125273000Y-94952000D01*
X125253000Y-94952000D01*
X125253000Y-94698000D01*
X125273000Y-94698000D01*
X125273000Y-94678000D01*
X125527000Y-94678000D01*
X125527000Y-94698000D01*
G37*
%TD.AperFunction*%
D30*
X107727000Y-106248000D02*
X107747000Y-106248000D01*
X107747000Y-106502000D01*
X107727000Y-106502000D01*
X107727000Y-106522000D01*
X107473000Y-106522000D01*
X107473000Y-106502000D01*
X107453000Y-106502000D01*
X107453000Y-106248000D01*
X107473000Y-106248000D01*
X107473000Y-106228000D01*
X107727000Y-106228000D01*
X107727000Y-106248000D01*
%TA.AperFunction,Conductor*%
D31*
G36*
X107727000Y-106248000D02*
G01*
X107747000Y-106248000D01*
X107747000Y-106502000D01*
X107727000Y-106502000D01*
X107727000Y-106522000D01*
X107473000Y-106522000D01*
X107473000Y-106502000D01*
X107453000Y-106502000D01*
X107453000Y-106248000D01*
X107473000Y-106248000D01*
X107473000Y-106228000D01*
X107727000Y-106228000D01*
X107727000Y-106248000D01*
G37*
%TD.AperFunction*%
D30*
X115140518Y-103480812D02*
X115265000Y-103493072D01*
X115909358Y-103493072D01*
X115971414Y-103642889D01*
X116073738Y-103796028D01*
X116122270Y-103844560D01*
X116059392Y-103878169D01*
X115932394Y-103982394D01*
X115828169Y-104109392D01*
X115750722Y-104254284D01*
X115730821Y-104319888D01*
X115650000Y-104311928D01*
X115485750Y-104315000D01*
X115327000Y-104473750D01*
X115327000Y-105673000D01*
X115347000Y-105673000D01*
X115347000Y-105927000D01*
X115327000Y-105927000D01*
X115327000Y-105947000D01*
X115073000Y-105947000D01*
X115073000Y-105927000D01*
X114273750Y-105927000D01*
X114115000Y-106085750D01*
X114112663Y-106515000D01*
X111888072Y-106515000D01*
X111888072Y-104950000D01*
X114111928Y-104950000D01*
X114115000Y-105514250D01*
X114273750Y-105673000D01*
X115073000Y-105673000D01*
X115073000Y-104473750D01*
X114914250Y-104315000D01*
X114750000Y-104311928D01*
X114625518Y-104324188D01*
X114505820Y-104360498D01*
X114395506Y-104419463D01*
X114298815Y-104498815D01*
X114219463Y-104595506D01*
X114160498Y-104705820D01*
X114124188Y-104825518D01*
X114111928Y-104950000D01*
X111888072Y-104950000D01*
X111875812Y-104825518D01*
X111839502Y-104705820D01*
X111780537Y-104595506D01*
X111701185Y-104498815D01*
X111604494Y-104419463D01*
X111494180Y-104360498D01*
X111374482Y-104324188D01*
X111250000Y-104311928D01*
X110892795Y-104311928D01*
X110794446Y-104213578D01*
X110768291Y-104181709D01*
X110641146Y-104077364D01*
X110496087Y-103999828D01*
X110338689Y-103952082D01*
X110216019Y-103940000D01*
X110216018Y-103940000D01*
X110175000Y-103935960D01*
X110133982Y-103940000D01*
X110015949Y-103940000D01*
X109940608Y-103878169D01*
X109795716Y-103800722D01*
X109638500Y-103753031D01*
X109475000Y-103736928D01*
X108925000Y-103736928D01*
X108761500Y-103753031D01*
X108604284Y-103800722D01*
X108459392Y-103878169D01*
X108391878Y-103933577D01*
X108329497Y-103882382D01*
X108180283Y-103802625D01*
X108018377Y-103753512D01*
X107850000Y-103736928D01*
X107763507Y-103736928D01*
X107501674Y-103475096D01*
X107520518Y-103480812D01*
X107645000Y-103493072D01*
X108545000Y-103493072D01*
X108669482Y-103480812D01*
X108730000Y-103462454D01*
X108790518Y-103480812D01*
X108915000Y-103493072D01*
X109815000Y-103493072D01*
X109939482Y-103480812D01*
X110000000Y-103462454D01*
X110060518Y-103480812D01*
X110185000Y-103493072D01*
X111085000Y-103493072D01*
X111209482Y-103480812D01*
X111270000Y-103462454D01*
X111330518Y-103480812D01*
X111455000Y-103493072D01*
X112355000Y-103493072D01*
X112479482Y-103480812D01*
X112540000Y-103462454D01*
X112600518Y-103480812D01*
X112725000Y-103493072D01*
X113625000Y-103493072D01*
X113749482Y-103480812D01*
X113810000Y-103462454D01*
X113870518Y-103480812D01*
X113995000Y-103493072D01*
X114895000Y-103493072D01*
X115019482Y-103480812D01*
X115080000Y-103462454D01*
X115140518Y-103480812D01*
%TA.AperFunction,Conductor*%
D31*
G36*
X115140518Y-103480812D02*
G01*
X115265000Y-103493072D01*
X115909358Y-103493072D01*
X115971414Y-103642889D01*
X116073738Y-103796028D01*
X116122270Y-103844560D01*
X116059392Y-103878169D01*
X115932394Y-103982394D01*
X115828169Y-104109392D01*
X115750722Y-104254284D01*
X115730821Y-104319888D01*
X115650000Y-104311928D01*
X115485750Y-104315000D01*
X115327000Y-104473750D01*
X115327000Y-105673000D01*
X115347000Y-105673000D01*
X115347000Y-105927000D01*
X115327000Y-105927000D01*
X115327000Y-105947000D01*
X115073000Y-105947000D01*
X115073000Y-105927000D01*
X114273750Y-105927000D01*
X114115000Y-106085750D01*
X114112663Y-106515000D01*
X111888072Y-106515000D01*
X111888072Y-104950000D01*
X114111928Y-104950000D01*
X114115000Y-105514250D01*
X114273750Y-105673000D01*
X115073000Y-105673000D01*
X115073000Y-104473750D01*
X114914250Y-104315000D01*
X114750000Y-104311928D01*
X114625518Y-104324188D01*
X114505820Y-104360498D01*
X114395506Y-104419463D01*
X114298815Y-104498815D01*
X114219463Y-104595506D01*
X114160498Y-104705820D01*
X114124188Y-104825518D01*
X114111928Y-104950000D01*
X111888072Y-104950000D01*
X111875812Y-104825518D01*
X111839502Y-104705820D01*
X111780537Y-104595506D01*
X111701185Y-104498815D01*
X111604494Y-104419463D01*
X111494180Y-104360498D01*
X111374482Y-104324188D01*
X111250000Y-104311928D01*
X110892795Y-104311928D01*
X110794446Y-104213578D01*
X110768291Y-104181709D01*
X110641146Y-104077364D01*
X110496087Y-103999828D01*
X110338689Y-103952082D01*
X110216019Y-103940000D01*
X110216018Y-103940000D01*
X110175000Y-103935960D01*
X110133982Y-103940000D01*
X110015949Y-103940000D01*
X109940608Y-103878169D01*
X109795716Y-103800722D01*
X109638500Y-103753031D01*
X109475000Y-103736928D01*
X108925000Y-103736928D01*
X108761500Y-103753031D01*
X108604284Y-103800722D01*
X108459392Y-103878169D01*
X108391878Y-103933577D01*
X108329497Y-103882382D01*
X108180283Y-103802625D01*
X108018377Y-103753512D01*
X107850000Y-103736928D01*
X107763507Y-103736928D01*
X107501674Y-103475096D01*
X107520518Y-103480812D01*
X107645000Y-103493072D01*
X108545000Y-103493072D01*
X108669482Y-103480812D01*
X108730000Y-103462454D01*
X108790518Y-103480812D01*
X108915000Y-103493072D01*
X109815000Y-103493072D01*
X109939482Y-103480812D01*
X110000000Y-103462454D01*
X110060518Y-103480812D01*
X110185000Y-103493072D01*
X111085000Y-103493072D01*
X111209482Y-103480812D01*
X111270000Y-103462454D01*
X111330518Y-103480812D01*
X111455000Y-103493072D01*
X112355000Y-103493072D01*
X112479482Y-103480812D01*
X112540000Y-103462454D01*
X112600518Y-103480812D01*
X112725000Y-103493072D01*
X113625000Y-103493072D01*
X113749482Y-103480812D01*
X113810000Y-103462454D01*
X113870518Y-103480812D01*
X113995000Y-103493072D01*
X114895000Y-103493072D01*
X115019482Y-103480812D01*
X115080000Y-103462454D01*
X115140518Y-103480812D01*
G37*
%TD.AperFunction*%
D30*
X110264923Y-86017544D02*
X110479482Y-86160907D01*
X110717887Y-86259658D01*
X110970976Y-86310000D01*
X111158422Y-86310000D01*
X113915000Y-89066579D01*
X113915001Y-97156521D01*
X113910719Y-97200000D01*
X113927805Y-97373490D01*
X113978412Y-97540313D01*
X114060590Y-97694059D01*
X114143468Y-97795046D01*
X114143471Y-97795049D01*
X114171184Y-97828817D01*
X114204951Y-97856529D01*
X115593465Y-99245044D01*
X115604774Y-99301898D01*
X115682795Y-99490256D01*
X115796063Y-99659774D01*
X115940226Y-99803937D01*
X116032094Y-99865321D01*
X116024828Y-99878914D01*
X115977082Y-100036312D01*
X115960960Y-100200000D01*
X115962627Y-100216928D01*
X115265000Y-100216928D01*
X115140518Y-100229188D01*
X115080000Y-100247546D01*
X115019482Y-100229188D01*
X114895000Y-100216928D01*
X113995000Y-100216928D01*
X113870518Y-100229188D01*
X113810000Y-100247546D01*
X113749482Y-100229188D01*
X113625000Y-100216928D01*
X112725000Y-100216928D01*
X112600518Y-100229188D01*
X112540000Y-100247546D01*
X112479482Y-100229188D01*
X112355000Y-100216928D01*
X111455000Y-100216928D01*
X111330518Y-100229188D01*
X111270000Y-100247546D01*
X111209482Y-100229188D01*
X111085000Y-100216928D01*
X110185000Y-100216928D01*
X110060518Y-100229188D01*
X110000000Y-100247546D01*
X109939482Y-100229188D01*
X109815000Y-100216928D01*
X108915000Y-100216928D01*
X108790518Y-100229188D01*
X108730000Y-100247546D01*
X108669482Y-100229188D01*
X108545000Y-100216928D01*
X107645000Y-100216928D01*
X107520518Y-100229188D01*
X107460000Y-100247546D01*
X107399482Y-100229188D01*
X107275000Y-100216928D01*
X106375000Y-100216928D01*
X106250518Y-100229188D01*
X106190000Y-100247546D01*
X106129482Y-100229188D01*
X106005000Y-100216928D01*
X105105000Y-100216928D01*
X104980518Y-100229188D01*
X104920000Y-100247546D01*
X104859482Y-100229188D01*
X104735000Y-100216928D01*
X104570750Y-100220000D01*
X104412000Y-100378750D01*
X104412000Y-101728000D01*
X104432000Y-101728000D01*
X104432000Y-101982000D01*
X104412000Y-101982000D01*
X104412000Y-102002000D01*
X104158000Y-102002000D01*
X104158000Y-101982000D01*
X103358750Y-101982000D01*
X103200000Y-102140750D01*
X103198701Y-102442833D01*
X102672203Y-101916336D01*
X102744180Y-101894502D01*
X102854494Y-101835537D01*
X102951185Y-101756185D01*
X103030537Y-101659494D01*
X103089502Y-101549180D01*
X103125812Y-101429482D01*
X103138072Y-101305000D01*
X103138072Y-100505965D01*
X103172747Y-100499068D01*
X103342907Y-100428586D01*
X103400620Y-100390023D01*
X103383815Y-100403815D01*
X103304463Y-100500506D01*
X103245498Y-100610820D01*
X103209188Y-100730518D01*
X103196928Y-100855000D01*
X103200000Y-101569250D01*
X103358750Y-101728000D01*
X104158000Y-101728000D01*
X104158000Y-100378750D01*
X103999250Y-100220000D01*
X103835000Y-100216928D01*
X103710518Y-100229188D01*
X103590820Y-100265498D01*
X103517756Y-100304552D01*
X103626280Y-100196028D01*
X103728604Y-100042889D01*
X103799086Y-99872729D01*
X103835018Y-99692089D01*
X103835018Y-99507911D01*
X103799086Y-99327271D01*
X103728604Y-99157111D01*
X103626280Y-99003972D01*
X103496046Y-98873738D01*
X103342907Y-98771414D01*
X103172747Y-98700932D01*
X103138072Y-98694035D01*
X103138072Y-97865000D01*
X103125812Y-97740518D01*
X103107454Y-97680000D01*
X103125812Y-97619482D01*
X103138072Y-97495000D01*
X103138072Y-96595000D01*
X103125812Y-96470518D01*
X103107454Y-96410000D01*
X103125812Y-96349482D01*
X103138072Y-96225000D01*
X103138072Y-95325000D01*
X103125812Y-95200518D01*
X103107454Y-95140000D01*
X103125812Y-95079482D01*
X103138072Y-94955000D01*
X103138072Y-94055000D01*
X103125812Y-93930518D01*
X103107454Y-93870000D01*
X103125812Y-93809482D01*
X103138072Y-93685000D01*
X103138072Y-92785000D01*
X103125812Y-92660518D01*
X103107454Y-92600000D01*
X103125812Y-92539482D01*
X103138072Y-92415000D01*
X103138072Y-92084650D01*
X105115000Y-94061579D01*
X105115001Y-95293306D01*
X105100932Y-95327271D01*
X105065000Y-95507911D01*
X105065000Y-95692089D01*
X105100932Y-95872729D01*
X105171414Y-96042889D01*
X105273738Y-96196028D01*
X105403972Y-96326262D01*
X105557111Y-96428586D01*
X105727271Y-96499068D01*
X105907911Y-96535000D01*
X106092089Y-96535000D01*
X106272729Y-96499068D01*
X106442889Y-96428586D01*
X106596028Y-96326262D01*
X106726262Y-96196028D01*
X106828586Y-96042889D01*
X106899068Y-95872729D01*
X106935000Y-95692089D01*
X106935000Y-95507911D01*
X106899068Y-95327271D01*
X106885000Y-95293308D01*
X106885000Y-94982538D01*
X108714250Y-94980000D01*
X108873000Y-94821250D01*
X108873000Y-91972000D01*
X109127000Y-91972000D01*
X109127000Y-94821250D01*
X109285750Y-94980000D01*
X111500000Y-94983072D01*
X111624482Y-94970812D01*
X111744180Y-94934502D01*
X111854494Y-94875537D01*
X111951185Y-94796185D01*
X112030537Y-94699494D01*
X112089502Y-94589180D01*
X112125812Y-94469482D01*
X112138072Y-94345000D01*
X112135000Y-92130750D01*
X111976250Y-91972000D01*
X109127000Y-91972000D01*
X108873000Y-91972000D01*
X106023750Y-91972000D01*
X105865000Y-92130750D01*
X105864754Y-92308175D01*
X103656534Y-90099956D01*
X103628817Y-90066183D01*
X103494059Y-89955589D01*
X103340313Y-89873411D01*
X103173490Y-89822805D01*
X103138072Y-89819317D01*
X103138072Y-89345000D01*
X105861928Y-89345000D01*
X105865000Y-91559250D01*
X106023750Y-91718000D01*
X108873000Y-91718000D01*
X108873000Y-88868750D01*
X109127000Y-88868750D01*
X109127000Y-91718000D01*
X111976250Y-91718000D01*
X112135000Y-91559250D01*
X112138072Y-89345000D01*
X112125812Y-89220518D01*
X112089502Y-89100820D01*
X112030537Y-88990506D01*
X111951185Y-88893815D01*
X111854494Y-88814463D01*
X111744180Y-88755498D01*
X111624482Y-88719188D01*
X111500000Y-88706928D01*
X109285750Y-88710000D01*
X109127000Y-88868750D01*
X108873000Y-88868750D01*
X108714250Y-88710000D01*
X106500000Y-88706928D01*
X106375518Y-88719188D01*
X106255820Y-88755498D01*
X106145506Y-88814463D01*
X106048815Y-88893815D01*
X105969463Y-88990506D01*
X105910498Y-89100820D01*
X105874188Y-89220518D01*
X105861928Y-89345000D01*
X103138072Y-89345000D01*
X103138072Y-88975000D01*
X103125812Y-88850518D01*
X103107454Y-88790000D01*
X103125812Y-88729482D01*
X103138072Y-88605000D01*
X103138072Y-88215865D01*
X103157111Y-88228586D01*
X103327271Y-88299068D01*
X103507911Y-88335000D01*
X103692089Y-88335000D01*
X103872729Y-88299068D01*
X104027404Y-88235000D01*
X107758982Y-88235000D01*
X107800000Y-88239040D01*
X107841018Y-88235000D01*
X107841019Y-88235000D01*
X107963689Y-88222918D01*
X108121087Y-88175172D01*
X108266146Y-88097636D01*
X108393291Y-87993291D01*
X108419446Y-87961422D01*
X109661432Y-86719437D01*
X109693291Y-86693291D01*
X109724787Y-86654914D01*
X109797636Y-86566146D01*
X109875172Y-86421087D01*
X109884317Y-86390941D01*
X109922918Y-86263689D01*
X109935000Y-86141019D01*
X109935000Y-86141018D01*
X109939040Y-86100000D01*
X109935000Y-86058982D01*
X109935000Y-86017595D01*
X109935077Y-86017544D01*
X110100000Y-85852621D01*
X110264923Y-86017544D01*
%TA.AperFunction,Conductor*%
D31*
G36*
X110264923Y-86017544D02*
G01*
X110479482Y-86160907D01*
X110717887Y-86259658D01*
X110970976Y-86310000D01*
X111158422Y-86310000D01*
X113915000Y-89066579D01*
X113915001Y-97156521D01*
X113910719Y-97200000D01*
X113927805Y-97373490D01*
X113978412Y-97540313D01*
X114060590Y-97694059D01*
X114143468Y-97795046D01*
X114143471Y-97795049D01*
X114171184Y-97828817D01*
X114204951Y-97856529D01*
X115593465Y-99245044D01*
X115604774Y-99301898D01*
X115682795Y-99490256D01*
X115796063Y-99659774D01*
X115940226Y-99803937D01*
X116032094Y-99865321D01*
X116024828Y-99878914D01*
X115977082Y-100036312D01*
X115960960Y-100200000D01*
X115962627Y-100216928D01*
X115265000Y-100216928D01*
X115140518Y-100229188D01*
X115080000Y-100247546D01*
X115019482Y-100229188D01*
X114895000Y-100216928D01*
X113995000Y-100216928D01*
X113870518Y-100229188D01*
X113810000Y-100247546D01*
X113749482Y-100229188D01*
X113625000Y-100216928D01*
X112725000Y-100216928D01*
X112600518Y-100229188D01*
X112540000Y-100247546D01*
X112479482Y-100229188D01*
X112355000Y-100216928D01*
X111455000Y-100216928D01*
X111330518Y-100229188D01*
X111270000Y-100247546D01*
X111209482Y-100229188D01*
X111085000Y-100216928D01*
X110185000Y-100216928D01*
X110060518Y-100229188D01*
X110000000Y-100247546D01*
X109939482Y-100229188D01*
X109815000Y-100216928D01*
X108915000Y-100216928D01*
X108790518Y-100229188D01*
X108730000Y-100247546D01*
X108669482Y-100229188D01*
X108545000Y-100216928D01*
X107645000Y-100216928D01*
X107520518Y-100229188D01*
X107460000Y-100247546D01*
X107399482Y-100229188D01*
X107275000Y-100216928D01*
X106375000Y-100216928D01*
X106250518Y-100229188D01*
X106190000Y-100247546D01*
X106129482Y-100229188D01*
X106005000Y-100216928D01*
X105105000Y-100216928D01*
X104980518Y-100229188D01*
X104920000Y-100247546D01*
X104859482Y-100229188D01*
X104735000Y-100216928D01*
X104570750Y-100220000D01*
X104412000Y-100378750D01*
X104412000Y-101728000D01*
X104432000Y-101728000D01*
X104432000Y-101982000D01*
X104412000Y-101982000D01*
X104412000Y-102002000D01*
X104158000Y-102002000D01*
X104158000Y-101982000D01*
X103358750Y-101982000D01*
X103200000Y-102140750D01*
X103198701Y-102442833D01*
X102672203Y-101916336D01*
X102744180Y-101894502D01*
X102854494Y-101835537D01*
X102951185Y-101756185D01*
X103030537Y-101659494D01*
X103089502Y-101549180D01*
X103125812Y-101429482D01*
X103138072Y-101305000D01*
X103138072Y-100505965D01*
X103172747Y-100499068D01*
X103342907Y-100428586D01*
X103400620Y-100390023D01*
X103383815Y-100403815D01*
X103304463Y-100500506D01*
X103245498Y-100610820D01*
X103209188Y-100730518D01*
X103196928Y-100855000D01*
X103200000Y-101569250D01*
X103358750Y-101728000D01*
X104158000Y-101728000D01*
X104158000Y-100378750D01*
X103999250Y-100220000D01*
X103835000Y-100216928D01*
X103710518Y-100229188D01*
X103590820Y-100265498D01*
X103517756Y-100304552D01*
X103626280Y-100196028D01*
X103728604Y-100042889D01*
X103799086Y-99872729D01*
X103835018Y-99692089D01*
X103835018Y-99507911D01*
X103799086Y-99327271D01*
X103728604Y-99157111D01*
X103626280Y-99003972D01*
X103496046Y-98873738D01*
X103342907Y-98771414D01*
X103172747Y-98700932D01*
X103138072Y-98694035D01*
X103138072Y-97865000D01*
X103125812Y-97740518D01*
X103107454Y-97680000D01*
X103125812Y-97619482D01*
X103138072Y-97495000D01*
X103138072Y-96595000D01*
X103125812Y-96470518D01*
X103107454Y-96410000D01*
X103125812Y-96349482D01*
X103138072Y-96225000D01*
X103138072Y-95325000D01*
X103125812Y-95200518D01*
X103107454Y-95140000D01*
X103125812Y-95079482D01*
X103138072Y-94955000D01*
X103138072Y-94055000D01*
X103125812Y-93930518D01*
X103107454Y-93870000D01*
X103125812Y-93809482D01*
X103138072Y-93685000D01*
X103138072Y-92785000D01*
X103125812Y-92660518D01*
X103107454Y-92600000D01*
X103125812Y-92539482D01*
X103138072Y-92415000D01*
X103138072Y-92084650D01*
X105115000Y-94061579D01*
X105115001Y-95293306D01*
X105100932Y-95327271D01*
X105065000Y-95507911D01*
X105065000Y-95692089D01*
X105100932Y-95872729D01*
X105171414Y-96042889D01*
X105273738Y-96196028D01*
X105403972Y-96326262D01*
X105557111Y-96428586D01*
X105727271Y-96499068D01*
X105907911Y-96535000D01*
X106092089Y-96535000D01*
X106272729Y-96499068D01*
X106442889Y-96428586D01*
X106596028Y-96326262D01*
X106726262Y-96196028D01*
X106828586Y-96042889D01*
X106899068Y-95872729D01*
X106935000Y-95692089D01*
X106935000Y-95507911D01*
X106899068Y-95327271D01*
X106885000Y-95293308D01*
X106885000Y-94982538D01*
X108714250Y-94980000D01*
X108873000Y-94821250D01*
X108873000Y-91972000D01*
X109127000Y-91972000D01*
X109127000Y-94821250D01*
X109285750Y-94980000D01*
X111500000Y-94983072D01*
X111624482Y-94970812D01*
X111744180Y-94934502D01*
X111854494Y-94875537D01*
X111951185Y-94796185D01*
X112030537Y-94699494D01*
X112089502Y-94589180D01*
X112125812Y-94469482D01*
X112138072Y-94345000D01*
X112135000Y-92130750D01*
X111976250Y-91972000D01*
X109127000Y-91972000D01*
X108873000Y-91972000D01*
X106023750Y-91972000D01*
X105865000Y-92130750D01*
X105864754Y-92308175D01*
X103656534Y-90099956D01*
X103628817Y-90066183D01*
X103494059Y-89955589D01*
X103340313Y-89873411D01*
X103173490Y-89822805D01*
X103138072Y-89819317D01*
X103138072Y-89345000D01*
X105861928Y-89345000D01*
X105865000Y-91559250D01*
X106023750Y-91718000D01*
X108873000Y-91718000D01*
X108873000Y-88868750D01*
X109127000Y-88868750D01*
X109127000Y-91718000D01*
X111976250Y-91718000D01*
X112135000Y-91559250D01*
X112138072Y-89345000D01*
X112125812Y-89220518D01*
X112089502Y-89100820D01*
X112030537Y-88990506D01*
X111951185Y-88893815D01*
X111854494Y-88814463D01*
X111744180Y-88755498D01*
X111624482Y-88719188D01*
X111500000Y-88706928D01*
X109285750Y-88710000D01*
X109127000Y-88868750D01*
X108873000Y-88868750D01*
X108714250Y-88710000D01*
X106500000Y-88706928D01*
X106375518Y-88719188D01*
X106255820Y-88755498D01*
X106145506Y-88814463D01*
X106048815Y-88893815D01*
X105969463Y-88990506D01*
X105910498Y-89100820D01*
X105874188Y-89220518D01*
X105861928Y-89345000D01*
X103138072Y-89345000D01*
X103138072Y-88975000D01*
X103125812Y-88850518D01*
X103107454Y-88790000D01*
X103125812Y-88729482D01*
X103138072Y-88605000D01*
X103138072Y-88215865D01*
X103157111Y-88228586D01*
X103327271Y-88299068D01*
X103507911Y-88335000D01*
X103692089Y-88335000D01*
X103872729Y-88299068D01*
X104027404Y-88235000D01*
X107758982Y-88235000D01*
X107800000Y-88239040D01*
X107841018Y-88235000D01*
X107841019Y-88235000D01*
X107963689Y-88222918D01*
X108121087Y-88175172D01*
X108266146Y-88097636D01*
X108393291Y-87993291D01*
X108419446Y-87961422D01*
X109661432Y-86719437D01*
X109693291Y-86693291D01*
X109724787Y-86654914D01*
X109797636Y-86566146D01*
X109875172Y-86421087D01*
X109884317Y-86390941D01*
X109922918Y-86263689D01*
X109935000Y-86141019D01*
X109935000Y-86141018D01*
X109939040Y-86100000D01*
X109935000Y-86058982D01*
X109935000Y-86017595D01*
X109935077Y-86017544D01*
X110100000Y-85852621D01*
X110264923Y-86017544D01*
G37*
%TD.AperFunction*%
D30*
X131362000Y-98148000D02*
X131382000Y-98148000D01*
X131382000Y-98402000D01*
X131362000Y-98402000D01*
X131362000Y-99726250D01*
X131520750Y-99885000D01*
X131529693Y-99886928D01*
X131400000Y-99886928D01*
X131231623Y-99903512D01*
X131069717Y-99952625D01*
X130920503Y-100032382D01*
X130908122Y-100042543D01*
X130890608Y-100028169D01*
X130745716Y-99950722D01*
X130646620Y-99920662D01*
X130662636Y-99901146D01*
X130694921Y-99840746D01*
X130810518Y-99875812D01*
X130935000Y-99888072D01*
X130949250Y-99885000D01*
X131108000Y-99726250D01*
X131108000Y-98402000D01*
X131088000Y-98402000D01*
X131088000Y-98148000D01*
X131108000Y-98148000D01*
X131108000Y-98128000D01*
X131362000Y-98128000D01*
X131362000Y-98148000D01*
%TA.AperFunction,Conductor*%
D31*
G36*
X131362000Y-98148000D02*
G01*
X131382000Y-98148000D01*
X131382000Y-98402000D01*
X131362000Y-98402000D01*
X131362000Y-99726250D01*
X131520750Y-99885000D01*
X131529693Y-99886928D01*
X131400000Y-99886928D01*
X131231623Y-99903512D01*
X131069717Y-99952625D01*
X130920503Y-100032382D01*
X130908122Y-100042543D01*
X130890608Y-100028169D01*
X130745716Y-99950722D01*
X130646620Y-99920662D01*
X130662636Y-99901146D01*
X130694921Y-99840746D01*
X130810518Y-99875812D01*
X130935000Y-99888072D01*
X130949250Y-99885000D01*
X131108000Y-99726250D01*
X131108000Y-98402000D01*
X131088000Y-98402000D01*
X131088000Y-98148000D01*
X131108000Y-98148000D01*
X131108000Y-98128000D01*
X131362000Y-98128000D01*
X131362000Y-98148000D01*
G37*
%TD.AperFunction*%
D30*
X121764999Y-86592088D02*
X121800931Y-86772728D01*
X121864999Y-86927403D01*
X121864999Y-86967816D01*
X121821916Y-87048418D01*
X121777071Y-87196255D01*
X121761928Y-87350000D01*
X121761928Y-88750000D01*
X121777071Y-88903745D01*
X121821916Y-89051582D01*
X121864862Y-89131928D01*
X121525000Y-89131928D01*
X121400518Y-89144188D01*
X121280820Y-89180498D01*
X121170506Y-89239463D01*
X121073815Y-89318815D01*
X120994463Y-89415506D01*
X120935498Y-89525820D01*
X120899188Y-89645518D01*
X120886928Y-89770000D01*
X120886928Y-90830000D01*
X120899188Y-90954482D01*
X120935498Y-91074180D01*
X120973560Y-91145387D01*
X120973943Y-91149278D01*
X120977805Y-91188492D01*
X121028412Y-91355315D01*
X121103001Y-91494863D01*
X121073815Y-91518815D01*
X120994463Y-91615506D01*
X120935498Y-91725820D01*
X120899188Y-91845518D01*
X120886928Y-91970000D01*
X120886928Y-93030000D01*
X120899188Y-93154482D01*
X120935498Y-93274180D01*
X120994463Y-93384494D01*
X121073815Y-93481185D01*
X121100078Y-93502739D01*
X121044463Y-93570506D01*
X120985498Y-93680820D01*
X120949188Y-93800518D01*
X120936928Y-93925000D01*
X120940000Y-94114250D01*
X121098750Y-94273000D01*
X121898000Y-94273000D01*
X121898000Y-94253000D01*
X122152000Y-94253000D01*
X122152000Y-94273000D01*
X122172000Y-94273000D01*
X122172000Y-94527000D01*
X122152000Y-94527000D01*
X122152000Y-94547000D01*
X121898000Y-94547000D01*
X121898000Y-94527000D01*
X121098750Y-94527000D01*
X120940000Y-94685750D01*
X120936928Y-94875000D01*
X120949188Y-94999482D01*
X120985498Y-95119180D01*
X121044463Y-95229494D01*
X121123815Y-95326185D01*
X121220506Y-95405537D01*
X121283965Y-95439457D01*
X120604956Y-96118466D01*
X120571183Y-96146183D01*
X120460589Y-96280942D01*
X120378411Y-96434688D01*
X120327805Y-96601511D01*
X120315000Y-96731524D01*
X120315000Y-96731531D01*
X120310719Y-96775000D01*
X120315000Y-96818469D01*
X120315001Y-99869569D01*
X120292089Y-99865012D01*
X120138072Y-99865012D01*
X120138072Y-99135000D01*
X120125812Y-99010518D01*
X120107454Y-98950000D01*
X120125812Y-98889482D01*
X120138072Y-98765000D01*
X120138072Y-97865000D01*
X120125812Y-97740518D01*
X120107454Y-97680000D01*
X120125812Y-97619482D01*
X120138072Y-97495000D01*
X120138072Y-96595000D01*
X120125812Y-96470518D01*
X120107454Y-96410000D01*
X120125812Y-96349482D01*
X120138072Y-96225000D01*
X120138072Y-95325000D01*
X120125812Y-95200518D01*
X120107454Y-95140000D01*
X120125812Y-95079482D01*
X120138072Y-94955000D01*
X120138072Y-94055000D01*
X120125812Y-93930518D01*
X120107454Y-93870000D01*
X120125812Y-93809482D01*
X120138072Y-93685000D01*
X120138072Y-92785000D01*
X120125812Y-92660518D01*
X120107454Y-92600000D01*
X120125812Y-92539482D01*
X120138072Y-92415000D01*
X120138072Y-91515000D01*
X120125812Y-91390518D01*
X120107454Y-91330000D01*
X120125812Y-91269482D01*
X120138072Y-91145000D01*
X120138072Y-90245000D01*
X120125812Y-90120518D01*
X120107454Y-90060000D01*
X120125812Y-89999482D01*
X120138072Y-89875000D01*
X120138072Y-88975000D01*
X120125812Y-88850518D01*
X120107454Y-88790000D01*
X120125812Y-88729482D01*
X120138072Y-88605000D01*
X120138072Y-87705000D01*
X120125812Y-87580518D01*
X120107454Y-87520000D01*
X120125812Y-87459482D01*
X120138072Y-87335000D01*
X120138072Y-86705220D01*
X120260150Y-86770472D01*
X120426746Y-86821008D01*
X120600000Y-86838072D01*
X121100000Y-86838072D01*
X121273254Y-86821008D01*
X121439850Y-86770472D01*
X121593386Y-86688405D01*
X121727962Y-86577962D01*
X121764999Y-86532832D01*
X121764999Y-86592088D01*
%TA.AperFunction,Conductor*%
D31*
G36*
X121764999Y-86592088D02*
G01*
X121800931Y-86772728D01*
X121864999Y-86927403D01*
X121864999Y-86967816D01*
X121821916Y-87048418D01*
X121777071Y-87196255D01*
X121761928Y-87350000D01*
X121761928Y-88750000D01*
X121777071Y-88903745D01*
X121821916Y-89051582D01*
X121864862Y-89131928D01*
X121525000Y-89131928D01*
X121400518Y-89144188D01*
X121280820Y-89180498D01*
X121170506Y-89239463D01*
X121073815Y-89318815D01*
X120994463Y-89415506D01*
X120935498Y-89525820D01*
X120899188Y-89645518D01*
X120886928Y-89770000D01*
X120886928Y-90830000D01*
X120899188Y-90954482D01*
X120935498Y-91074180D01*
X120973560Y-91145387D01*
X120973943Y-91149278D01*
X120977805Y-91188492D01*
X121028412Y-91355315D01*
X121103001Y-91494863D01*
X121073815Y-91518815D01*
X120994463Y-91615506D01*
X120935498Y-91725820D01*
X120899188Y-91845518D01*
X120886928Y-91970000D01*
X120886928Y-93030000D01*
X120899188Y-93154482D01*
X120935498Y-93274180D01*
X120994463Y-93384494D01*
X121073815Y-93481185D01*
X121100078Y-93502739D01*
X121044463Y-93570506D01*
X120985498Y-93680820D01*
X120949188Y-93800518D01*
X120936928Y-93925000D01*
X120940000Y-94114250D01*
X121098750Y-94273000D01*
X121898000Y-94273000D01*
X121898000Y-94253000D01*
X122152000Y-94253000D01*
X122152000Y-94273000D01*
X122172000Y-94273000D01*
X122172000Y-94527000D01*
X122152000Y-94527000D01*
X122152000Y-94547000D01*
X121898000Y-94547000D01*
X121898000Y-94527000D01*
X121098750Y-94527000D01*
X120940000Y-94685750D01*
X120936928Y-94875000D01*
X120949188Y-94999482D01*
X120985498Y-95119180D01*
X121044463Y-95229494D01*
X121123815Y-95326185D01*
X121220506Y-95405537D01*
X121283965Y-95439457D01*
X120604956Y-96118466D01*
X120571183Y-96146183D01*
X120460589Y-96280942D01*
X120378411Y-96434688D01*
X120327805Y-96601511D01*
X120315000Y-96731524D01*
X120315000Y-96731531D01*
X120310719Y-96775000D01*
X120315000Y-96818469D01*
X120315001Y-99869569D01*
X120292089Y-99865012D01*
X120138072Y-99865012D01*
X120138072Y-99135000D01*
X120125812Y-99010518D01*
X120107454Y-98950000D01*
X120125812Y-98889482D01*
X120138072Y-98765000D01*
X120138072Y-97865000D01*
X120125812Y-97740518D01*
X120107454Y-97680000D01*
X120125812Y-97619482D01*
X120138072Y-97495000D01*
X120138072Y-96595000D01*
X120125812Y-96470518D01*
X120107454Y-96410000D01*
X120125812Y-96349482D01*
X120138072Y-96225000D01*
X120138072Y-95325000D01*
X120125812Y-95200518D01*
X120107454Y-95140000D01*
X120125812Y-95079482D01*
X120138072Y-94955000D01*
X120138072Y-94055000D01*
X120125812Y-93930518D01*
X120107454Y-93870000D01*
X120125812Y-93809482D01*
X120138072Y-93685000D01*
X120138072Y-92785000D01*
X120125812Y-92660518D01*
X120107454Y-92600000D01*
X120125812Y-92539482D01*
X120138072Y-92415000D01*
X120138072Y-91515000D01*
X120125812Y-91390518D01*
X120107454Y-91330000D01*
X120125812Y-91269482D01*
X120138072Y-91145000D01*
X120138072Y-90245000D01*
X120125812Y-90120518D01*
X120107454Y-90060000D01*
X120125812Y-89999482D01*
X120138072Y-89875000D01*
X120138072Y-88975000D01*
X120125812Y-88850518D01*
X120107454Y-88790000D01*
X120125812Y-88729482D01*
X120138072Y-88605000D01*
X120138072Y-87705000D01*
X120125812Y-87580518D01*
X120107454Y-87520000D01*
X120125812Y-87459482D01*
X120138072Y-87335000D01*
X120138072Y-86705220D01*
X120260150Y-86770472D01*
X120426746Y-86821008D01*
X120600000Y-86838072D01*
X121100000Y-86838072D01*
X121273254Y-86821008D01*
X121439850Y-86770472D01*
X121593386Y-86688405D01*
X121727962Y-86577962D01*
X121764999Y-86532832D01*
X121764999Y-86592088D01*
G37*
%TD.AperFunction*%
D30*
X128822000Y-98148000D02*
X128842000Y-98148000D01*
X128842000Y-98402000D01*
X128822000Y-98402000D01*
X128822000Y-98422000D01*
X128568000Y-98422000D01*
X128568000Y-98402000D01*
X128548000Y-98402000D01*
X128548000Y-98148000D01*
X128568000Y-98148000D01*
X128568000Y-98128000D01*
X128822000Y-98128000D01*
X128822000Y-98148000D01*
%TA.AperFunction,Conductor*%
D31*
G36*
X128822000Y-98148000D02*
G01*
X128842000Y-98148000D01*
X128842000Y-98402000D01*
X128822000Y-98402000D01*
X128822000Y-98422000D01*
X128568000Y-98422000D01*
X128568000Y-98402000D01*
X128548000Y-98402000D01*
X128548000Y-98148000D01*
X128568000Y-98148000D01*
X128568000Y-98128000D01*
X128822000Y-98128000D01*
X128822000Y-98148000D01*
G37*
%TD.AperFunction*%
D30*
X128764992Y-89695791D02*
X128675000Y-89686928D01*
X128510750Y-89690000D01*
X128352000Y-89848750D01*
X128352000Y-90673000D01*
X128372000Y-90673000D01*
X128372000Y-90927000D01*
X128352000Y-90927000D01*
X128352000Y-90947000D01*
X128098000Y-90947000D01*
X128098000Y-90927000D01*
X128078000Y-90927000D01*
X128078000Y-90673000D01*
X128098000Y-90673000D01*
X128098000Y-89848750D01*
X127939250Y-89690000D01*
X127775000Y-89686928D01*
X127650518Y-89699188D01*
X127530820Y-89735498D01*
X127420506Y-89794463D01*
X127323815Y-89873815D01*
X127295989Y-89907722D01*
X127233604Y-89757111D01*
X127131280Y-89603972D01*
X127008927Y-89481619D01*
X127104494Y-89430537D01*
X127126175Y-89412744D01*
X127248418Y-89478084D01*
X127396255Y-89522929D01*
X127550000Y-89538072D01*
X127850000Y-89538072D01*
X128003745Y-89522929D01*
X128151582Y-89478084D01*
X128287829Y-89405258D01*
X128407251Y-89307251D01*
X128505258Y-89187829D01*
X128578084Y-89051582D01*
X128613448Y-88935000D01*
X128692097Y-88935000D01*
X128764993Y-88920500D01*
X128764992Y-89695791D01*
%TA.AperFunction,Conductor*%
D31*
G36*
X128764992Y-89695791D02*
G01*
X128675000Y-89686928D01*
X128510750Y-89690000D01*
X128352000Y-89848750D01*
X128352000Y-90673000D01*
X128372000Y-90673000D01*
X128372000Y-90927000D01*
X128352000Y-90927000D01*
X128352000Y-90947000D01*
X128098000Y-90947000D01*
X128098000Y-90927000D01*
X128078000Y-90927000D01*
X128078000Y-90673000D01*
X128098000Y-90673000D01*
X128098000Y-89848750D01*
X127939250Y-89690000D01*
X127775000Y-89686928D01*
X127650518Y-89699188D01*
X127530820Y-89735498D01*
X127420506Y-89794463D01*
X127323815Y-89873815D01*
X127295989Y-89907722D01*
X127233604Y-89757111D01*
X127131280Y-89603972D01*
X127008927Y-89481619D01*
X127104494Y-89430537D01*
X127126175Y-89412744D01*
X127248418Y-89478084D01*
X127396255Y-89522929D01*
X127550000Y-89538072D01*
X127850000Y-89538072D01*
X128003745Y-89522929D01*
X128151582Y-89478084D01*
X128287829Y-89405258D01*
X128407251Y-89307251D01*
X128505258Y-89187829D01*
X128578084Y-89051582D01*
X128613448Y-88935000D01*
X128692097Y-88935000D01*
X128764993Y-88920500D01*
X128764992Y-89695791D01*
G37*
%TD.AperFunction*%
D30*
X128411928Y-83750000D02*
X128411928Y-85950000D01*
X128428992Y-86123254D01*
X128479528Y-86289850D01*
X128561595Y-86443386D01*
X128672038Y-86577962D01*
X128806614Y-86688405D01*
X128917384Y-86747613D01*
X128910582Y-86755901D01*
X128828404Y-86909647D01*
X128777797Y-87076470D01*
X128777258Y-87081940D01*
X128692097Y-87065000D01*
X128583114Y-87065000D01*
X128578084Y-87048418D01*
X128505258Y-86912171D01*
X128407251Y-86792749D01*
X128287829Y-86694742D01*
X128151582Y-86621916D01*
X128003745Y-86577071D01*
X127850000Y-86561928D01*
X127550000Y-86561928D01*
X127396255Y-86577071D01*
X127248418Y-86621916D01*
X127126175Y-86687256D01*
X127104494Y-86669463D01*
X126994180Y-86610498D01*
X126874482Y-86574188D01*
X126750000Y-86561928D01*
X126735750Y-86565000D01*
X126577000Y-86723750D01*
X126577000Y-87923000D01*
X126597000Y-87923000D01*
X126597000Y-88177000D01*
X126577000Y-88177000D01*
X126577000Y-88197000D01*
X126323000Y-88197000D01*
X126323000Y-88177000D01*
X126303000Y-88177000D01*
X126303000Y-87923000D01*
X126323000Y-87923000D01*
X126323000Y-86723750D01*
X126164250Y-86565000D01*
X126150000Y-86561928D01*
X126120531Y-86564830D01*
X126135000Y-86492089D01*
X126135000Y-86307911D01*
X126099068Y-86127271D01*
X126028586Y-85957111D01*
X125926262Y-85803972D01*
X125796028Y-85673738D01*
X125642889Y-85571414D01*
X125472729Y-85500932D01*
X125292089Y-85465000D01*
X125107911Y-85465000D01*
X124927271Y-85500932D01*
X124757111Y-85571414D01*
X124603972Y-85673738D01*
X124549993Y-85727717D01*
X124546021Y-85723745D01*
X124392882Y-85621421D01*
X124222722Y-85550939D01*
X124042082Y-85515007D01*
X123857904Y-85515007D01*
X123677264Y-85550939D01*
X123507104Y-85621421D01*
X123353965Y-85723745D01*
X123300000Y-85777710D01*
X123296027Y-85773737D01*
X123142888Y-85671413D01*
X122972728Y-85600931D01*
X122792088Y-85564999D01*
X122607910Y-85564999D01*
X122427270Y-85600931D01*
X122257110Y-85671413D01*
X122103971Y-85773737D01*
X121988072Y-85889636D01*
X121988072Y-83750000D01*
X121979208Y-83660000D01*
X128420792Y-83660000D01*
X128411928Y-83750000D01*
%TA.AperFunction,Conductor*%
D31*
G36*
X128411928Y-83750000D02*
G01*
X128411928Y-85950000D01*
X128428992Y-86123254D01*
X128479528Y-86289850D01*
X128561595Y-86443386D01*
X128672038Y-86577962D01*
X128806614Y-86688405D01*
X128917384Y-86747613D01*
X128910582Y-86755901D01*
X128828404Y-86909647D01*
X128777797Y-87076470D01*
X128777258Y-87081940D01*
X128692097Y-87065000D01*
X128583114Y-87065000D01*
X128578084Y-87048418D01*
X128505258Y-86912171D01*
X128407251Y-86792749D01*
X128287829Y-86694742D01*
X128151582Y-86621916D01*
X128003745Y-86577071D01*
X127850000Y-86561928D01*
X127550000Y-86561928D01*
X127396255Y-86577071D01*
X127248418Y-86621916D01*
X127126175Y-86687256D01*
X127104494Y-86669463D01*
X126994180Y-86610498D01*
X126874482Y-86574188D01*
X126750000Y-86561928D01*
X126735750Y-86565000D01*
X126577000Y-86723750D01*
X126577000Y-87923000D01*
X126597000Y-87923000D01*
X126597000Y-88177000D01*
X126577000Y-88177000D01*
X126577000Y-88197000D01*
X126323000Y-88197000D01*
X126323000Y-88177000D01*
X126303000Y-88177000D01*
X126303000Y-87923000D01*
X126323000Y-87923000D01*
X126323000Y-86723750D01*
X126164250Y-86565000D01*
X126150000Y-86561928D01*
X126120531Y-86564830D01*
X126135000Y-86492089D01*
X126135000Y-86307911D01*
X126099068Y-86127271D01*
X126028586Y-85957111D01*
X125926262Y-85803972D01*
X125796028Y-85673738D01*
X125642889Y-85571414D01*
X125472729Y-85500932D01*
X125292089Y-85465000D01*
X125107911Y-85465000D01*
X124927271Y-85500932D01*
X124757111Y-85571414D01*
X124603972Y-85673738D01*
X124549993Y-85727717D01*
X124546021Y-85723745D01*
X124392882Y-85621421D01*
X124222722Y-85550939D01*
X124042082Y-85515007D01*
X123857904Y-85515007D01*
X123677264Y-85550939D01*
X123507104Y-85621421D01*
X123353965Y-85723745D01*
X123300000Y-85777710D01*
X123296027Y-85773737D01*
X123142888Y-85671413D01*
X122972728Y-85600931D01*
X122792088Y-85564999D01*
X122607910Y-85564999D01*
X122427270Y-85600931D01*
X122257110Y-85671413D01*
X122103971Y-85773737D01*
X121988072Y-85889636D01*
X121988072Y-83750000D01*
X121979208Y-83660000D01*
X128420792Y-83660000D01*
X128411928Y-83750000D01*
G37*
%TD.AperFunction*%
D30*
X116874188Y-83770518D02*
X116861928Y-83895000D01*
X116865000Y-84059250D01*
X117023750Y-84218000D01*
X118373000Y-84218000D01*
X118373000Y-84198000D01*
X118627000Y-84198000D01*
X118627000Y-84218000D01*
X118647000Y-84218000D01*
X118647000Y-84472000D01*
X118627000Y-84472000D01*
X118627000Y-84492000D01*
X118373000Y-84492000D01*
X118373000Y-84472000D01*
X117023750Y-84472000D01*
X116865000Y-84630750D01*
X116861928Y-84795000D01*
X116874188Y-84919482D01*
X116892546Y-84980000D01*
X116874188Y-85040518D01*
X116861928Y-85165000D01*
X116861928Y-86065000D01*
X116874188Y-86189482D01*
X116892546Y-86250000D01*
X116874188Y-86310518D01*
X116861928Y-86435000D01*
X116861928Y-86736060D01*
X116039244Y-85913377D01*
X116117544Y-85835077D01*
X116260907Y-85620518D01*
X116359658Y-85382113D01*
X116410000Y-85129024D01*
X116410000Y-84870976D01*
X116359658Y-84617887D01*
X116260907Y-84379482D01*
X116117544Y-84164923D01*
X115935077Y-83982456D01*
X115720518Y-83839093D01*
X115482113Y-83740342D01*
X115229024Y-83690000D01*
X114970976Y-83690000D01*
X114717887Y-83740342D01*
X114479482Y-83839093D01*
X114264923Y-83982456D01*
X114100000Y-84147379D01*
X113935077Y-83982456D01*
X113720518Y-83839093D01*
X113482113Y-83740342D01*
X113229024Y-83690000D01*
X112970976Y-83690000D01*
X112717887Y-83740342D01*
X112479482Y-83839093D01*
X112264923Y-83982456D01*
X112100000Y-84147379D01*
X111935077Y-83982456D01*
X111720518Y-83839093D01*
X111482113Y-83740342D01*
X111229024Y-83690000D01*
X110970976Y-83690000D01*
X110717887Y-83740342D01*
X110479482Y-83839093D01*
X110264923Y-83982456D01*
X110100000Y-84147379D01*
X109935077Y-83982456D01*
X109720518Y-83839093D01*
X109482113Y-83740342D01*
X109229024Y-83690000D01*
X108970976Y-83690000D01*
X108717887Y-83740342D01*
X108479482Y-83839093D01*
X108264923Y-83982456D01*
X108093319Y-84154060D01*
X107971227Y-84021697D01*
X107763629Y-83870527D01*
X107530528Y-83762762D01*
X107429400Y-83732090D01*
X107227000Y-83855776D01*
X107227000Y-84873000D01*
X107247000Y-84873000D01*
X107247000Y-85127000D01*
X107227000Y-85127000D01*
X107227000Y-86144224D01*
X107429400Y-86267910D01*
X107530528Y-86237238D01*
X107763629Y-86129473D01*
X107971227Y-85978303D01*
X108093319Y-85845940D01*
X108133255Y-85885876D01*
X107454133Y-86565000D01*
X104460848Y-86565000D01*
X104499068Y-86472729D01*
X104530826Y-86313072D01*
X105775000Y-86313072D01*
X105899482Y-86300812D01*
X106019180Y-86264502D01*
X106129494Y-86205537D01*
X106226185Y-86126185D01*
X106303119Y-86032441D01*
X106436371Y-86129473D01*
X106669472Y-86237238D01*
X106770600Y-86267910D01*
X106973000Y-86144224D01*
X106973000Y-85127000D01*
X106953000Y-85127000D01*
X106953000Y-84873000D01*
X106973000Y-84873000D01*
X106973000Y-83855776D01*
X106770600Y-83732090D01*
X106669472Y-83762762D01*
X106436371Y-83870527D01*
X106303119Y-83967559D01*
X106226185Y-83873815D01*
X106129494Y-83794463D01*
X106019180Y-83735498D01*
X105899482Y-83699188D01*
X105775000Y-83686928D01*
X104425000Y-83686928D01*
X104300518Y-83699188D01*
X104180820Y-83735498D01*
X104070506Y-83794463D01*
X103973815Y-83873815D01*
X103894463Y-83970506D01*
X103835498Y-84080820D01*
X103799188Y-84200518D01*
X103786928Y-84325000D01*
X103786928Y-85135350D01*
X103671534Y-85019956D01*
X103643817Y-84986183D01*
X103509059Y-84875589D01*
X103355313Y-84793411D01*
X103188490Y-84742805D01*
X103137001Y-84737734D01*
X103135000Y-84630750D01*
X102976250Y-84472000D01*
X101627000Y-84472000D01*
X101627000Y-84492000D01*
X101373000Y-84492000D01*
X101373000Y-84472000D01*
X101353000Y-84472000D01*
X101353000Y-84218000D01*
X101373000Y-84218000D01*
X101373000Y-84198000D01*
X101627000Y-84198000D01*
X101627000Y-84218000D01*
X102976250Y-84218000D01*
X103135000Y-84059250D01*
X103138072Y-83895000D01*
X103125812Y-83770518D01*
X103092287Y-83660000D01*
X116907713Y-83660000D01*
X116874188Y-83770518D01*
%TA.AperFunction,Conductor*%
D31*
G36*
X116874188Y-83770518D02*
G01*
X116861928Y-83895000D01*
X116865000Y-84059250D01*
X117023750Y-84218000D01*
X118373000Y-84218000D01*
X118373000Y-84198000D01*
X118627000Y-84198000D01*
X118627000Y-84218000D01*
X118647000Y-84218000D01*
X118647000Y-84472000D01*
X118627000Y-84472000D01*
X118627000Y-84492000D01*
X118373000Y-84492000D01*
X118373000Y-84472000D01*
X117023750Y-84472000D01*
X116865000Y-84630750D01*
X116861928Y-84795000D01*
X116874188Y-84919482D01*
X116892546Y-84980000D01*
X116874188Y-85040518D01*
X116861928Y-85165000D01*
X116861928Y-86065000D01*
X116874188Y-86189482D01*
X116892546Y-86250000D01*
X116874188Y-86310518D01*
X116861928Y-86435000D01*
X116861928Y-86736060D01*
X116039244Y-85913377D01*
X116117544Y-85835077D01*
X116260907Y-85620518D01*
X116359658Y-85382113D01*
X116410000Y-85129024D01*
X116410000Y-84870976D01*
X116359658Y-84617887D01*
X116260907Y-84379482D01*
X116117544Y-84164923D01*
X115935077Y-83982456D01*
X115720518Y-83839093D01*
X115482113Y-83740342D01*
X115229024Y-83690000D01*
X114970976Y-83690000D01*
X114717887Y-83740342D01*
X114479482Y-83839093D01*
X114264923Y-83982456D01*
X114100000Y-84147379D01*
X113935077Y-83982456D01*
X113720518Y-83839093D01*
X113482113Y-83740342D01*
X113229024Y-83690000D01*
X112970976Y-83690000D01*
X112717887Y-83740342D01*
X112479482Y-83839093D01*
X112264923Y-83982456D01*
X112100000Y-84147379D01*
X111935077Y-83982456D01*
X111720518Y-83839093D01*
X111482113Y-83740342D01*
X111229024Y-83690000D01*
X110970976Y-83690000D01*
X110717887Y-83740342D01*
X110479482Y-83839093D01*
X110264923Y-83982456D01*
X110100000Y-84147379D01*
X109935077Y-83982456D01*
X109720518Y-83839093D01*
X109482113Y-83740342D01*
X109229024Y-83690000D01*
X108970976Y-83690000D01*
X108717887Y-83740342D01*
X108479482Y-83839093D01*
X108264923Y-83982456D01*
X108093319Y-84154060D01*
X107971227Y-84021697D01*
X107763629Y-83870527D01*
X107530528Y-83762762D01*
X107429400Y-83732090D01*
X107227000Y-83855776D01*
X107227000Y-84873000D01*
X107247000Y-84873000D01*
X107247000Y-85127000D01*
X107227000Y-85127000D01*
X107227000Y-86144224D01*
X107429400Y-86267910D01*
X107530528Y-86237238D01*
X107763629Y-86129473D01*
X107971227Y-85978303D01*
X108093319Y-85845940D01*
X108133255Y-85885876D01*
X107454133Y-86565000D01*
X104460848Y-86565000D01*
X104499068Y-86472729D01*
X104530826Y-86313072D01*
X105775000Y-86313072D01*
X105899482Y-86300812D01*
X106019180Y-86264502D01*
X106129494Y-86205537D01*
X106226185Y-86126185D01*
X106303119Y-86032441D01*
X106436371Y-86129473D01*
X106669472Y-86237238D01*
X106770600Y-86267910D01*
X106973000Y-86144224D01*
X106973000Y-85127000D01*
X106953000Y-85127000D01*
X106953000Y-84873000D01*
X106973000Y-84873000D01*
X106973000Y-83855776D01*
X106770600Y-83732090D01*
X106669472Y-83762762D01*
X106436371Y-83870527D01*
X106303119Y-83967559D01*
X106226185Y-83873815D01*
X106129494Y-83794463D01*
X106019180Y-83735498D01*
X105899482Y-83699188D01*
X105775000Y-83686928D01*
X104425000Y-83686928D01*
X104300518Y-83699188D01*
X104180820Y-83735498D01*
X104070506Y-83794463D01*
X103973815Y-83873815D01*
X103894463Y-83970506D01*
X103835498Y-84080820D01*
X103799188Y-84200518D01*
X103786928Y-84325000D01*
X103786928Y-85135350D01*
X103671534Y-85019956D01*
X103643817Y-84986183D01*
X103509059Y-84875589D01*
X103355313Y-84793411D01*
X103188490Y-84742805D01*
X103137001Y-84737734D01*
X103135000Y-84630750D01*
X102976250Y-84472000D01*
X101627000Y-84472000D01*
X101627000Y-84492000D01*
X101373000Y-84492000D01*
X101373000Y-84472000D01*
X101353000Y-84472000D01*
X101353000Y-84218000D01*
X101373000Y-84218000D01*
X101373000Y-84198000D01*
X101627000Y-84198000D01*
X101627000Y-84218000D01*
X102976250Y-84218000D01*
X103135000Y-84059250D01*
X103138072Y-83895000D01*
X103125812Y-83770518D01*
X103092287Y-83660000D01*
X116907713Y-83660000D01*
X116874188Y-83770518D01*
G37*
%TD.AperFunction*%
%TD*%
D32*
X133050013Y-102149997D03*
X131200000Y-99799992D03*
X103456114Y-107340328D03*
X103145004Y-101854996D03*
X114000000Y-105800000D03*
X107600000Y-107400000D03*
X126800000Y-86500000D03*
X120400000Y-86800000D03*
X107200000Y-88400000D03*
X128600008Y-88000000D03*
X122800000Y-92200042D03*
X106200000Y-107600000D03*
X103600000Y-86200000D03*
X127687500Y-101887500D03*
X132600000Y-95200000D03*
X131519812Y-91600000D03*
X130049976Y-86849976D03*
X128000000Y-96600000D03*
X133400000Y-98400000D03*
X130662026Y-91800000D03*
X133400002Y-90400000D03*
X116000000Y-92200000D03*
X122699999Y-86499999D03*
X123949993Y-86450007D03*
X116800000Y-93200000D03*
X125200000Y-86400000D03*
X116800000Y-95400000D03*
X104249990Y-103600000D03*
X103600000Y-87400000D03*
X120200000Y-100800012D03*
D33*
X116600000Y-99000000D03*
D32*
X106000000Y-95600000D03*
X126599994Y-91000000D03*
X130399994Y-89799994D03*
X126405018Y-90200000D03*
X102900018Y-99600000D03*
X101200000Y-103400000D03*
X116800000Y-103200000D03*
X119200000Y-105600000D03*
D33*
X115100000Y-85000000D03*
X113100000Y-85000000D03*
X111100000Y-85000000D03*
X109100000Y-85000000D03*
X107100000Y-85000000D03*
X105100000Y-85000000D03*
X133530000Y-86100000D03*
X133530000Y-89100000D03*
D34*
X134120000Y-104470000D03*
X125480000Y-104470000D03*
D33*
X126910000Y-105000000D03*
D35*
X125480000Y-108650000D03*
D33*
X132690000Y-105000000D03*
D35*
X134120000Y-108650000D03*
M02*
